<?xml version="1.0" encoding="utf-8"?>
<!-- Generator: Adobe Illustrator 25.3.0, SVG Export Plug-In . SVG Version: 6.00 Build 0)  -->
<svg version="1.1" id="Layer_1" xmlns="http://www.w3.org/2000/svg" xmlns:xlink="http://www.w3.org/1999/xlink" x="0px" y="0px"
	 viewBox="0 0 1050 314.47" style="enable-background:new 0 0 1050 314.47;" xml:space="preserve">
<style type="text/css">
	.st0{display:none;}
	.st1{display:inline;fill:#FFFFFF;}
	.st2{fill:#0254E4;}
	.st3{opacity:0.65;fill:#00A1CC;}
	.st4{fill:#292C3D;}
	.st5{fill:#F9A57E;}
	.st6{fill:#E76F59;}
	.st7{fill:#E8A393;}
	.st8{fill:#4D505E;}
	.st9{fill:#3D3848;}
	.st10{opacity:0.32;fill:#CA0045;}
	.st11{fill:#DA395B;}
	.st12{fill:#FF4C6B;}
	.st13{fill:#FFFFFF;}
	.st14{fill:#D8D8D8;}
	.st15{fill:#AFEAF0;}
	.st16{fill:#7695A8;}
	.st17{fill:#5AC4E0;}
	.st18{fill:#273137;}
	.st19{fill:#F8F2ED;}
	.st20{fill:#48525B;}
	.st21{fill:#B6B6B6;}
</style>
<g id="EDUCATION" class="st0">
	<path class="st1" d="M120.35,250.1V108.26h66.39v23.27h-31.65v31.65h23.61v24.12h-23.61v39.61h32v23.18H120.35z"/>
	<path class="st1" d="M200.85,250.1V108.26h37.38c9.75,0,17.78,0.81,24.08,2.44c6.3,1.63,11.34,4.32,15.1,8.08
		c3.76,3.76,6.4,8.4,7.91,13.9c1.51,5.5,2.27,12.45,2.27,20.83v51.16c0,8.44-0.76,15.41-2.27,20.92c-1.51,5.5-4.15,10.15-7.91,13.94
		c-3.76,3.79-8.8,6.5-15.1,8.13c-6.3,1.63-14.3,2.44-24,2.44H200.85z M235.59,226.14h3.25c2.96,0,5.32-0.24,7.06-0.73
		c1.74-0.48,3.05-1.35,3.94-2.61c0.88-1.25,1.45-2.64,1.71-4.15c0.26-1.51,0.38-3.64,0.38-6.37v-66.56c0-2.74-0.13-4.85-0.38-6.33
		c-0.26-1.48-0.83-2.82-1.71-4.02c-0.89-1.2-2.2-2.02-3.94-2.48c-1.74-0.46-4.09-0.68-7.06-0.68h-3.25V226.14z"/>
	<path class="st1" d="M348.77,252.32c-8.21,0-15.11-0.93-20.7-2.78c-5.59-1.85-10.04-4.73-13.35-8.64
		c-3.31-3.91-5.66-8.57-7.06-13.99c-1.4-5.42-2.1-11.98-2.1-19.68v-98.98h34.56v104.8c0,1.94,0.08,3.59,0.26,4.96
		c0.17,1.37,0.51,2.87,1.03,4.49c0.51,1.63,1.4,2.88,2.65,3.76c1.25,0.88,2.82,1.33,4.71,1.33c1.88,0,3.45-0.44,4.7-1.33
		c1.25-0.88,2.14-2.14,2.65-3.76c0.51-1.62,0.84-3.12,0.98-4.49c0.14-1.37,0.21-3.02,0.21-4.96v-104.8h34.65v98.98
		c0,7.7-0.71,14.26-2.14,19.68c-1.43,5.42-3.78,10.08-7.06,13.99c-3.28,3.91-7.73,6.79-13.35,8.64
		C363.81,251.39,356.92,252.32,348.77,252.32z"/>
	<path class="st1" d="M453.82,252.32c-8.1,0-15.01-1.07-20.75-3.21c-5.73-2.14-10.27-5.32-13.6-9.54c-3.34-4.22-5.76-9.15-7.27-14.8
		c-1.51-5.65-2.27-12.29-2.27-19.93V153.6c0-7.7,0.76-14.37,2.27-20.02c1.51-5.65,3.93-10.58,7.27-14.8
		c3.34-4.22,7.87-7.4,13.6-9.54c5.73-2.14,12.65-3.21,20.75-3.21c6.44,0,12.12,0.67,17.02,2.01c4.9,1.34,8.94,3.19,12.11,5.56
		c3.17,2.37,5.75,5.3,7.74,8.81c2,3.51,3.41,7.26,4.23,11.25c0.83,3.99,1.24,8.44,1.24,13.35v12.75h-34.13v-15.57
		c0-2.05-0.06-3.69-0.17-4.92c-0.12-1.23-0.42-2.65-0.9-4.28c-0.49-1.62-1.33-2.85-2.52-3.68c-1.2-0.83-2.74-1.24-4.62-1.24
		c-1.54,0-2.87,0.31-3.98,0.94c-1.11,0.63-1.96,1.37-2.52,2.22c-0.57,0.86-1.01,2-1.33,3.42c-0.31,1.43-0.51,2.68-0.6,3.76
		c-0.08,1.08-0.13,2.37-0.13,3.85v69.81c0,1.48,0.04,2.78,0.13,3.89c0.09,1.11,0.3,2.37,0.64,3.76c0.34,1.4,0.8,2.54,1.37,3.42
		c0.57,0.88,1.41,1.62,2.52,2.22c1.11,0.6,2.41,0.9,3.89,0.9c1.88,0,3.42-0.41,4.62-1.24c1.2-0.83,2.04-2.07,2.52-3.72
		c0.48-1.65,0.78-3.09,0.9-4.32c0.11-1.23,0.17-2.87,0.17-4.92v-16.25h34.13v12.66c0,4.96-0.41,9.45-1.24,13.47
		c-0.83,4.02-2.24,7.83-4.23,11.42c-2,3.59-4.58,6.6-7.74,9.03c-3.17,2.42-7.2,4.35-12.11,5.78
		C465.94,251.61,460.27,252.32,453.82,252.32z"/>
	<path class="st1" d="M506.35,250.1l25.75-141.84h40.38l25.49,141.84h-31.74l-4.45-28.32h-18.39l-4.28,28.32H506.35z M546.13,201.76
		h12.75l-6.42-52.95L546.13,201.76z"/>
	<path class="st1" d="M622.18,250.1V133.92h-20.7v-25.66h76.05v25.66h-20.62V250.1H622.18z"/>
	<path class="st1" d="M690.19,250.1V108.26h34.65V250.1H690.19z"/>
	<path class="st1" d="M808.3,249.2c-5.73,2.08-12.65,3.12-20.75,3.12c-8.1,0-15-1.04-20.7-3.12c-5.7-2.08-10.24-5.19-13.6-9.32
		c-3.37-4.13-5.79-9.01-7.27-14.63c-1.48-5.62-2.22-12.25-2.22-19.89V153c0-7.64,0.74-14.27,2.22-19.89
		c1.48-5.62,3.91-10.49,7.27-14.63c3.36-4.13,7.9-7.24,13.6-9.32c5.7-2.08,12.6-3.12,20.7-3.12c8.1,0,15.01,1.04,20.75,3.12
		c5.73,2.08,10.29,5.19,13.69,9.32c3.39,4.14,5.85,9.01,7.36,14.63c1.51,5.62,2.27,12.25,2.27,19.89v52.36
		c0,7.64-0.76,14.27-2.27,19.89c-1.51,5.62-3.96,10.49-7.36,14.63C818.59,244.01,814.03,247.12,808.3,249.2z M787.55,228.28
		c1.88,0,3.42-0.41,4.62-1.24c1.2-0.83,2.05-2.04,2.57-3.64c0.51-1.6,0.84-3.05,0.98-4.36c0.14-1.31,0.21-2.94,0.21-4.88V144.1
		c0-1.94-0.07-3.56-0.21-4.88c-0.14-1.31-0.47-2.75-0.98-4.32c-0.51-1.57-1.37-2.77-2.57-3.59c-1.2-0.83-2.74-1.24-4.62-1.24
		c-1.54,0-2.85,0.31-3.94,0.94c-1.08,0.63-1.9,1.36-2.44,2.18c-0.54,0.83-0.96,1.97-1.24,3.42c-0.29,1.45-0.44,2.65-0.47,3.59
		c-0.03,0.94-0.04,2.24-0.04,3.89v70.06c0,1.6,0.01,2.88,0.04,3.85c0.03,0.97,0.18,2.18,0.47,3.64c0.29,1.46,0.7,2.6,1.24,3.42
		c0.54,0.83,1.35,1.57,2.44,2.22C784.7,227.95,786.01,228.28,787.55,228.28z"/>
	<path class="st1" d="M850.43,250.1V108.26h24.64L900.99,169v-60.74h28.66V250.1h-23.7l-25.75-66.73v66.73H850.43z"/>
</g>
<g>
	<g id="EDUKIT">
		<path d="M36.99,92.8h103.95v35.47H72.97v34.43h67.96v34.82H72.97v50.1h67.96v35.6H36.99V92.8z"/>
		<path d="M213.83,92.8h42.94c27.68,0,48.24,3.43,61.69,10.29c13.45,6.86,24.53,18.02,33.24,33.46
			c8.71,15.45,13.07,33.49,13.07,54.11c0,14.67-2.44,28.16-7.31,40.45c-4.87,12.3-11.6,22.51-20.18,30.62
			c-8.58,8.11-17.87,13.72-27.87,16.83c-10,3.11-27.33,4.66-51.99,4.66h-43.59V92.8z M249.81,127.75v120.13h16.83
			c16.57,0,28.59-1.9,36.05-5.7c7.46-3.8,13.57-10.19,18.32-19.18c4.75-8.98,7.12-20.04,7.12-33.18c0-20.22-5.65-35.9-16.96-47.04
			c-10.18-10.02-26.54-15.03-49.06-15.03H249.81z"/>
		<path d="M437.01,92.8h36.38v123.14c0,10.61,0.93,18.11,2.78,22.51c1.85,4.4,4.92,7.91,9.19,10.54c4.27,2.63,9.43,3.94,15.47,3.94
			c6.39,0,11.89-1.46,16.51-4.4c4.62-2.93,7.81-6.66,9.58-11.19c1.77-4.53,2.65-13.17,2.65-25.94V92.8h36.38v113.53
			c0,19.16-1.08,32.45-3.24,39.87c-2.16,7.42-6.28,14.59-12.36,21.49c-6.08,6.91-13.1,12.02-21.04,15.34
			c-7.94,3.32-17.17,4.98-27.7,4.98c-13.81,0-25.83-3.17-36.05-9.52c-10.23-6.34-17.54-14.28-21.94-23.82
			c-4.4-9.53-6.6-25.65-6.6-48.35V92.8z"/>
		<path d="M647.25,92.8h36.64v65.65l51.69-65.65h43.52l-66.5,84.99l72.97,105.44h-42.98l-58.7-84.61v84.61h-36.64V92.8z"/>
		<path d="M847.78,92.8h35.99v190.43h-35.99V92.8z"/>
		<path d="M944.75,92.8H1050v35.73h-34.69v154.7h-36.77v-154.7h-33.79V92.8z"/>
	</g>
	<g>
		<path class="st2" d="M749.13,46.64c0,0,4.49,16.19,6.7,18.84c2.21,2.65,9.42,6.55,9.42,6.55l-1.91,3.39
			c0,0-13.11-6.68-15.38-12.15c-1.32-3.18-2.21-5.93-2.65-8.39c-0.36-2-1.84-6.99-1.1-8.98C744.68,44.6,748.1,43.91,749.13,46.64z"
			/>
		<path class="st3" d="M749.13,46.64c0,0,4.49,16.19,6.7,18.84c2.21,2.65,9.42,6.55,9.42,6.55l-1.91,3.39
			c0,0-13.11-6.68-15.38-12.15c-1.32-3.18-2.21-5.93-2.65-8.39c-0.36-2-1.84-6.99-1.1-8.98C744.68,44.6,748.1,43.91,749.13,46.64z"
			/>
		<path class="st4" d="M794.11,123.93l3.31-3.09c0,0,13.23-0.97,14.01,0.19c0.77,1.16-12.55,7.44-14.26,7.33
			C795.46,128.24,794.34,125.21,794.11,123.93z"/>
		<path class="st5" d="M769.86,79.16c0,0,12.51-3.18,13.54-1.12c1.03,2.06,14.02,42.8,14.02,42.8l-3.31,3.09
			c0,0-13.93-34.38-17.96-37.98C772.11,82.36,767.99,80.58,769.86,79.16z"/>
		<path class="st6" d="M769.86,79.16c0,0,12.51-3.18,13.54-1.12c1.03,2.06,14.02,42.8,14.02,42.8l-3.31,3.09
			c0,0-13.93-34.38-17.96-37.98C772.11,82.36,767.99,80.58,769.86,79.16z"/>
		<g>
			<path class="st5" d="M763.41,71.66c0.95-0.25,1.73-0.57,2.6-1.04c0.7-0.38,1.37-0.75,2.21-0.63c0.6,0.09,5.4,2.09,4.12,2.98
				c-0.42,0.29-1.45-0.22-1.87-0.37c-0.59-0.21-1.18-0.5-1.75-0.75c0.52-0.03,3.12,1.08,2.84,1.68c-0.48,1.07-3.11-0.36-3.73-0.7
				c0.47,0.07,2.1,0.68,2.09,1.28c0,0.93-1.94,0.15-2.36-0.06c-0.31-0.16-0.54-0.38-0.88-0.43c-0.4-0.05-0.8,0.13-1.18,0.21
				c-0.66,0.14-1.37,0.1-2.05,0.04c-0.4-0.04-1.33,0.05-1.53-0.3c-0.21-0.36-0.05-1.19,0.26-1.46
				C762.52,71.83,762.98,71.78,763.41,71.66z"/>
			<path class="st7" d="M763.41,71.66c0.95-0.25,1.73-0.57,2.6-1.04c0.7-0.38,1.37-0.75,2.21-0.63c0.6,0.09,5.4,2.09,4.12,2.98
				c-0.42,0.29-1.45-0.22-1.87-0.37c-0.59-0.21-1.18-0.5-1.75-0.75c0.52-0.03,3.12,1.08,2.84,1.68c-0.48,1.07-3.11-0.36-3.73-0.7
				c0.47,0.07,2.1,0.68,2.09,1.28c0,0.93-1.94,0.15-2.36-0.06c-0.31-0.16-0.54-0.38-0.88-0.43c-0.4-0.05-0.8,0.13-1.18,0.21
				c-0.66,0.14-1.37,0.1-2.05,0.04c-0.4-0.04-1.33,0.05-1.53-0.3c-0.21-0.36-0.05-1.19,0.26-1.46
				C762.52,71.83,762.98,71.78,763.41,71.66z"/>
		</g>
		<g>
			<polygon class="st4" points="785.08,50.03 788.03,51.24 777.92,75.64 774.94,74.03 			"/>
			<rect x="756.77" y="73.61" class="st4" width="19.25" height="2.99"/>
		</g>
		<path class="st4" d="M722.73,59.7c2.57-1.47,3-3.1,1.58-8.48s2.31-10.97,5.9-12.45c2.64-1.09,4.95-1.57,6.56-4.38
			c1.6-2.81-1.44-8.81,3.64-13.25c3.7-3.23,9.01-0.65,9.01-0.65c1.14-0.63,1.61,6.03,1.7,11.04c-6.43,9.84-4.6,22.71-2.26,33.73
			c0.06,0.27,0.15,0.5,0.24,0.74c-0.51,8.53-0.91,15.59-0.91,15.59s-15.46,8.75-25.98,1.26C711.69,75.35,717.57,62.65,722.73,59.7z"
			/>
		<path class="st4" d="M768.19,121.91l3.93,2.26c0,0,4.81,12.37,3.93,13.45c-0.88,1.08-10.8-9.81-11.19-11.48
			C764.46,124.46,767.04,122.5,768.19,121.91z"/>
		<path class="st5" d="M763.18,78.43c0,0,25.22,1.77,27.58,4.02c2.36,2.26-19.06,41.47-19.06,41.47l-3.51-2.02
			c0,0,5.3-18.65,6.67-22.97c1.37-4.32,4.02-9.52,3.53-10.21c-0.49-0.69-25.91,3.14-25.71-4.02
			C752.88,77.55,763.18,78.43,763.18,78.43z"/>
		<path class="st5" d="M750.75,35.89c0,0-2.65,7.21-1.03,12.59l-8.83-2.13c0,0,3.61-12.07,5.16-14.13
			C747.59,30.15,750.75,35.89,750.75,35.89z"/>
		<path class="st6" d="M750.75,35.89c0,0-2.65,7.21-1.03,12.59l-8.83-2.13c0,0,3.61-12.07,5.16-14.13
			C747.59,30.15,750.75,35.89,750.75,35.89z"/>
		<path class="st5" d="M751.66,26.49c0,0,3.43,1.64,4.25,3.02c0.82,1.38,0.1,3.3,0.17,4.56c0.07,1.26,0.42,3.14,0.23,3.45
			c-0.19,0.31-1.45,0-1.66,0.27c-0.2,0.27-1.84,1.3-2.36,2.46c-0.51,1.16-1.2,1.26-2.39,0.68c-1.2-0.58-5.77-6.62-5.82-9.46
			C744.03,28.64,748.26,25.33,751.66,26.49z"/>
		<path class="st4" d="M748.75,22.64c0,0,1.6,3.2,1.77,4.47c0.17,1.27-1.05,5.02-1.77,5.52c-0.72,0.5-0.11-4.2-1.93-2.76
			c-1.82,1.44,0.11,4.14,0,4.69c-0.11,0.55-0.94,2.32-2.82,2.48c-1.88,0.17-4.97-9.17-2.93-11.48S746.6,22.64,748.75,22.64z"/>
		<path class="st8" d="M738.16,70.68l11.7-0.88c0,0,6.09,6.8,12.1,6.8c5.94,0,20.56,0,20.56,0s-1.04,8.56-5.99,15.34
			c0,0-19.61,1.44-29.13,0.66C737.89,91.81,728.84,81.31,738.16,70.68z"/>
		<path class="st9" d="M737.07,72.05c0.34-0.46,0.69-0.91,1.09-1.37l11.7-0.88c0,0,5.93,6.61,11.86,6.78
			C754.55,77.3,740.86,78.89,737.07,72.05z"/>
		<path class="st10" d="M777.09,77.97c-2.98-0.29-5.87-1-8.81-1.37h12.9C779.9,77.25,779.28,78.18,777.09,77.97z"/>
		<path class="st2" d="M742,42.27c0,0,5.37,2.11,7.19,2.31c0,0,3.78,8.34,5.26,10.6c1.47,2.26-3.73,10.89-4.02,14.62
			c0,0-3.13,2.99-12.6,1.15C737.82,70.95,735.35,47.52,742,42.27z"/>
		<path class="st3" d="M740.57,47.25c1.64-0.75,4.5,0.02,5.3,1.67c0.99,2.04-0.03,5.66,0.09,7.87c0.13,2.32,0.27,5.4,0.86,7.66
			c0.46,1.76,1.61,3.94,3.09,5.72c-1.21,0.73-4.73,2.21-12.08,0.78c0,0-1.51-14.29,1-23.05C739.51,47.66,740.14,47.45,740.57,47.25z
			"/>
		<path class="st5" d="M761.57,71.66c0.95-0.25,1.73-0.57,2.6-1.04c0.7-0.38,1.37-0.75,2.21-0.63c0.59,0.09,5.4,2.09,4.12,2.98
			c-0.42,0.29-1.45-0.22-1.87-0.37c-0.59-0.21-1.18-0.5-1.75-0.75c0.52-0.03,3.12,1.08,2.84,1.68c-0.48,1.07-3.11-0.36-3.73-0.7
			c0.47,0.07,2.1,0.68,2.09,1.28c0,0.93-1.94,0.15-2.36-0.06c-0.31-0.16-0.54-0.38-0.88-0.43c-0.4-0.05-0.8,0.13-1.18,0.21
			c-0.66,0.14-1.37,0.1-2.05,0.04c-0.4-0.04-1.33,0.05-1.53-0.3c-0.21-0.36-0.05-1.19,0.26-1.46
			C760.68,71.83,761.14,71.78,761.57,71.66z"/>
		<path class="st2" d="M762.38,71.54l-1.03,3.87c0,0-25.32-2.94-25.91-7.43c-0.59-4.49,1.03-25.39,7.14-23.22
			c6.11,2.17,0.07,17.33,1.03,18.51C744.56,64.45,762.38,71.54,762.38,71.54z"/>
		<path class="st4" d="M748.5,20.88c0,0,3.02-2.26,6.17,0.28c3.15,2.54,3.04,6.35,5.63,6.02c0,0-1.71,4.42-5.47,3.37
			C751.08,29.49,747.2,23.53,748.5,20.88z"/>
	</g>
	<g>
		<path class="st7" d="M80.1,64.37c-0.71-0.4-1.39-0.78-1.81-1.47c-0.2-0.32-0.37-0.64-0.67-0.86c-0.31-0.22-0.59-0.6-0.86-0.91
			c-0.25-0.29-0.52-0.68-0.94-0.81c-0.5-0.15-0.35,0.49-0.19,0.91c0.17,0.45,1.44,1.28,1.28,1.77c-0.16,0.49-1.65-0.62-1.94-0.85
			c-0.69-0.53-0.61-1.18-0.94-1.9c-0.19-0.42-0.41-0.55-0.67-0.09c-0.2,0.34-0.02,0.77,0.1,1.12c0.25,0.7,0.68,1.43,1.25,1.93
			c-0.49-0.33-1.07-1.15-1.35-1.68c-0.19-0.36-0.74-2.05-1.34-1.8c-1.2,0.51,1.14,3.77,1.78,4.12c-0.61-0.41-1.03-1.01-1.47-1.6
			c-0.26-0.35-0.83-1.19-1.1-0.47c-0.41,1.06,1.58,2.3,2.36,3.02c-0.66-0.29-1.07-0.72-1.68-1.2c-0.72-0.57-0.89,0.16-0.25,0.87
			c0.27,0.3,0.9,0.8,1.04,0.91c1.47,1.12,2.48,1.35,4.25,1.52c0.64,0.06,1.74,0.84,2.19,0.52C80.02,66.8,79.95,65.27,80.1,64.37z"/>
		<path class="st11" d="M79.22,62.57c0,0,13.68,3.81,15.06,3.72c1.38-0.09,4.59-12.12,5.87-18.06c0.12-0.55,1.94-0.59,4-2.32
			c0.85-0.72,3.37,0.65,4.21,0c1.61,1.71,2.06,4.17,1.08,6.34c-3.12,6.88-5.79,20.1-12.97,20.23c-9.48,0.18-19.1-4.77-19.1-4.77
			L79.22,62.57z"/>
		<path class="st7" d="M76.27,64.22c0,0,0.55-0.93,0.64-1.21c0.16-0.49-1.1-1.32-1.28-1.77c-0.16-0.42-0.31-1.06,0.19-0.91
			c0.42,0.13,0.68,0.52,0.94,0.81c0.27,0.31,0.55,0.69,0.86,0.91c0.3,0.22,0.47,0.54,0.67,0.86c0.16,0.26,0.36,0.47,0.58,0.65
			C78.35,64.02,76.27,64.22,76.27,64.22z"/>
		<path class="st4" d="M72.77,106.1c0,0-1.27,5.89-2.45,6.44c-1.18,0.55-13.56-2.49-14.27-3.89c-0.71-1.4,0.3-2.86,2.94-2.76
			c2.38,0.09,3.94,0.97,5.86,0.68c1.69-0.25,3.34-3.46,3.34-3.46L72.77,106.1z"/>
		<path class="st4" d="M93.8,119.48c0,0,3.17,5.12,2.71,6.34c-0.47,1.22-11.49,7.62-12.98,7.11c-1.48-0.51-1.77-2.26,0.2-4.02
			c1.77-1.58,3.51-2.03,4.7-3.58c1.04-1.35,0-4.81,0-4.81L93.8,119.48z"/>
		<path class="st2" d="M112.33,76.05c0,0-4.99,2.6-7.32,2.29c-2.33-0.3-22.25,1.27-24.58,3.19c-2.33,1.92,7.2,40.34,7.2,40.34
			l7.9-1.32c0,0-2.83-28.09-2.36-28.29c0.47-0.2,12.4-0.16,32.73-0.16c4.96,0,10.5-10.43,4.22-17.72L112.33,76.05z"/>
		<path class="st3" d="M83.86,84.65c0.99-1.64,1.68-3.53,2.22-5.39c6.9-0.85,17.3-1.13,18.93-0.92c2.33,0.3,7.32-2.29,7.32-2.29
			l1.15-0.11c-1.43,2.05-3.11,3.83-5.21,4.3c-2.51,0.56-5.15,0.7-7.63,1.35c-4.29,1.14-8.54,3.39-10.46,7.66
			c-2.3,5.14-4.77,10.53-6.36,16.27c-1.3-5.82-2.63-11.94-3.4-16.78C81.94,88.01,83.03,86.01,83.86,84.65z"/>
		<path class="st2" d="M110.27,71.76c0,0-23.72,1.42-25.99,3.64c-2.26,2.23-17.53,28.5-17.53,28.5l6.29,4.54
			c0,0,12.51-18.44,18.53-25.63c1.37-1.63,3.26-2.72,5.36-3.07c2.57-0.43,6.32-1,9.12-1.15c4.71-0.25,6.84-2.6,6.84-2.6
			L110.27,71.76z"/>
		<path class="st5" d="M104.18,35.12c0.74-0.42,1.37-0.98,1.96-1.58c0.58,2.28,1.95,6.46,4.58,8.42c0,0-4.66,2.59-8.77,2.17
			c0,0-0.16-5.5-1.31-8.07C101.87,36,103.08,35.74,104.18,35.12z"/>
		<path class="st6" d="M104.18,35.12c0.74-0.42,1.37-0.98,1.96-1.58c0.58,2.28,1.95,6.46,4.58,8.42c0,0-4.66,2.59-8.77,2.17
			c0,0-0.16-5.5-1.31-8.07C101.87,36,103.08,35.74,104.18,35.12z"/>
		<path class="st5" d="M100.18,20.96c0,0-6.09,0.38-7.4,2.11c-1.31,1.73-1.35,5.62-0.29,7.48c1.06,1.86-0.33,5.02-0.11,5.75
			c0.17,0.59,2.1,0.32,2.24,0.52c0.14,0.2,1.63,3.75,4.24,3.45c3.68-0.43,7.12-4.85,7.88-7.47
			C107.51,30.19,105.76,20.22,100.18,20.96z"/>
		<path class="st4" d="M90.15,25.08c0.18-0.4,0.73-1.15,0.77-1.58c0.03-0.37-0.03-0.75,0.05-1.1c0.26-1.12,0.16-1.82,2.35-3.55
			c1.9-1.51,4.95-1.79,7.19-1.07c0.83,0.26,1.61,0.67,2.28,1.22c0.2,0.17,0.8,0.61,0.79,0.86c-0.01,0.32-0.74,0.83-0.93,1.07
			c-0.35,0.43-0.57,0.98-0.84,1.46c-1.7,2.97-4.75,6.61-8.56,4.87c-0.5-0.23-1.01-0.49-1.48-0.78c-0.07,1.3,0.05,2.72,0.64,3.9
			c0,0-1.15-0.33-1.78-1.32C89.57,27.37,89.73,26.03,90.15,25.08z"/>
		<path class="st4" d="M101.58,20.5c0.52-0.61,1.8-0.97,2.54-1.08c1.54-0.24,2.72,0.51,3.5,1.8c0.47,0.78,0.92,1.59,1.24,2.45
			c0.56,1.52,0.85,2.49,0.85,4.11c0,1.52-0.19,3.1-0.88,4.48c-0.63,1.24-2.13,2.97-3.22,2.96c-0.42-0.01-1.96-2.43-2.12-3.15
			c-0.16-0.69,0.16-0.82,0.56-1.31c0.68-0.83,1.27-2.17,0.24-2.97c-1.48-1.15-2.89,0.18-2.7,2.48c0,0-0.21,1.42-0.65,1.37
			C100.48,31.59,96.55,26.36,101.58,20.5z"/>
		<path class="st12" d="M134.03,76.58c0,0-7.09,7.63-25.75,2.37c0,0-0.63-4.66-2.61-9.25c-1.98-4.59-5.19-13.61-5.83-18.49
			c-0.72-5.52,2.02-8.36,2.02-8.36s3.53,2.61,7.81-1.83c0,0,9.23,1.08,14.63,10.8C129.71,61.53,134.03,76.58,134.03,76.58z"/>
		<path class="st11" d="M108.39,48.93c0.06-0.23,0.11-0.47,0.17-0.71c4.47,2.18,3.91,6.5,2.83,13c-0.83,5-3.22,12.91-3.7,14.68
			c-0.41-1.72-1.05-3.97-2.01-6.21c-0.91-2.12-2.09-5.18-3.15-8.35c1.63-2.38,2.71-4.93,3.69-7.71
			C106.78,52.02,107.92,50.62,108.39,48.93z"/>
		<g>
			<path class="st13" d="M77.87,59.79l-15.69-9.35c0,0-5.72,5.61-7.34,13.25l17.81,8.34C72.66,72.03,75.43,65.49,77.87,59.79z"/>
			<path class="st14" d="M65.74,65.65c3.65-1.08,7.5-3.96,9.36-7.51l2.77,1.65c-2.44,5.7-5.22,12.24-5.22,12.24l-13-6.09
				C61.62,66.27,63.56,66.3,65.74,65.65z"/>
		</g>
		<path class="st5" d="M77.92,69.44c-0.81,0.04-1.6,0.07-2.31-0.29c-0.34-0.17-0.65-0.35-1.02-0.37c-0.38-0.03-0.82-0.19-1.21-0.32
			c-0.37-0.12-0.8-0.3-1.22-0.19c-0.5,0.13-0.03,0.6,0.32,0.87c0.39,0.29,1.9,0.32,2.02,0.83c0.12,0.5-1.73,0.34-2.09,0.31
			c-0.87-0.09-1.14-0.68-1.8-1.11c-0.38-0.25-0.64-0.25-0.62,0.28c0.02,0.4,0.39,0.67,0.68,0.89c0.58,0.46,1.33,0.86,2.08,0.97
			c-0.59-0.02-1.52-0.41-2.03-0.71c-0.36-0.2-1.72-1.34-2.09-0.81c-0.75,1.07,2.96,2.59,3.69,2.55c-0.74-0.03-1.41-0.31-2.09-0.58
			c-0.4-0.16-1.33-0.57-1.18,0.19c0.22,1.12,2.56,1.12,3.6,1.31c-0.72,0.11-1.29-0.04-2.06-0.13c-0.91-0.1-0.67,0.6,0.25,0.87
			c0.38,0.11,1.19,0.21,1.36,0.22c1.85,0.17,2.81-0.17,4.41-0.97c0.57-0.29,1.92-0.21,2.13-0.72
			C79.14,71.53,78.27,70.28,77.92,69.44z"/>
		<path class="st12" d="M77.56,68.82l-0.46,5.26c0,0,22.62,1.82,25.22,0.17c2.6-1.65,3.83-4.34,4.65-6.75
			c1.64-4.82,8.1-18.12,2.28-20.14c-1.82-0.63-4.24-0.62-5.46,1.76c-2.73,5.33-5.65,17.22-6.42,17.73
			C96.28,67.56,77.56,68.82,77.56,68.82z"/>
	</g>
	<g>
		<g>
			<path class="st4" d="M272.87,174.29c0,0,3.23,9.5,5.13,13.67c10.59,23.36-9,20.38-16.46,19.28c-7.45-1.1-15.94-3.91-15.48-9.94
				c0.32-4.11,2.8-4.56,3.82-5.92c1.01-1.37-0.96-3.61-0.1-6.98c0.86-3.37,6.49-4.05,7.61-4.98c1.12-0.93,3.36-3.5,2.26-8.38
				c-1.1-4.88-1.57-7.48,1.58-10.66c3.17-3.19,8.11-1.79,8.11-1.79L272.87,174.29z"/>
			<path class="st5" d="M309.4,210.58c-0.67-0.52-3.29,0.96-5.17,1.57c-1.07,0.35-3.25,0.45-4.92,0.46
				c-0.05,0.92-0.18,1.83-0.37,2.73c1.19,0.05,2.11,0.27,2.98,0.21c0.95-0.07,2.66-0.3,3.33-0.43c0.62-0.12,1.65-0.14,2.11,0.24
				c2.1,1.75,3.28,1.87,3.56,1.24c0.04-0.1-1.65-1.6-2.21-2.2c0.92,0.83,3.18,2.48,3.66,1.96c0.36-0.39-1.75-2.31-2.65-3.1
				c0.94,0.81,3.37,2.84,3.96,2.67C315.27,215.5,310.07,211.1,309.4,210.58z"/>
			<rect x="292.18" y="215.67" class="st4" width="26.37" height="3.38"/>
			<path class="st12" d="M301.38,212.15l-0.92,3.84c0,0-12.15-1.32-16.28-3.24c-4.13-1.92-8.27-11.75-8.27-11.75l3.16-12.38
				c0,0,6.11,16.13,8.24,18.16C289.44,208.81,301.38,212.15,301.38,212.15z"/>
			<path class="st15" d="M350.52,205.45h-51.41c-1.37,0-2.48-1.11-2.48-2.48v-31c0-1.37,1.11-2.48,2.48-2.48h51.41
				c1.37,0,2.48,1.11,2.48,2.48v31C353,204.34,351.89,205.45,350.52,205.45z"/>
			<path class="st4" d="M299.57,202.97v-31c0-1.37,1.11-2.48,2.48-2.48h-2.93c-1.37,0-2.48,1.11-2.48,2.48v31
				c0,1.37,1.11,2.48,2.48,2.48h2.93C300.68,205.45,299.57,204.34,299.57,202.97z"/>
			<path class="st4" d="M324.92,214.33c0,0,1.14-10.92-3.84-14.62c0,0-1.14-0.92,0.73-1.99c1.87-1.07,7.04-2.29,8.8,0.91
				c1.76,3.2,2.93,8.8,2.19,15.7H324.92z"/>
			<g>
				<g>
					<rect x="253.47" y="240.38" class="st15" width="2.33" height="61.43"/>
					<rect x="296.64" y="240.38" class="st15" width="2.33" height="61.43"/>
				</g>
				<rect x="247.21" y="236.75" class="st4" width="58.02" height="6.01"/>
			</g>
			<path class="st4" d="M278.71,274.32c0,0-5.92,5.16-5.89,5.9c0.03,0.75,10.13,17.91,11.89,17.96c1.76,0.05,2.17-2.92,1.88-4.05
				c-0.29-1.13-3.53-17.5-3.53-17.5L278.71,274.32z"/>
			<path class="st4" d="M270.11,277.51c0,0-5.76,5.33-5.71,6.08s10.66,17.6,12.42,17.6c1.76,0,2.08-2.99,1.76-4.11
				c-0.32-1.12-4.05-17.38-4.05-17.38L270.11,277.51z"/>
			<path class="st8" d="M273.84,218.6c0,0,7.48,3.56,16.09,6.92c5.46,2.13,13.09,4.92,12.84,10.78
				c-0.18,4.27-17.38,45.46-17.38,45.46l-7.82-3.91c0,0,14.31-34.67,14.06-37.02c-0.25-2.35-1.91-0.27-16.06-1.55
				c-14.15-1.28-18.44-3.97-18.35-10.69c0.1-6.72,3.8-16.1,9.52-18.49S273.84,218.6,273.84,218.6z"/>
			<path class="st9" d="M273.84,218.6c0,0,2.85,3.63,11.46,6.99c5.46,2.13,12.25,6.03,12.24,9.78
				c-0.01,4.28-16.02,44.45-16.02,44.45l-3.95-1.97c0,0,14.31-34.67,14.06-37.02c-0.25-2.35-1.91-0.27-16.06-1.55
				c-14.15-1.28-18.44-3.97-18.35-10.69c0.1-6.72,3.8-16.1,9.52-18.49S273.84,218.6,273.84,218.6z"/>
			<path class="st8" d="M269.96,213.47c0,0,2.28,9.49,7.68,11.76c5.4,2.28,17.82,4.82,17.81,10.81c0,4.28-18.52,46.64-18.52,46.64
				l-9.49-4.44c0,0,12.54-34.28,12.22-36.63c-0.32-2.35,0.93-1.19-13.26-2.05c-14.18-0.85-16.1-3.56-16.2-10.28
				c-0.11-6.72,8.6-15.82,8.6-15.82C264.45,210.91,269.96,213.47,269.96,213.47z"/>
			<path class="st6" d="M273.65,172.66c0,0-2.24,9.17,1.92,13.86c0,0,5.55,7.47-3.2,8.75c-8.75,1.28-7.61-10.2-7.61-10.2
				s1.49-12.66-0.78-18.13C263.98,166.93,269.67,170.06,273.65,172.66z"/>
			<path class="st5" d="M267.78,159.68c0,0,11.99,0.61,12.07,3.57c0.08,2.97-1.01,4.91-0.61,7.5c0.86,5.58-2.38,11.71-3.8,11.97
				c-2.2,0.39-9.63-2.89-10.8-7.4C263.47,170.81,263.16,157.88,267.78,159.68z"/>
			<path class="st5" d="M279.2,212.7c0,0,2.51,0.32,3.04,0.32s7.47-3.89,8.21-3.36c0.75,0.53,7.79,5.44,7.57,6.4
				c-0.21,0.96-2.18,0.38-5.92-2.77c0,0,4.98,3.52,4.02,4.37c-0.96,0.85-5.3-3.09-5.3-3.09s4.48,3.34,3.41,4.09
				c-1.07,0.75-5.01-3.24-5.01-3.24s3.09,2.99,2.67,3.48c-0.43,0.5-2.38-0.36-4.51-2.35c0,0-0.39-0.21-1.53,0.39
				c-1.14,0.6-8.11-0.57-8.11-0.57L279.2,212.7z"/>
			<path class="st4" d="M280.87,168.89c0,0-8.35,1.9-11.08-4.51c-2.16-5.06-1.42-5.68-1.42-5.68s4.61-3.59,10.03,1.28
				C282.04,163.25,280.87,168.89,280.87,168.89z"/>
			<path class="st4" d="M269.07,158.58c0,0,4.44,3.9,1.98,7.6c-2.22,3.34-0.75,5.13-1.22,7.37c0,0-1.07-0.49-1.29-1.53
				c-0.23-1.04-0.57-3.68-1.97-3.3c-1.39,0.38-2.7,2.11-0.01,4.31c0,0,1.46,3-0.43,5.37c0,0-7.16-6.15-5.08-13.07
				C263.12,158.43,269.07,158.58,269.07,158.58z"/>
			<path class="st12" d="M274.67,185.27c0,0,0.55,4.34-1.02,5.13c-1.56,0.78-7.11-7.39-7.11-7.39s-7.55,3.17-9.26,4.56
				c-1.71,1.39,0.78,14.7,0.78,14.7s-5.25,15.96-4.6,19.37c0.66,3.41,23.65-0.67,23.65-0.67s2.22-16.28,3.08-18.7
				c0.85-2.42,1.96-3.86,0.85-7.38c-1.56-4.98-1.98-6.25-1.98-6.25S276.33,186.04,274.67,185.27z"/>
			<path class="st11" d="M260.96,199.73c-1.72-2.31-0.69-6.18-2.5-8.56c-0.55-0.72-1.12-1.42-1.7-2.11c-0.45,3.84,1.3,13.2,1.3,13.2
				s-5.25,15.96-4.6,19.37c0.66,3.41,23.65-0.67,23.65-0.67s1.96-14.33,2.9-18.1c-0.59,0.87-5.24,6.54-10.35,5.75
				C266.8,208.17,264.45,204.4,260.96,199.73z"/>
			<path class="st4" d="M265.01,170.39c0,0-0.14,1.77,1.37,2.18c0.62,0.17,0.56,2.11,1.06,4.06c0.95,3.72,0.35,6.25-2.42,7.32
				c-1.99,0.77-4.79,1.39-7.99,3.63c-3.19,2.24-1.14-7.1,2.89-9.47C263.95,175.75,265.01,170.39,265.01,170.39z"/>
			<path class="st4" d="M337.44,219.05h-16.79c-1.01,0-1.67-1.06-1.22-1.97l0.99-1.97c0.23-0.46,0.7-0.75,1.22-0.75h14.82
				c0.51,0,0.99,0.29,1.22,0.75l0.99,1.97C339.1,217.99,338.45,219.05,337.44,219.05z"/>
			<g>
				<g>
					<rect x="215.98" y="219.05" class="st16" width="147.1" height="3.94"/>
					<g>
						<g>
							<rect x="221.42" y="220.74" class="st16" width="1.71" height="81.07"/>
						</g>
						<g>
							<rect x="355.93" y="220.74" class="st16" width="1.71" height="81.07"/>
						</g>
					</g>
				</g>
			</g>
			<path class="st12" d="M281.33,212.51l-0.43,4.96c0,0-29.22,0.31-33.63-0.26c-4.41-0.57-6.4-6.4-3.56-11.52
				c2.84-5.12,11.3-18.41,15-18.7s5.83,4.76,2.77,10.24c-3.06,5.47-8.6,10.74-7.39,11.66C255.31,209.81,281.33,212.51,281.33,212.51
				z"/>
		</g>
	</g>
	<g>
		<g>
			<path class="st4" d="M902.48,191.39c0,0-12.64-0.95-16.54-7.45c-3.9-6.51-0.06-10.94,3.19-13.01c3.25-2.07,7.98-5.26,8.16-8.22
				c0.18-2.96,0.03-10.22,7.57-12.63c2.55-0.82,5.48-0.7,7.92,0.43c1.27,0.59,2.26,1.44,3.14,2.5c0.86,1.04,1.13,1.91,1.41,3.25
				c0.23,1.08,0.21,2.09,0.18,3.21c-0.05,1.72-0.44,3.48-0.59,5.2c-0.14,1.49-0.23,2.95-0.23,4.46c0,1.02,0.19,1.96,0.52,2.93
				c0.33,0.96,0.86,1.84,1.22,2.79c0.35,0.93,1.14,2.8,1.38,3.77c0.42,1.64,0.11,2.5-0.05,4.19c-0.4,4.19-3.47,6.81-7.38,7.88
				C909.2,191.56,905.75,191.65,902.48,191.39z"/>
			<path class="st6" d="M911.55,167.49c-2.3-0.25-4.01-1.35-5.15-2.86c0.28,1.65,0.43,5.21-2.28,9.23c0,0-0.04,8.41,5.38,7.59
				c5.42-0.82,4.78-7.1,4.78-7.1S911.08,172.2,911.55,167.49z"/>
			<path class="st5" d="M905.85,154.13c0,0,5.16-2.17,7.1-1.1c1.93,1.06,2.8,4.1,3.43,7.06c0.63,2.96-0.9,8.71-3.75,9.66
				c-3.36,1.12-6.31-1.66-7.41-5.16c0,0-2.96-0.71-2.72-4.65C902.73,155.99,903.72,153.74,905.85,154.13z"/>
			<path class="st2" d="M913.21,173.26c0,0-2.22,3.98-3.37,4.73c-1.15,0.76-5.85-5.42-5.85-5.42s-5.43,3.3-9.88,4.47
				c0,0-1.56,16.41-2.56,20.19c0,0-1.76,20.75-1.76,23.53h27.85c-0.76-14.08,4.77-26.3,4.77-26.3s-1.62-12.67-0.74-15.82
				C921.66,178.64,915.39,175.07,913.21,173.26z"/>
			<path class="st3" d="M922.4,194.46c0,0-0.4-3.1-0.69-6.62c-1.93,3.79-3.03,7.77-4.56,11.77c-1.8,4.72-7.06,13.69-13.53,11.66
				c-5.1-1.6-6.7-7.5-7.52-12.22c-0.44-2.58-0.85-5.2-1.12-7.8c-0.22-2.14-0.3-5.67-1.48-7.49c-0.69,0.6-0.96,2.73-1.05,3.64
				c-0.13,1.37-0.16,2.74-0.21,4.11c-0.03,0.7-0.06,1.4-0.12,2.1c-0.05,0.61-0.17,1.18-0.26,1.77c-0.06,0.42-0.08,0.86-0.17,1.27
				c-0.01,0.05-0.02,0.11-0.03,0.16c-0.04,0.16-0.07,0.31-0.11,0.44c0,0-1.76,20.75-1.76,23.53h27.85
				C916.87,206.68,922.4,194.46,922.4,194.46z"/>
			<polygon class="st13" points="904.27,172.25 901.24,174.05 905.87,181.62 909.84,178.34 913.63,181.41 915.49,174.72 
				912.79,172.76 909.94,177.54 			"/>
			<path class="st4" d="M913.56,154.69c0,0-1,3.5-4.01,4.36c-1.29,0.37-2.11,1.63-1.97,2.96c0.06,0.61-1.39,0.71-1.42,0.29
				s0.33-2.51-1.48-2.93c-1.8-0.41-1.94,2.28-0.33,3.9c0,0,3.03,3.19,1.61,6.73c-1.42,3.53-4.36,6.96-10.03,7.61s-8.07,8.6-8.07,8.6
				s-5.71-6.7,0.62-11.55c6.33-4.85,10.82-7.64,10.76-10.83c-0.06-3.19,2.05-11.83,7.48-12.41
				C912.16,150.83,913.56,154.69,913.56,154.69z"/>
			<path class="st4" d="M917.17,159.65c0,0-2.36,0.34-4.89-3.19c-2.53-3.53-2.52-6.35-2.52-6.35S918.86,151.56,917.17,159.65z"/>
			<g>
				<g>
					<rect x="889.61" y="237.03" class="st15" width="2.27" height="59.78"/>
					<rect x="931.62" y="237.03" class="st15" width="2.27" height="59.78"/>
				</g>
				<g>
					<rect x="959.26" y="237.03" class="st15" width="2.27" height="59.78"/>
					<rect x="1001.27" y="237.03" class="st15" width="2.27" height="59.78"/>
				</g>
				<rect x="883.53" y="233.5" class="st4" width="56.46" height="5.84"/>
			</g>
			<path class="st4" d="M920.32,272.99c0,0-5.13,5.66-5.01,6.38c0.12,0.72,11.84,16.14,13.55,15.99c1.71-0.15,1.76-3.07,1.35-4.13
				c-0.41-1.06-5.42-16.5-5.42-16.5L920.32,272.99z"/>
			<path class="st4" d="M905.81,273.16c0,0-5.6,5.19-5.55,5.92c0.05,0.73,10.38,17.12,12.09,17.12c1.71,0,2.02-2.91,1.71-4
				c-0.31-1.09-3.94-16.92-3.94-16.92L905.81,273.16z"/>
			<path class="st6" d="M928.56,237.7c-1.99,9.45-8.7,35.81-8.7,35.81l5.96,3.56c0,0,10.17-25.83,13.41-39.37H928.56z"/>
			<path class="st5" d="M916.62,237.7c-2.94,9.66-11.35,36.05-11.35,36.05l5.31,3.58c0,0,14.08-26.15,19.27-39.63H916.62z"/>
			<path class="st8" d="M937.57,228.05c-4.3-2.43-8.92-4.75-13.69-5.99c-0.01,0-0.03-0.01-0.04-0.01c-1.93-0.5-5.44-5.01-5.87-8.83
				c-2.79,1.09-6.23,1.05-9.63,1.16c-4.72,0.16-10.21,0.87-14.83-0.22c-1.06-0.25-1.99-0.65-2.88-1.11c0,0-5.13,4.73-5.13,13.17
				c0,4.28,1.24,6.19,5.92,7.71c2.52,0.82,15.79-0.4,19.47,1.12c3.28,1.36,2.71,4.84,2.13,7.24c15.61,2.24,23.7,0.73,26.59,0.06
				C940.51,239.3,942.56,230.88,937.57,228.05z"/>
			<path class="st4" d="M980.53,213.15c0,0-13.29-0.07-17.95-3.18c-4.67-3.11-5.48-15.48,1.3-20.53c6.78-5.05,8.18-6.61,8.48-9.94
				c0.3-3.33,0.23-10.89,9-10.93c8.61-0.03,7.86,7.02,8.52,11.51c0.46,3.12,4.75,7.74,8.52,10.61
				C1003.22,194.38,1008.62,216.26,980.53,213.15z"/>
			<path class="st6" d="M984.46,181.74c-0.71,0.23-1.49,0.36-2.34,0.36c-1.56,0-2.87-0.42-3.94-1.11c-0.36,2.5,0.77,5.43-1.68,6.11
				c0,0,0.15,10.74,4.47,10.74c4.32,0,4.89-10.81,4.89-10.81S983.89,186.64,984.46,181.74z"/>
			<path class="st5" d="M987.21,179.07c-0.44-0.96-1.57-0.49-1.57-0.49c0.22-2.61,0.21-6.71,0.21-6.71l-4.52-0.48l-4.52,0.48
				c0,0-0.01,4.1,0.21,6.71c0,0-1.13-0.47-1.57,0.49c-0.75,1.63,1.07,2.7,1.07,2.7c-0.07-0.03,1.26,5.51,4.8,5.82
				c3.55-0.32,4.87-5.85,4.8-5.82C986.14,181.77,987.96,180.7,987.21,179.07z"/>
			<g>
				<path class="st4" d="M986.48,171.8c0,0-2.37,6.11-8.89,5.66c0,0,0.21,1.04-0.18,2.04c0,0-0.9-2.56-1.91-1.99
					c-1.01,0.57-1.4,1.54-1.4,1.54s-0.94-7.25,3.75-8.86C982.56,168.58,986.48,171.8,986.48,171.8z"/>
				<path class="st4" d="M984.4,171.24c-0.06,0.34-0.1,0.68-0.1,1.01c0.01,0.72,0.05,1.44,0.02,2.16c0.96,1.05,1.29,3.04,1.17,3.31
					c-0.04,0.37-0.06,1.07,0.21,1.77c0,0,0.9-2.56,1.91-1.99c1.01,0.57,1.4,1.54,1.4,1.54S988.68,171.1,984.4,171.24z"/>
			</g>
			<path class="st15" d="M993.95,204.19c-1.31-3.79-0.63-13.98-0.63-13.98c-1.61-0.5-7.92-3.46-7.92-3.46l-4.09,9.88l-4.31-9.81
				c0,0-5.09,2.45-6.7,2.95c0,0-0.32,10.63-1.63,14.42c0,0,3.99,6.52,0,21.14h12.64h12.64
				C989.96,210.72,993.95,204.19,993.95,204.19z"/>
			<path class="st17" d="M993.95,204.19c-0.32-0.94-0.43-4.27-0.55-5.88c-0.6,1.61-1.31,5.13-1.92,6.72
				c-2.08,5.38-4.32,7.61-10.34,7.71c-4.81,0.08-9.32-7.71-9.82-9.15c-0.59-1.66-1.31-3.25-1.91-4.87c-0.1,2.2-0.31,4.24-0.73,5.46
				c0,0,3.99,6.52,0,21.14h25.28C989.96,210.72,993.95,204.19,993.95,204.19z"/>
			<path class="st5" d="M993.03,214.95c0,0-2.14,1.09-2.85,0.89c-0.87-0.25-1.05-0.66-2.53-0.2s-1.87,0.67-2.77,1.21
				c-0.75,0.45-2.19,1.16-1.73,2.02c0.46,0.86,2-0.28,2.16-0.35c0.16-0.07,0.65-0.3,0.65-0.3s-1.76,0.83-1.45,1.34
				c0.31,0.5,1.2,0.49,1.76,0.17c0.57-0.32,1.05-0.68,1.05-0.68s-1.18,0.82-0.96,1.09c0.22,0.27,1.02,0.42,1.69,0.06
				c0.67-0.36,0.94-0.71,0.94-0.71s-1.05,0.73-0.11,1.06s1.81-0.66,2.33-1.04c0.52-0.37,1.26-1.21,1.51-1.36
				c0.25-0.15,2.54-0.96,2.54-0.96L993.03,214.95z"/>
			<path class="st4" d="M983.2,219.13l-6.22-10.19c0,0-1.86-0.98-1.76,1.23l7.36,9.49C982.58,219.67,984.71,222.06,983.2,219.13z"/>
			<path class="st5" d="M969.3,214.98c0,0,2.2,1.22,2.53,1.12c0.33-0.1,4.93-2.78,5.93-2.3c0.99,0.47,1.58,1.57,2.06,2.22
				c0.48,0.65,2.03,2.55,1.29,3.17c-0.75,0.62-1.82-1.5-2.21-1.94c-0.4-0.44-1.6-1.7-2.27-1.56c0,0,1.32,0.65,1.9,1.45
				c0.58,0.8,1.98,2.03,1.47,2.88c-0.52,0.86-2.27-1.65-2.43-1.81c-0.16-0.16-1.35-1.13-1.85-1.18c0,0,1.45,1.04,1.62,1.23
				c0.17,0.19,1.86,1.52,1.57,1.97c-0.23,0.35-0.85,0.65-2.15-0.82c-0.51-0.58-1.55-1.1-1.55-1.1s1.18,0.7,1.46,1
				c0.28,0.3,0.91,0.99,0.42,1.14c-0.5,0.15-1.19-0.23-1.93-0.69c-0.74-0.47-1.59-0.69-2.43-0.49c-0.86,0.2-4.9-1.21-4.9-1.21
				L969.3,214.98z"/>
			<path class="st5" d="M980.08,214c0,0,1.72,0.57,2.05,1.31c0.33,0.74-0.23,1.16-0.64,1L980.08,214z"/>
			<path class="st15" d="M970.3,189.77c-1.44,0.39-4.97,1.71-8.26,10.62c-2.98,8.07-4.2,14.65-3.91,16.73
				c0.46,3.38,13.56,3.26,13.56,3.26l0.88-5.21c0,0-5.88-1.91-5.74-2.63c0.19-0.97,1.85-4.56,2.53-6.75
				C969.49,205.42,971.32,189.49,970.3,189.77z"/>
			<path class="st15" d="M993.02,190.17c1.04,0.17,4.87,1.92,8.26,10.23c3.25,7.96,4.2,14.65,3.91,16.73
				c-0.46,3.38-13.56,3.26-13.56,3.26l-0.88-5.21c0,0,5.88-1.91,5.74-2.63c-0.19-0.97-1.85-4.56-2.53-6.75
				C993.84,205.42,991.98,190,993.02,190.17z"/>
			<path class="st5" d="M952.06,212.54l-1.68,2.97c0,0,2.4,1.43,2.91,1.96c0.52,0.54,1.37,2.59,3.93,3.08
				c2.62,0.5,3.02,1.02,3.69,0.35c0.67-0.68-1.07-1.6-2.13-1.84c-1.05-0.24-1.89-0.42-1.75-0.67c0.14-0.24,1.1-0.23,2.95,0.05
				c1.88,0.29,4.29,1.14,4.86,0.77c0.56-0.38-1.43-1.99-3.65-2.22c-1.56-0.17-2.42-0.37-2.42-0.37s2.1,0.11,2.62,0.24
				c0.53,0.13,3.64,1.02,4.37,0.44c0.73-0.58-2.06-1.64-3.99-1.84c-1.9-0.21-2.56-0.05-2.56-0.05s2.18-0.16,2.87-0.08
				c0.69,0.08,2.73,0.68,2.94,0.15c0.21-0.53-1.46-1.24-2.97-1.29c-1.49-0.04-2.8,0.17-2.8,0.17s1.99-0.42,2.73-0.37
				c0.74,0.06,1.87,0.2,1.94-0.14c0.07-0.34-0.43-0.99-2.95-0.96c-1.34,0.01-2.62,0.33-3.44,0.48
				C956.11,213.64,952.44,212.55,952.06,212.54z"/>
			<g>
				<rect x="866.42" y="220.02" class="st16" width="1.75" height="77.23"/>
				<rect x="1018.28" y="220.02" class="st16" width="1.75" height="77.23"/>
				<rect x="863.45" y="220.02" class="st16" width="159.55" height="2.05"/>
			</g>
			<path class="st18" d="M997.69,238c0.01-0.25,0.02-0.48,0.02-0.69c0-7.39-3.86-12.26-3.86-12.26h-25.31c0,0-3.46,4.86-3.46,12.26
				c0,0.2,0.01,0.44,0.02,0.69H997.69z"/>
			<path class="st4" d="M974.04,274.28c0,0-6.4,7.61-7.15,9.23c-0.75,1.62,1.08,3.66,3.57,2.83c2.49-0.83,9.85-9.22,9.52-10.26
				c-0.33-1.04-2-2.18-2-2.18L974.04,274.28z"/>
			<g>
				<rect x="953.27" y="233.5" class="st4" width="55.76" height="5.84"/>
			</g>
			<path class="st5" d="M980.59,236.58c-0.24-2.96,0.29-8.35-4.59-8.35c-7.38,0-5.87,10.62-5.75,11.8
				c1.16,11.76,3.79,34.26,3.79,34.26l3.94-0.49C977.98,273.8,980.7,237.92,980.59,236.58z"/>
			<path class="st4" d="M988.75,274.28c0,0,6.4,7.61,7.15,9.23c0.75,1.62-1.08,3.66-3.57,2.83c-2.49-0.83-9.85-9.22-9.52-10.26
				c0.33-1.04,2-2.18,2-2.18L988.75,274.28z"/>
			<path class="st5" d="M982.21,236.58c0.24-2.96-0.29-8.35,4.59-8.35c7.38,0,5.87,10.62,5.75,11.8
				c-1.16,11.76-3.79,34.26-3.79,34.26l-3.94-0.49C984.81,273.8,982.1,237.92,982.21,236.58z"/>
			<path class="st2" d="M953.55,211.42l-1.64,6.11c0,0-21.57-3.86-23.59-6.85c-2.02-2.99-7.13-15.84-7.13-15.84
				s-2.93-9.77,0.47-16.2c0,0,3.22,1.21,5.04,6.19c1.17,3.2,6.91,16.95,8.04,18.39C935.88,204.66,953.55,211.42,953.55,211.42z"/>
			<path class="st5" d="M895.2,216.04c0,0,1.89,0.3,2.3,0.31c0.4,0.01,5.75-2.79,6.3-2.37c0.55,0.42,5.79,4.29,5.6,5.02
				c-0.18,0.72-1.66,0.24-4.43-2.23c0,0,3.7,2.78,2.95,3.4c-0.75,0.63-3.95-2.46-3.95-2.46s3.33,2.63,2.5,3.17
				c-0.82,0.54-3.73-2.56-3.73-2.56s2.28,2.33,1.95,2.7c-0.33,0.37-1.8-0.32-3.37-1.88c0,0-0.29-0.17-1.17,0.26
				s-6.14-0.61-6.14-0.61L895.2,216.04z"/>
			<path class="st2" d="M896.96,216.16l-1.7,3.86c0,0-16.27-7.05-16.86-13.6c-0.59-6.56,9.45-28.73,16.4-28.58
				c0,0-1.27,14.87-3.12,18.83c0,0-3.93,6.23-3.87,7.74C887.87,205.92,896.96,216.16,896.96,216.16z"/>
		</g>
	</g>
	<g>
		<g>
			<path class="st2" d="M486.7,72.89h-73.72c-2.04,0-3.69-1.65-3.69-3.69V21.72c0-2.04,1.65-3.69,3.69-3.69h73.72
				c2.04,0,3.69,1.65,3.69,3.69V69.2C490.39,71.24,488.74,72.89,486.7,72.89z"/>
			<rect x="412.98" y="22.4" class="st15" width="73.72" height="46.12"/>
		</g>
		<polygon class="st12" points="438.85,35.89 438.85,58.48 460.84,47.19 		"/>
	</g>
	<g>
		<path class="st6" d="M505.65,171.55h-3.67h-3.67c0,0-1.06,9.99-2.97,11.18c0,0-2.36,11.8,6.64,11.8c10.89,0,6.64-11.8,6.64-11.8
			C506.7,181.54,505.65,171.55,505.65,171.55z"/>
		<g>
			<path class="st5" d="M511.51,173.51c-1.02-1.17-2.24,0.61-2.24,0.61s1.68-6.61,0-9.5c-1.68-2.9-7.11-1.37-7.11-1.37
				s-5.44-1.52-7.11,1.37c-1.68,2.9,0,9.5,0,9.5s-1.22-1.78-2.24-0.61c-1.02,1.17,1.68,4.12,2.29,4.47c0,0,3.91,7.32,7.06,7.32
				c3.15,0,7.06-7.32,7.06-7.32C509.84,177.62,512.53,174.68,511.51,173.51z"/>
			<path class="st4" d="M500.8,165.86c0,0-4.12,0.72-4.57,2.93c-0.22,1.07,0.02,2.24,0.22,3.3c0.1,0.56,0.5,3.57,0.35,3.64
				c-0.15,0.07-0.42,0-0.53-0.09c-0.56-0.44-0.99-1.1-1.39-1.68c-0.78-1.14-1.91-0.95-2.23-0.23c0,0-0.91-10.84,3.62-11.22
				C500.8,162.12,500.8,165.86,500.8,165.86z"/>
			<path class="st4" d="M503.48,165.86c0,0,4.12,0.72,4.57,2.93c0.22,1.07-0.02,2.24-0.22,3.3c-0.1,0.56-0.5,3.57-0.35,3.64
				c0.15,0.07,0.42,0,0.53-0.09c0.56-0.44,0.99-1.1,1.39-1.68c0.78-1.14,1.91-0.95,2.23-0.23c0,0,0.91-10.84-3.62-11.22
				C503.48,162.12,503.48,165.86,503.48,165.86z"/>
			<path class="st4" d="M509.52,163.15c0,0,0.1-1.78-1.93-2.89c-2.03-1.11-6.07-1.6-9.27,0c-3.2,1.6-4.17,1.96-5.11,1.43
				c-0.93-0.53-0.34-1.07-0.34-1.07s-2.1-0.02-1.99,3.23c0.1,3.25,4.1,7.29,9.32,7.29C508.18,171.14,510.76,165.57,509.52,163.15z"
				/>
		</g>
		<path class="st15" d="M508.62,182.73c-0.39,10.03-6.64,9-6.64,9s-6.25,1.04-6.63-9c0,0-9.98,2.76-14.85,6.02
			c0,0,2.07,8.76,2.2,18.49l5.71,22.1l13.57,0.67l13.57-0.67l5.71-22.1c0.13-9.72,2.2-18.49,2.2-18.49
			C518.59,185.49,508.62,182.73,508.62,182.73z"/>
		<path class="st17" d="M520.28,194.55c-6.2,3.31-9.22,10.91-15.25,14.64c-6.23,3.86-10.65-3.94-13.68-7.99
			c-2.62-3.5-5.93-6.31-9.98-7.94c0.58,3.47,1.26,8.57,1.33,13.98l5.71,22.1l13.57,0.67l13.57-0.67l5.71-22.1
			c0.07-5.3,0.72-10.3,1.29-13.77C521.76,193.82,520.99,194.16,520.28,194.55z"/>
		<path class="st2" d="M527.15,238.29c0-7.76-9.62-12.86-9.62-12.86H485.2c0,0-9.62,5.1-9.62,12.86c0,1.26,0.29,3.36,0.78,5.99
			h10.74c-0.44,0.79-0.83,1.52-1.15,2.14c-0.1,0.19-0.2,0.36-0.3,0.54c1.6,0,3.2,0,4.81,0c1,0,2,0,3.01,0c0.59,0,1.7,0.25,1.54-0.62
			c-0.24-1.23-1-1.93-0.25-3.23c0.59-1.02,2.17-1.85,3.33-1.87c0.25-0.01,0.51,0,0.76,0c1.69,0.04,3.38,0.04,5.06,0
			c0.72-0.02,1.2,0.2,1.88,0.31c0.55,0.09,1.26,0.09,1.57,0.65c0.37,0.66,0.43,1.7,0.56,2.43c0.04,0.22-0.11,2.33-0.18,2.33h10.95
			c-0.75-0.95-1.36-1.84-1.88-2.68h9.55C526.85,241.66,527.15,239.55,527.15,238.29z"/>
		<path class="st3" d="M527.15,238.29c0-7.76-9.62-12.86-9.62-12.86H485.2c0,0-9.62,5.1-9.62,12.86c0,1.26,0.29,3.36,0.78,5.99
			h10.74c-0.44,0.79-0.83,1.52-1.15,2.14c-0.1,0.19-0.2,0.36-0.3,0.54h9.34c0.24,0-0.38-1.35-0.44-1.47
			c-0.23-0.5-0.3-1.05-0.16-1.61c0.13-0.53,0.66-1.1,1.07-1.44c1.53-1.29,3.65-1.34,5.56-1.28c1.86,0.05,3.9-0.2,5.52,0.88
			c0.34,0.23,0.58,0.4,0.83,0.71c1.12,1.39,0.53,2.66,0.37,4.21h10.95c-0.75-0.95-1.36-1.84-1.88-2.68h9.55
			C526.85,241.66,527.15,239.55,527.15,238.29z"/>
		<path class="st15" d="M480.49,188.75c0,0-12.34,26.68-11.45,30.23c0.22,0.89,15.24,9.95,22.31,8.65l2.88-0.53
			C494.23,227.1,483.74,188.56,480.49,188.75z"/>
		<path class="st15" d="M523.44,188.75c0,0,12.34,26.68,11.45,30.23c-0.22,0.89-15.24,9.95-22.31,8.65l-2.88-0.53
			C509.7,227.1,520.19,188.56,523.44,188.75z"/>
		<path class="st17" d="M485.31,198.08c-0.02,1.23-0.16,2.52-0.47,3.9c-1.09,4.82-2.81,9.85-1.01,14.75
			c1.37,3.7,3.55,7.46,5.57,11.02c0.7,0.03,1.36,0,1.96-0.11l2.88-0.53C494.23,227.1,489.42,209.43,485.31,198.08z"/>
		<path class="st17" d="M516.69,227.5c0.9-2.24,1.45-4.6,1.37-7.11c-0.17-4.93-0.19-9.85-0.11-14.78c0.03-2.13,0.09-4.19,0.21-6.21
			c-4,11.35-8.46,27.71-8.46,27.71l2.88,0.53C513.76,227.85,515.17,227.77,516.69,227.5z"/>
		<path class="st4" d="M489.66,284.46c0,0-7.83,9.32-8.75,11.3c-0.92,1.98,1.32,4.47,4.37,3.46c3.05-1.02,4.83-3.1,4.88-4.42
			c0.05-1.32,1.68-2.03,2.39-2.13c0.71-0.1,4.78-4.73,4.37-6c-0.41-1.27-2.45-2.66-2.45-2.66L489.66,284.46z"/>
		<path class="st4" d="M513.07,284.46c0,0,7.83,9.32,8.75,11.3c0.92,1.98-1.32,4.47-4.37,3.46c-3.05-1.02-4.83-3.1-4.88-4.42
			c-0.05-1.32-1.68-2.03-2.39-2.13c-0.71-0.1-4.78-4.73-4.37-6c0.41-1.27,2.45-2.66,2.45-2.66L513.07,284.46z"/>
		<g>
			<rect x="470.87" y="245.59" class="st15" width="2.55" height="53.86"/>
			<rect x="529.86" y="245.59" class="st15" width="2.55" height="53.86"/>
			<rect x="465.87" y="241.25" class="st4" width="69.86" height="6.9"/>
		</g>
		<path class="st2" d="M492.4,237.89c-0.93-2.22-1.12-6.91-7.4-6.91c-12.1,0-9.26,9.69-9.08,11.14
			c1.83,14.43,10.61,43.23,10.61,43.23h12.11c0,0-4.41-35.28-5.09-40.72C493.46,243.87,493.04,239.41,492.4,237.89z"/>
		<path class="st2" d="M510.35,237.89c0.93-2.22,1.12-6.91,7.4-6.91c12.1,0,9.26,9.69,9.08,11.14
			c-1.83,14.43-10.61,43.23-10.61,43.23h-12.11c0,0,4.41-35.28,5.09-40.72C509.29,243.87,509.71,239.41,510.35,237.89z"/>
		<g>
			<rect x="484.19" y="227.41" class="st4" width="35.57" height="2.11"/>
			<path class="st4" d="M525,202.75h-46.04c0,0-2.48,0-2.06,2.77c0.43,2.77,6.23,22.16,7.4,22.16c2.18,0,17.68,0,17.68,0
				s15.5,0,17.68,0c1.03,0,6.97-19.39,7.4-22.16C527.48,202.74,525,202.75,525,202.75z"/>
			<path class="st13" d="M503.88,216.17c0,1.05-0.85,1.91-1.91,1.91c-1.05,0-1.9-0.85-1.9-1.91c0-1.05,0.85-1.9,1.9-1.9
				C503.03,214.26,503.88,215.12,503.88,216.17z"/>
		</g>
	</g>
	<g>
		<polygon class="st11" points="14.71,240.71 14.71,243.34 44.55,243.34 44.55,250.21 14.71,250.21 14.71,252.85 78.34,252.85 
			78.34,240.71 		"/>
		<path class="st2" d="M86.04,254.67L86.04,254.67l1.93-0.01v-1.82h-66.9v8.39h66.9v-1.82h-1.93v0c-0.64-0.06-1.14-1.1-1.14-2.37
			C84.9,255.77,85.4,254.73,86.04,254.67z"/>
		<rect x="49.5" y="240.71" class="st12" width="28.84" height="12.13"/>
		<rect x="21.07" y="252.85" class="st3" width="36.93" height="8.39"/>
		<path class="st19" d="M14.71,243.34L14.71,243.34c0.92,0.1,1.65,1.59,1.65,3.44c0,1.84-0.73,3.34-1.65,3.43v0.01h32.07v-6.87
			H14.71z"/>
		<polygon class="st12" points="85.53,215.37 85.53,212.74 55.69,212.74 55.69,205.87 85.53,205.87 85.53,203.24 21.9,203.24 
			21.9,215.37 		"/>
		<rect x="21.9" y="203.24" class="st11" width="28.84" height="12.13"/>
		<path class="st19" d="M85.53,212.74L85.53,212.74c-0.92-0.1-1.65-1.59-1.65-3.44c0-1.84,0.73-3.34,1.65-3.43v-0.01H53.47v6.87
			H85.53z"/>
		<polygon class="st12" points="93.05,295.06 93.05,293.22 49.41,293.22 49.41,288.41 93.05,288.41 93.05,286.57 0,286.57 0,295.06 
					"/>
		<rect y="286.57" class="st11" width="42.18" height="8.49"/>
		<path class="st19" d="M93.05,293.22L93.05,293.22c-1.34-0.07-2.42-1.12-2.42-2.4c0-1.29,1.07-2.34,2.42-2.4v-0.01H46.16v4.81
			H93.05z"/>
		<polygon class="st20" points="4.98,261.23 4.98,263.86 36.96,263.86 36.96,270.73 4.98,270.73 4.98,273.37 73.18,273.37 
			73.18,261.23 		"/>
		<rect x="42.27" y="261.23" class="st21" width="39.25" height="12.13"/>
		<path class="st19" d="M4.98,263.86L4.98,263.86c0.99,0.1,1.77,1.59,1.77,3.44c0,1.84-0.78,3.34-1.77,3.43v0.01h72.09v-6.87H4.98z"
			/>
		<path class="st19" d="M42.37,263.86H4.98v0.01c0.99,0.09,1.77,1.59,1.77,3.43c0,1.84-0.78,3.34-1.77,3.43v0.01h37.39V263.86z"/>
		<polygon class="st20" points="8.51,228.58 8.51,231.21 35.01,231.21 35.01,238.08 8.51,238.08 8.51,240.71 65.02,240.71 
			65.02,228.58 		"/>
		<rect x="39.4" y="228.58" class="st21" width="32.52" height="12.13"/>
		<path class="st19" d="M8.51,231.21L8.51,231.21c0.82,0.1,1.47,1.59,1.47,3.44c0,1.84-0.65,3.34-1.47,3.43v0.01h59.73v-6.87H8.51z"
			/>
		<path class="st19" d="M39.49,231.21H8.51v0.01c0.82,0.09,1.47,1.59,1.47,3.43c0,1.84-0.65,3.34-1.47,3.43v0.01h30.98V231.21z"/>
		<polygon class="st15" points="89.12,286.57 89.12,283.71 53.02,283.71 53.02,276.23 89.12,276.23 89.12,273.37 16.65,273.37 
			16.65,286.57 		"/>
		<rect x="8.27" y="273.37" class="st17" width="39.42" height="13.21"/>
		<path class="st19" d="M89.12,283.71L89.12,283.71c-0.99-0.11-1.78-1.74-1.78-3.74c0-2,0.79-3.63,1.78-3.73v-0.01H12.74v7.48H89.12
			z"/>
		<path class="st19" d="M47.59,283.71h41.53v-0.01c-0.99-0.1-1.78-1.73-1.78-3.73c0-2,0.79-3.63,1.78-3.73v-0.01H47.59V283.71z"/>
		<polygon class="st15" points="76.94,228.58 76.94,225.71 48.86,225.71 48.86,218.23 76.94,218.23 76.94,215.37 20.57,215.37 
			20.57,228.58 		"/>
		<rect x="14.05" y="215.37" class="st17" width="30.66" height="13.21"/>
		<path class="st19" d="M76.94,225.71L76.94,225.71c-0.77-0.11-1.38-1.74-1.38-3.74c0-2,0.61-3.63,1.38-3.73v-0.01H17.53v7.48H76.94
			z"/>
		<path class="st19" d="M44.64,225.71h32.3v-0.01c-0.77-0.1-1.38-1.73-1.38-3.73c0-2,0.61-3.63,1.38-3.73v-0.01h-32.3V225.71z"/>
		<rect x="65.4" y="259.41" class="st19" width="20.64" height="0"/>
		<path class="st19" d="M84.9,257.04c0-1.27,0.51-2.31,1.14-2.37v-0.01H60.32v4.75h25.72v0C85.4,259.35,84.9,258.31,84.9,257.04z"/>
		<path class="st2" d="M78.87,193.24L78.87,193.24l1.42-0.01v-2.77H31.04v12.78h49.25v-2.77h-1.42v0c-0.47-0.09-0.84-1.67-0.84-3.61
			C78.03,194.91,78.4,193.33,78.87,193.24z"/>
		<rect x="31.04" y="190.45" class="st3" width="27.18" height="12.78"/>
		<path class="st19" d="M78.03,196.85c0-1.94,0.37-3.52,0.84-3.61v-0.01H59.94v7.24h18.93v0C78.4,200.37,78.03,198.79,78.03,196.85z
			"/>
	</g>
	<g>
		<g>
			<g>
				<path class="st13" d="M655.5,63.44h-35.46l-19.01,15.53l8.55-15.53h-8.71c-1.51,0-2.73-1.22-2.73-2.73v-35.2
					c0-1.51,1.22-2.73,2.73-2.73h54.64c1.51,0,2.73,1.22,2.73,2.73v35.2C658.23,62.22,657.01,63.44,655.5,63.44z"/>
			</g>
		</g>
		<g>
			<path class="st4" d="M636.37,37.85c0,4.69-5.9,6.08-5.9,7.91v0.73h-5.9v-1.73c0-2.52,4.49-3.97,4.49-6.77
				c0-1.28-0.83-2.42-2.28-2.42c-1.86,0-2.24,1.45-2.24,2.9c0,0.31,0,0.62,0.04,0.93h-6.35c-0.03-0.45-0.1-0.86-0.1-1.31
				c0-4.49,4-7.28,9.42-7.28C632.81,30.81,636.37,33.57,636.37,37.85z M630.98,54.98h-6.83v-6.39h6.83V54.98z"/>
		</g>
	</g>
</g>
</svg>
