<?xml version="1.0" encoding="utf-8"?>
<!-- Generator: Adobe Illustrator 25.3.0, SVG Export Plug-In . SVG Version: 6.00 Build 0)  -->
<svg version="1.1" id="Layer_1" xmlns="http://www.w3.org/2000/svg" xmlns:xlink="http://www.w3.org/1999/xlink" x="0px" y="0px"
	 viewBox="0 0 500 500" style="enable-background:new 0 0 500 500;" xml:space="preserve">
<g>
	<path style="fill:#EBEEF7;" d="M414.29,354.87c-0.82,4.21-1.64,8.42-2.46,12.63c-7.84-0.56-15.68-1.12-23.52-1.68
		c-2.02-6.46-3.33-13.08-4.65-19.7c4.01-1.53,4.33-2.38,2.25-5.95c-1.72-2.92-4.39-5.14-5-8.87c-2.38-14.46-5.05-28.88-7.61-43.32
		c2.94-1.75,6.27-2.5,9.47-3.49c2.61-0.8,2.85-1.94,1.93-4.26c-2.27-5.68-4.26-11.47-6.52-17.15c-0.88-2.22-0.63-3.85,1.07-5.59
		c2.27-2.33,4.34-4.86,6.34-7.43c2.05-2.63,2.45-5.17-0.94-7.2c-0.65-0.39-1.11-1.08-1.65-1.64c0.66,0.14,1.32,0.27,1.97,0.41
		c3.06,0.81,6.12,1.62,9.18,2.43c3.74,0.79,6.53-0.77,7.35-4.1c0.78-3.18-0.94-5.79-4.42-6.71c-2.58-1.92-5.61-2.26-8.67-2.51
		c-5.95-2.82-12.31-4.26-18.69-5.61c-0.74-2.88-0.72-5.93-1.97-8.69c-1.18-2.61-2.8-4.85-5.94-4.9c-3.23-0.05-6.18,0.95-7.96,3.93
		c-0.79,1.32-1.28,2.82-1.9,4.23c-2.9-0.81-5.81-1.62-8.72-2.43c-1.34-3.72-4.23-1.66-6.54-1.75c-5.67-1.51-11.09-4-17.06-4.37
		c-4.58,0.31-9.23-0.99-13.74,0.69c-1.41,0.34-3.53,0.78-1.19,2.41c2.07,1.44,4.01,3.33,6.66,3.84c0.43,0.86,1.04,1.82,2.05,1.25
		c1.71-0.97,0.95-2.79,1.08-4.28c1.09,0.26,2.19,0.53,3.28,0.79c0.02,0.77,0.32,1.67,0.03,2.28c-1.89,3.88,0.47,4.72,3.54,5.5
		c4.86,1.24,9.66,2.76,14.48,4.16c-0.33,1.23-0.66,2.46-0.99,3.68c-4.98-1.71-10.16-0.69-15.24-1.13
		c-5.92,0.2-11.84,0.38-17.75,0.63c-0.25,0.01-0.47,0.54-0.71,0.83c-2.95-1.23-6.05-1.45-9.2-1.45c-29.35,0.01-58.7,0.01-88.05,0.02
		c-0.13-1.47-0.27-2.93-0.4-4.4c1.2-0.42,2.37-1.01,3.61-1.23c2.49-0.44,3.41-1.8,2.94-4.21c1.83,1.75,3.75,1.2,5.31-0.18
		c1.43-1.25,3.79-2.2,2.95-4.86c-0.65-2.09-1.79-3.71-4.33-3.58c-0.02-0.26-0.03-0.53-0.05-0.79c3.88-4.64,8.34-8.86,10.66-14.64
		c2.45-2.62,5.24-5.05,5.74-8.91c0.13-1.04,0.09-2.26-1-2.77c-1.35-0.63-1.68,0.76-2.34,1.49c-0.55,0.61-1.3,2.24-1.69,1.59
		c-1.8-2.98-1.9,0.26-2.08,0.63c-0.63,1.26-0.94,2.68-1.37,4.04c-4.3,2.67-7.03,6.86-10.24,10.58c-1.36,1.42-2.72,1.96-4.76,0.99
		c-2.8-1.34-5.81-2.23-8.73-3.31c-1.03-0.25-2.05-0.5-3.08-0.75c0.06-0.71,0.13-1.41,0.19-2.12c4.72-0.38,5.13-0.89,4.56-5.57
		c-0.16-3.1-1.1-6.02-2.1-8.92c0.65-3.02,1.3-6.04,2.15-10.04c-3.51,4.8-8.31,5.33-12.48,6.96c-2.48,0.97-2.59,1.87-1.83,4.22
		c0.96,2.99,3.71,4.89,4.29,8c-0.03,2.5-0.06,5-0.09,7.5c-0.89,0.06-1.83-0.07-2.44,0.83c-2.58,1.05-4.08,3.12-5.17,5.56
		c-1.54,2.55-0.95,5.28-0.74,8.01c0.41,5.31,1.51,10.6,0.44,15.95c-6.64-0.02-13.29-0.04-19.93-0.05c-2.32,0-4.33,0.69-4.21,3.43
		c0.1,2.37,1.84,3.25,4.1,3.19c1.17-0.03,2.34-0.02,3.52-0.02c-0.01,9.23-0.03,18.47-0.04,27.7c-1.04,0-2.07,0.01-3.11,0
		c-2.29-0.01-4.39,0.61-4.45,3.23c-0.08,2.92,2.18,3.45,4.59,3.46c2.59,0,5.18,0.03,7.77,0.04c-0.02,0.31-0.04,0.62-0.06,0.93
		c-10.14,1.61-15.59,7.97-17.85,17.58c-13.78-7.57-27.75-8.19-41.91-1.11c-2.95-4.77-5.9-9.54-8.86-14.3
		c-0.68-1.1-1.22-2.35-2.98-1.27c-1.58,0.96-2.05,2.07-0.81,3.46c2.65,2.99,0.73,4.46-1.59,6.37
		c-14.92,12.22-21.63,28.01-20.37,47.28c0.53,8.14,3.29,15.53,6.78,22.75c-3,0.11-6.01,0.09-8.99,0.37
		c-10.2,0.94-20.39,1.99-30.59,3c2.57-13.4,8.19-25.33,16.64-36.06c3.02-3.83,7.02-7.02,8.54-11.94c1.02,0.06,1.75-0.48,2.34-1.21
		c9.64-12.08,14.66-25.97,15.62-41.29c0.85-13.64-1.4-26.95-5.11-40.04c-0.91-3.22-1.29-6.65-3.52-9.38
		c-0.43-6.11-3.31-11.45-5.42-17.01c-3.54-9.37-8.54-18.27-9.77-28.38c-1.95-16.1,0.2-31.19,11.5-43.93
		c11.07-12.47,25.09-18.89,41.33-21.46c9.13-1.44,18.24-3.13,27.47-2.95c15.98,0.32,31.58,2.89,46.38,9.32
		c1.79,0.78,3.58,1.6,5.59,1.63c5.62,4.01,11.87,6.91,17.9,10.2c-3.15,21.56,3.48,39.07,21.67,51.58c2.55,1.75,3.9,3.37,3.54,6.5
		c-0.68,5.79,1.49,10.46,6.08,14.02c-0.68,5.33-0.22,10.68-0.28,16.01c-0.09,7.59-0.02,7.6,7.64,7.71
		c5.63,7.58,14.8,7.58,20.35-0.01c1.56-0.01,3.11,0.01,4.67-0.04c2-0.07,3.03-0.99,2.98-3.14c-0.14-6.86-0.19-13.73-0.28-20.6
		c4.85-3.62,6.64-8.54,6.14-14.44c-0.18-2.15-0.07-4.11,2.21-5.33c8.83-4.75,14.54-12.39,19.22-20.96
		c6.36-1.85,12.63-3.94,18.52-7.03c1.44,0.05,2.95,0.28,3.73-1.42c2.92-0.21,5.7-0.86,8.13-2.61c4.6-0.2,8.83-2.1,13.28-2.98
		c4.74-0.64,9.45-1.59,14.26-1.61c4.88-0.19,9.65,0.71,14.43,1.48c16.64,4.43,29.86,13.32,37.6,29.16c2.16,4.43,3.8,9.1,4.39,14.06
		c-7.87,0.1-15.75,0.21-23.62,0.31c-4.81-0.05-9.63-0.21-14.44-0.13c-3.83,0.06-6.19,2.19-6.43,5.94c-0.23,3.5-0.26,7.04,0.03,10.53
		c0.25,3,2.06,5.42,5.2,5.34c3.49-0.09,5.25,0.91,4.57,5.79c3.87-4.61,7.81-6.4,12.65-5.79c7.61,0.1,15.23,0.21,22.84,0.31
		c-0.44,8.21-3.01,15.98-5,23.86c-0.28,1.12-0.35,2.29-0.52,3.43c-0.38,0.52-0.93,0.98-1.12,1.55
		c-4.68,13.82-10.49,27.25-14.35,41.35c-3.58,13.07-3.8,25.72,3.18,38.19c4.36,7.79,7.03,16.46,8.57,25.44
		C412.96,345.21,412.74,350.18,414.29,354.87z M142.56,148.99c-12.37-0.86-24.75-0.8-37.1-0.02c-4.75,0.3-7.46,4.04-7.6,8.96
		c-0.12,4.18-0.04,8.36-0.03,12.54c0.02,7.85,3.33,11.2,11.2,11.22c11.5,0.03,23,0.18,34.49-0.06c5.26-0.11,10.1,0.24,13.88,4.4
		c1.12,0.98,2.23,1.96,3.6,3.17c0.21-0.91,0.35-1.26,0.36-1.61c0.24-5.84,0.24-5.84,5.84-6.16c4.93-0.27,8.27-3.53,8.42-8.49
		c0.14-4.95,0.1-9.91,0.03-14.87c-0.08-5.88-3.31-9.21-9.24-9.27C158.46,148.75,150.51,148.92,142.56,148.99z"/>
	<path style="fill:#BEC7E3;" d="M42.8,356.43c10.19-1.01,20.39-2.06,30.59-3c2.98-0.28,5.99-0.25,8.99-0.37
		c0.33,0.4,0.7,0.78,0.98,1.21c9.42,14.92,22.86,23.56,40.34,25.99c6.35,0.88,6.34,0.99,6.33,7.62c0,6.1-0.01,6.32-5.85,6.08
		c-3.33-0.14-4.1,1.2-3.7,4.04c-14.51,0.01-29.02,0.01-43.52,0.02c-1.7,0-3.4-0.03-5.1,0.04c-1.57,0.06-2.33,0.98-2.38,2.53
		c-0.06,1.69,0.58,2.81,2.4,2.91c1.17,0.07,2.35,0.04,3.53,0.04c48.88,0,97.76,0,146.64,0.03c1.5,0,3.16-0.58,4.49,0.68
		c-5.64,3.82-12.11,5.9-18.22,8.74c-15.36,7.14-31.07,13.39-47.54,17.54c-2.13,0.54-4.32,0.81-6.49,1.21
		c-0.92-1.04-2.16-0.71-3.3-0.71c-15.35-0.02-30.69-0.02-46.04,0c-1.13,0-2.38-0.33-3.27,0.75c-12.88-2.36-23.97-8.57-34.11-16.46
		c-17.13-13.31-25.78-30.92-25.52-52.72C42.09,360.54,42.54,358.49,42.8,356.43z"/>
	<path style="fill:#D2DEEC;" d="M414.29,354.87c-1.56-4.69-1.34-9.66-2.17-14.48c-1.55-8.98-4.21-17.65-8.57-25.44
		c-6.98-12.47-6.75-25.11-3.18-38.19c3.86-14.1,9.66-27.53,14.35-41.35c0.2-0.58,0.74-1.04,1.12-1.55
		c8.77,5.45,16.2,12.2,21.13,21.46c3.65,6.87,5.96,14.19,7.04,21.81c1.88,13.29,1.24,26.47-2.92,39.36
		c-4.24,13.12-10.19,25.1-21.61,33.62C417.61,351.51,416.02,353.28,414.29,354.87z"/>
	<path style="fill:#F47E2D;" d="M243.59,196.02c-4.59-3.56-6.76-8.23-6.08-14.02c0.36-3.13-0.99-4.74-3.54-6.5
		c-18.19-12.51-24.83-30.03-21.67-51.58c1.85-7.7,5.15-14.73,9.84-21.1c8.22-9.24,18.06-15.69,30.45-17.76
		c4.4-0.74,8.81-0.85,13.25-0.34c0,14.66,0,29.32,0,43.97c0,2.35,0.11,4.73-2.06,6.38c-1.2-1.42-2.42-2.96-4.58-2.07
		c-1.71,0.7-3.31,1.81-3.44,3.83c-0.22,3.49-1.01,7.14,1.17,10.29c1.22,1.77,0.19,2.17-1.11,2.64c-1.17,0.43-2.3,1.28-2.82-0.95
		c-0.65-2.8-1.85-5.44-3.74-7.69c-1.87-2.23-4.22-3.24-6.92-1.85c-2.79,1.44-3.67,4.86-2.5,7.85c1.51,3.89,4.75,5.58,8.45,5.73
		c3.17,0.13,3.47,1.42,3.45,4.04c-0.09,13.6-0.02,27.19,0,40.79C248.83,198.13,246.18,197.21,243.59,196.02z M238.66,95.25
		c-10.37,6.53-16.81,15.71-19.64,27.72c-2.45,10.41,1.37,30.44,5.25,34C217.87,133.65,227.16,114.26,238.66,95.25z"/>
	<path style="fill:#F16433;" d="M263.78,135.07c2.17-1.65,2.06-4.03,2.06-6.38c0-14.66,0-29.32,0-43.97
		c10.2,0.88,19.01,4.7,26.96,11.3c4.79,3.98,8.35,8.78,12.11,13.54c0.08,0.57,0.19,1.1,0.95,1.05c0,0-0.04-0.01-0.04-0.01
		c0,0.5-0.16,1.07,0.03,1.48c3.55,7.52,5.01,15.47,5.06,23.73c-0.08,1.48-0.17,2.97-0.25,4.45c-0.22,1.12-0.45,2.24-0.67,3.36
		c-0.86,4-2.25,7.83-3.76,11.62c-4.68,8.57-10.39,16.21-19.21,20.96c-2.28,1.22-2.39,3.18-2.21,5.33c0.5,5.9-1.29,10.82-6.14,14.44
		c-3.2,1.4-6.48,2.29-10.02,1.74c0.03-13.58,0.12-27.16,0.05-40.73c-0.01-2.6,0.28-3.98,3.44-4.1c3.53-0.14,6.42-2.1,8.11-5.37
		c1.55-3,0.69-6.09-2.08-7.87c-2.9-1.87-5.21-0.77-7.18,1.57c-1.8,2.13-2.93,4.63-3.63,7.3c-0.48,1.82-1.44,1.89-2.87,1.24
		c-1.23-0.56-1.77-1.15-0.93-2.62C265.82,143.17,265.5,139.11,263.78,135.07z"/>
	<path style="fill:#92A4CC;" d="M226.55,404.25c-1.34-1.26-2.99-0.68-4.49-0.68c-48.88-0.03-97.76-0.03-146.64-0.03
		c-1.18,0-2.35,0.03-3.53-0.04c-1.81-0.1-2.45-1.22-2.4-2.91c0.05-1.56,0.82-2.47,2.38-2.53c1.7-0.07,3.4-0.04,5.1-0.04
		c14.51-0.01,29.02-0.01,43.52-0.02c7.66,0.01,15.31,0.02,22.97,0.03c33.21-0.03,66.43-0.05,99.64-0.08
		c12.02,0,24.03-0.01,36.05-0.01c19.62,0.03,39.25,0.05,58.87,0.09c1.65,0,2.91,0.01,3.36-2.21c2.18-10.83,4.55-21.61,6.85-32.41
		c1.34-5.75,2.68-11.5,4.02-17.24c1.25-0.03,2.49-0.06,3.74-0.1c-0.16,1.71-1.78,3.72,1.41,4.62c0.93,0.26,1.06,1.95,0.99,3.15
		c-0.39,0.04-0.79,0.16-1.17,0.1c-3.39-0.57-3.96,1.79-4.13,4.21c-0.23,3.29,2.42,1.8,3.93,2.09c0.74,0.14,1.55-0.09,2.33-0.15
		c0.99,0.96,0.86,2.2,0.86,3.41c-2.19,0-4.39-0.06-6.58,0c-3.21,0.09-2.43,2.94-2.77,4.63c-0.38,1.93,1.58,1.56,2.77,1.57
		c2.71,0.04,5.41-0.02,8.12-0.05c0.79,0.96,0.64,2.11,0.64,3.22c-3.39,0-6.77,0.05-10.16-0.01c-2.51-0.04-3.03,1.58-3.12,3.55
		c-0.11,2.24,1.57,1.97,2.98,1.98c3.91,0.04,7.81,0.07,11.72,0.1c0.26,1.23,0.51,2.47,0.77,3.7c-4.94,0.03-9.88,0.13-14.81,0.07
		c-2.9-0.04-2.43,2.39-2.76,3.87c-0.47,2.11,1.48,1.65,2.64,1.65c5.33,0.04,10.66-0.01,15.98-0.03c1.59,3.34,1.6,7.08,2.71,10.53
		c0.31,0.95,0.41,2.2,1.9,2.04c1.35-0.15,1.56-1.19,1.64-2.29c0.78-0.01,1.57,0,2.35-0.02c1.82-0.05,3.06,0.55,3.11,2.62
		c0.06,2.27-1.23,2.96-3.24,2.89c-1.05-0.03-2.09,0-3.14,0c-21.2,0.05-42.39,0.1-63.59,0.15c-20.73-0.05-41.46-0.1-62.2-0.12
		c-2.86,0-5.72,0.18-8.58,0.27C233.28,404.31,229.92,404.41,226.55,404.25z M354.07,398.02c2.62,0,5.23,0,7.85,0
		c4.08,0.01,2.92-3.56,3.31-5.54c0.43-2.18-1.96-1.42-3.18-1.45c-4.18-0.1-8.37-0.06-12.55-0.03c-3.37,0.02-5.23,1.89-4.87,5.41
		c0.3,2.93,2.83,1.34,4.36,1.57C350.64,398.22,352.37,398.03,354.07,398.02z"/>
	<path style="fill:#D2DEEC;" d="M77.3,216.51c2.23,2.73,2.61,6.16,3.52,9.38c3.71,13.09,5.97,26.4,5.11,40.04
		c-0.96,15.32-5.97,29.2-15.62,41.29c-0.59,0.74-1.32,1.27-2.34,1.21c-4.17-7.2-8.79-14.22-10.84-22.41
		c-6.39-25.62-1.9-48.52,17.26-67.65C75.23,217.54,76.01,216.62,77.3,216.51z"/>
	<path style="fill:#D2DEEC;" d="M236.63,403.85c2.86-0.1,5.72-0.28,8.58-0.27c20.73,0.02,41.46,0.08,62.2,0.12
		c0.23,1.57,1.66,1.61,2.68,1.85c7.82,1.78,15.49,4.14,23.48,5.24c2.53,0.35,5.59-0.23,7.66,2.14c-6.57,3.97-13.95,5.57-21.33,7.05
		c-9.6,1.93-19.33,2.94-29.13,2.37c-18.78-1.09-36.41-6.04-52.48-16.07C237.32,405.66,236.65,405.02,236.63,403.85z"/>
	<path style="fill:#BEC7E3;" d="M341.22,412.92c-2.07-2.37-5.13-1.79-7.66-2.14c-7.99-1.1-15.67-3.46-23.48-5.24
		c-1.02-0.23-2.45-0.28-2.68-1.85c21.19-0.05,42.39-0.1,63.59-0.15c1.05,0,2.09-0.03,3.14,0c2.01,0.06,3.3-0.62,3.24-2.89
		c-0.06-2.07-1.29-2.68-3.11-2.62c-0.78,0.02-1.57,0.02-2.35,0.02c-0.06-0.12-0.13-0.23-0.17-0.35c-2.19-6.66-2.19-6.66,4.58-6.66
		c3.67,0,7.33,0,11,0c1.49,0,3.08,0.01,3.28,1.95c0.16,1.59,0.77,3.28-1.21,4.52c-13.1,8.26-26.91,14.39-42.75,14.67
		C344.82,412.21,343.02,412.66,341.22,412.92z"/>
	<path style="fill:#B35E88;" d="M421.36,206.57c-7.61-0.1-15.23-0.21-22.84-0.31c0-1.98,0-3.97,0-5.95c7.23,0,14.46,0,21.68,0
		c0-0.44,0-0.87,0-1.31c-7.49,0-14.98,0-22.46,0c0-0.94-0.01-1.88-0.01-2.82c7.49-0.55,15.05,0.38,22.53-0.5
		c-0.01-0.41-0.02-0.83-0.02-1.24c-7.51,0-15.02,0-22.52,0c-0.26-0.94-0.52-1.87-0.78-2.81c7.77,0,15.53,0,23.3,0
		c0-0.58-0.01-1.17-0.01-1.75c-7.75,0-15.5,0-23.26,0c0-1.76,0-3.52,0-5.29c7.87-0.1,15.75-0.21,23.62-0.31
		c5.97,0.54,7.68,2.41,7.71,8.45c0.01,2.09,0.03,4.18,0,6.27C428.2,204.08,426.49,205.93,421.36,206.57z"/>
	<path style="fill:#BEC7E3;" d="M388.31,365.82c7.84,0.56,15.68,1.12,23.52,1.68c-2.26,10.11-7.1,18.64-15.32,25.1
		c-0.87,0.69-2.1,2.49-2.63-0.13C392.06,383.59,389.42,374.86,388.31,365.82z"/>
	<path style="fill:#92A4CC;" d="M349.89,141.19c-4.45,0.88-8.67,2.79-13.28,2.98c-5.27-9.51-4.73-18.91,0.37-28.31
		c1.25-2.3,2.19-2.44,3.93-0.5C347.52,122.73,350.7,131.25,349.89,141.19z"/>
	<path style="fill:#D2DEEC;" d="M222.14,102.82c-4.69,6.38-7.99,13.4-9.84,21.1c-6.03-3.3-12.28-6.19-17.9-10.2
		C202.46,107.07,211.6,103.17,222.14,102.82z"/>
	<path style="fill:#2863A6;" d="M355.99,346.07c-1.25,0.03-2.49,0.06-3.74,0.1c-4.29-1.61-4.66-2.74-2.03-6.22
		c3.1-0.05,6.2-0.1,9.31-0.14c6.03,0.01,12.07,0.03,18.1,0.04c2.76,0.11,5.51,0.22,8.27,0.33c2.08,3.57,1.76,4.42-2.25,5.95
		c-1.38-0.04-2.77-0.08-4.15-0.12c-1.43,0.01-2.85,0.02-4.28,0.03C368.81,346.04,362.4,346.05,355.99,346.07z"/>
	<path style="fill:#92A4CC;" d="M310.92,135.8c-0.05-8.26-1.5-16.22-5.06-23.73c-0.19-0.41-0.03-0.98-0.03-1.48
		c5.97,3.6,7.93,9.55,9.51,15.83c2.07,8.24,6.29,15.17,13.15,20.35c-0.78,1.7-2.29,1.46-3.73,1.42c-4.65-2.41-9.41-4.43-14.76-4.58
		c0.22-1.12,0.45-2.24,0.67-3.36c3.6,0.4,6.62,2.96,10.46,2.76C317.72,140.54,316.48,135.14,310.92,135.8z"/>
	<path style="fill:#D2DEEC;" d="M101.69,431.78c0.9-1.08,2.15-0.75,3.27-0.75c15.35-0.02,30.69-0.02,46.04,0
		c1.13,0,2.37-0.33,3.3,0.71c-4.64,2.18-9.75,2.35-14.67,3.05c-12.33,1.77-24.59,0.97-36.65-2.25
		C102.51,432.42,102.12,432.04,101.69,431.78z"/>
	<path style="fill:#92A4CC;" d="M378.58,141.06c-4.78-0.77-9.55-1.67-14.43-1.48c1.82-4.44,5.1-7.7,8.66-10.75
		c1.69-1.44,2.46-1.11,3.28,0.95C377.54,133.43,378.26,137.19,378.58,141.06z"/>
	<path style="fill:#BEC7E3;" d="M365.64,387.77c-5.33,0.02-10.66,0.07-15.98,0.03c-1.16-0.01-3.12,0.46-2.64-1.65
		c0.33-1.48-0.14-3.91,2.76-3.87c4.94,0.06,9.88-0.03,14.81-0.07C365.31,383.99,365.75,385.83,365.64,387.77z"/>
	<path style="fill:#BEC7E3;" d="M371.06,382.35c4.8-0.02,9.61,0.11,14.4-0.12c2.82-0.14,3.26,1.66,3.52,3.59
		c0.37,2.67-1.79,2-3.18,2.01c-5.19,0.03-10.38-0.05-15.57-0.09C370.51,385.94,370.78,384.15,371.06,382.35z"/>
	<path style="fill:#BEC7E3;" d="M372.62,372.93c3.65-0.01,7.31,0.11,10.95-0.08c3.53-0.18,3.14,2.47,3.43,4.5
		c0.44,3.11-2.14,1.64-3.2,1.66c-4.03,0.06-8.08,0.45-12.1-0.22C372.2,376.87,372.99,374.99,372.62,372.93z"/>
	<path style="fill:#BEC7E3;" d="M363.82,378.51c-3.91-0.03-7.81-0.05-11.72-0.1c-1.41-0.02-3.09,0.26-2.98-1.98
		c0.09-1.97,0.61-3.6,3.12-3.55c3.38,0.06,6.77,0.01,10.16,0.01C363.27,374.65,363.61,376.56,363.82,378.51z"/>
	<path style="fill:#EBEEF7;" d="M372.71,360.29c-2.08,0.01-4.17-0.15-6.22,0.09c-3.15,0.37-3.76-1.66-3.99-3.96
		c-0.31-3.07,2.08-2.32,3.74-2.35c2.46-0.05,4.93,0.06,7.39,0.1C373.32,356.21,373.02,358.25,372.71,360.29z"/>
	<path style="fill:#BEC7E3;" d="M361.76,369.65c-2.71,0.02-5.42,0.09-8.12,0.05c-1.19-0.02-3.15,0.36-2.77-1.57
		c0.33-1.69-0.44-4.54,2.77-4.63c2.19-0.06,4.38-0.01,6.58,0C361.48,365.35,361.66,367.49,361.76,369.65z"/>
	<path style="fill:#BEC7E3;" d="M375.08,364.18c2.56,0.29,5.12,0.6,7.68,0.87c1.87,0.2,2.23,1.62,2.32,3.06
		c0.11,1.79-1.34,1.6-2.47,1.59c-2.84-0.04-5.69-0.15-8.53-0.23C374.41,367.71,374.74,365.94,375.08,364.18z"/>
	<path style="fill:#EBEEF7;" d="M359.35,360.08c-0.78,0.06-1.59,0.29-2.33,0.15c-1.5-0.29-4.16,1.21-3.93-2.09
		c0.17-2.43,0.74-4.78,4.13-4.21c0.37,0.06,0.78-0.06,1.17-0.1C359.09,355.86,359.47,357.93,359.35,360.08z"/>
	<path style="fill:#BEC7E3;" d="M371.18,369.56c-2.84,0.09-6.1,1.37-6.72-3.41c-0.28-2.15-0.1-2.55,2.01-2.07
		c1.5,0.34,3.11,0.2,4.67,0.28C371.16,366.09,371.17,367.83,371.18,369.56z"/>
	<path style="fill:#EBEEF7;" d="M377.28,354.09c1.51,0.13,3.37-0.73,4.44,0.64c0.91,1.17,1.52,2.82,1,4.43
		c-0.56,1.74-2.15,1.06-3.35,1.13c-1.03,0.06-2.07-0.13-3.11-0.2C376.59,358.09,376.93,356.09,377.28,354.09z"/>
	<path style="fill:#92A4CC;" d="M375.22,346.02c1.43-0.01,2.85-0.02,4.28-0.03c-0.28,3.91-2.21,5.25-6.19,4.71
		c-3.46-0.47-7.04-0.1-10.56-0.34c2.58,0,5.19-0.2,7.75,0.05C373.92,350.75,375.37,349.34,375.22,346.02z"/>
	<path style="fill:#92A4CC;" d="M377.28,354.09c-0.34,2-0.68,4-1.03,6c-1.18,0.07-2.36,0.13-3.53,0.2c0.31-2.04,0.61-4.09,0.92-6.13
		C374.85,354.14,376.06,354.12,377.28,354.09z"/>
	<path style="fill:#92A4CC;" d="M371.18,369.56c-0.01-1.73-0.02-3.47-0.04-5.2c1.27-0.85,2.56-1.39,3.93-0.18
		c-0.33,1.76-0.66,3.53-1,5.29C373.11,369.5,372.15,369.53,371.18,369.56z"/>
	<path style="fill:#92A4CC;" d="M372.62,372.93c0.37,2.06-0.42,3.94-0.92,5.86c-0.94,0.02-1.88,0.04-2.81,0.06
		c-0.57-2.05,0.94-3.85,0.68-5.86C370.59,372.97,371.61,372.95,372.62,372.93z"/>
	<path style="fill:#BEC7E3;" d="M369.57,373c0.25,2.01-1.25,3.82-0.68,5.86c-2.83-0.52-2.22-3.06-2.31-4.71
		C366.48,372.31,368.41,373.07,369.57,373z"/>
	<path style="fill:#92A4CC;" d="M371.06,382.35c-0.27,1.79-0.55,3.59-0.82,5.38c-2.01-1.01-1.65-3.11-1.71-4.69
		C368.48,381.79,370.12,382.39,371.06,382.35z"/>
	<path style="fill:#92A4CC;" d="M305.86,110.6c-0.76,0.05-0.87-0.48-0.95-1.05C305.23,109.9,305.54,110.25,305.86,110.6z"/>
	<path style="fill:#4E1349;" d="M385.9,340.17c-2.76-0.11-5.51-0.22-8.27-0.33c-0.1-1.95-0.11-3.89-0.73-5.79
		c-4.57-13.99-9.09-28.01-13.67-42c-0.45-1.36-0.48-3.06-2.88-4.18c-0.28,17.62-0.55,34.77-0.82,51.93c-3.1,0.05-6.2,0.1-9.31,0.14
		c3.15-1.89,4.8-4.13,4.38-8.34c-1.42-14.24-2.32-28.54-3.42-42.81c0.03-0.52,0.11-1.05,0.07-1.56
		c-1.03-11.72-1.81-23.44-0.05-35.17c0.11-0.73,0.15-1.89-0.28-2.22c-2.83-2.24-1.95-5.15-1.67-7.98c1.07-2.83,2.15-5.67,3.22-8.5
		c0.37-0.23,0.74-0.45,1.11-0.68c0.93-0.07,1.86-0.14,2.79-0.2c0.28,1.5-0.9,4.74,1.52,3.93c2.72-0.91,5.68-3.23,5.7-7.09
		c0.01-1.75-0.55-3.66,1.92-4.44c0.57-0.18,1.23-1.58,0.29-1.84c-2.62-0.73-4.21-3.51-7.16-3.44c-0.38-1.8-1.89-2.63-3.33-2.67
		c-1.2-0.04-0.78,1.63-1.03,2.56c-2.34,6.36-2.34,6.35,2.44,10.53c0.11,0.1-0.04,0.49-0.07,0.74c-6.02-1.75-6.02-1.75-4.38-6.68
		c-0.11-1.45-0.21-2.9-0.32-4.35c0.62-1.42,1.11-2.91,1.9-4.23c1.78-2.98,4.73-3.98,7.96-3.93c3.13,0.05,4.75,2.29,5.94,4.9
		c1.25,2.76,1.23,5.81,1.97,8.69c-0.01,1.34-0.02,2.67-0.03,4.01c-0.29,2.14-1.8,2.5-3.58,2.47c-0.71,0.09-1.23,0.43-1.36,1.17
		c-1.3,7.69-3.2,15.34-3.72,23.08c-0.61,9.26,0.7,18.46,4.12,27.28c2.32,6,2.1,6.09,8.14,4.84c2.56,14.44,5.23,28.85,7.61,43.32
		C381.51,335.02,384.18,337.25,385.9,340.17z"/>
	<path style="fill:#B35E88;" d="M157.4,186.04c-3.78-4.16-8.63-4.51-13.88-4.4c-11.49,0.24-22.99,0.09-34.49,0.06
		c-7.87-0.02-11.18-3.37-11.2-11.22c-0.01-4.18-0.09-8.37,0.03-12.54c0.14-4.92,2.85-8.67,7.6-8.96c12.35-0.78,24.74-0.83,37.1,0.02
		c0,2.76,0,5.53,0,8.29c-11.19,0-22.39,0-33.58,0c0,0.68,0,1.36,0,2.03c11.2,0,22.4,0,33.59,0c0,1.5,0,2.99,0,4.49
		c-11.16,0-22.33,0-33.49,0c0.01,0.63,0.01,1.27,0.02,1.9c14.55,0,29.11,0,43.66,0c0,1.52-0.01,3.04-0.01,4.56
		c-14.62,0-29.25,0-43.87,0c0,0.76,0,1.52,0,2.27c14.62,0,29.24,0,43.86,0c0,2.09-0.02,4.18-0.01,6.27c0,1.06-0.01,2.34,1.42,2.34
		C157.8,181.15,157.51,183.63,157.4,186.04z"/>
	<path style="fill:#443574;" d="M203.88,230.36c29.35,0,58.7,0,88.05-0.02c3.15,0,6.25,0.21,9.2,1.45
		c14.64,9.29,13.35,30.06-0.05,38.01c-1.26,0.36-2.52,0.73-3.79,1.09c-11.22,0.01-22.43,0.05-33.65,0.03
		c-19.69-0.03-39.38-0.1-59.08-0.15c-0.03-1.45-0.05-2.89-0.08-4.34c27.2,0.04,54.4,0.09,81.6,0.09c4.77,0,8.98-1.57,12.18-5.29
		c4.24-4.94,5.13-10.62,2.67-16.47c-2.75-6.56-8.09-9.6-15.23-9.59c-27.07,0.03-54.14,0.02-81.21,0.02
		C204.1,233.6,203.62,232.03,203.88,230.36z"/>
	<path style="fill:#F9B747;" d="M143.46,398.03c-7.66-0.01-15.31-0.02-22.97-0.03c-0.4-2.85,0.37-4.19,3.7-4.04
		c5.84,0.25,5.85,0.03,5.85-6.08c0-6.63,0.02-6.74-6.33-7.62c-17.49-2.43-30.92-11.07-40.34-25.99c-0.28-0.44-0.65-0.81-0.98-1.21
		c-3.5-7.21-6.25-14.61-6.78-22.75c-1.26-19.28,5.46-35.06,20.37-47.28c2.33-1.9,4.24-3.38,1.59-6.37c-1.23-1.39-0.76-2.5,0.81-3.46
		c1.76-1.07,2.3,0.17,2.98,1.27c2.96,4.76,5.91,9.54,8.86,14.3c0.96,1.61,1.93,3.23,2.9,4.84c4.82,7.87,9.65,15.74,14.47,23.62
		c-0.16,1.1,0.65,1.62,1.33,2.22c1.87,3.75,3.93,7.38,6.57,10.66c0.05,2.84,0.11,5.67,0.16,8.51c-4.38-5.87-7.75-12.37-11.64-18.54
		c-6.05-9.6-11.99-19.27-17.97-28.91c-0.87-1.6-1.79-3.18-2.6-4.81c-0.95-1.92-1.88-2.39-3.77-0.81c-2.52,2.1-4.97,4.24-7.18,6.65
		c-14.91,16.32-17.07,43.38-4.83,60.25c10.14,16.06,24.93,23.55,43.69,23.72c0.16,3.04,1.08,5.9,2.02,8.75
		c-0.2,11.03-1.69,9.05,8.3,8.98c0.63,0.33,1.27,0.66,1.9,0.99C143.53,395.94,143.49,396.99,143.46,398.03z"/>
	<path style="fill:#F9B747;" d="M373.3,287.98c-6.04,1.25-5.82,1.16-8.14-4.84c-3.41-8.82-4.73-18.02-4.12-27.28
		c0.51-7.74,2.42-15.39,3.72-23.08c0.13-0.74,0.65-1.08,1.35-1.17c5.8-0.1,9.23,4.22,13.39,7.18c1.16,0.82,2.33,1.62,3.5,2.42
		c0.55,0.55,1.01,1.25,1.66,1.64c3.38,2.03,2.99,4.58,0.94,7.2c-2,2.57-4.08,5.1-6.34,7.43c-1.69,1.74-1.95,3.37-1.07,5.59
		c2.26,5.68,4.24,11.47,6.52,17.15c0.93,2.32,0.68,3.45-1.93,4.26C379.57,285.48,376.24,286.24,373.3,287.98z M373.85,244.01
		c-0.83,1.87-0.31,3.32,0.13,4.76c0.41,1.31,0.05,3.43,1.48,3.69c1.53,0.28,2.28-1.81,3.4-2.82c1.22-1.09,0.85-1.94-0.42-2.71
		C376.92,246.02,375.45,245.03,373.85,244.01z"/>
	<path style="fill:#B8ABCF;" d="M301.08,269.79c13.4-7.95,14.7-28.71,0.05-38.01c0.24-0.29,0.46-0.82,0.71-0.83
		c5.92-0.24,11.83-0.43,17.75-0.63c0.12,1.88,1.91,1.45,2.91,1.94c8.03,3.9,12.36,11.46,11.7,20.78
		c-0.54,7.69-6.21,14.53-14.08,17.01c-1.84,0.51-3.53,1.58-5.53,1.55c-2.25-1.6-4.82-0.44-7.2-0.83
		C305.29,270.43,302.94,271.71,301.08,269.79z"/>
	<path style="fill:#92A4CC;" d="M113.11,293.63c-0.96-1.61-1.93-3.23-2.89-4.84c14.17-7.08,28.13-6.46,41.91,1.11
		c0.13,3.66-0.21,7.18,1.59,10.84c3.32,6.72,8.77,10.19,15.46,12.41c-7.82-0.02-15.63-0.05-23.45-0.07c-1.9-1.82-4.21-2.94-6.6-3.95
		c-2.97-1.26-6.86-1.83-8.68-4.05c-3.57-4.37-8.49-6.57-12.65-9.93C116.44,294.03,114.93,293.34,113.11,293.63z"/>
	<path style="fill:#92408A;" d="M142.55,157.28c0-2.76,0-5.53,0-8.29c7.95-0.07,15.91-0.24,23.86-0.17
		c5.93,0.05,9.16,3.39,9.24,9.27c0.07,4.96,0.11,9.92-0.03,14.87c-0.14,4.96-3.49,8.22-8.42,8.49c-5.6,0.31-5.6,0.31-5.84,6.16
		c-0.01,0.35-0.15,0.7-0.36,1.61c-1.37-1.2-2.49-2.19-3.6-3.17c0.11-2.41,0.4-4.89-3.25-4.89c-1.44,0-1.42-1.28-1.42-2.34
		c-0.01-2.09,0-4.18,0.01-6.27c3.36-0.36,6.82,0.31,10.12-0.93c-3.22-2.01-6.77-0.83-10.11-1.35c0-1.52,0.01-3.04,0.01-4.56
		c3.29-0.53,6.76,0.49,9.98-0.66c-0.01-0.41-0.03-0.83-0.04-1.24c-6.71,0-13.42,0-20.13,0c0-1.5,0-2.99,0-4.49
		c6.71-0.48,13.5,0.34,20.18-0.54c-0.01-0.5-0.02-1-0.03-1.5C156,157.28,149.28,157.28,142.55,157.28z"/>
	<path style="fill:#2863A6;" d="M169.18,313.13c-6.69-2.22-12.14-5.69-15.46-12.41c-1.8-3.65-1.46-7.18-1.59-10.84
		c2.26-9.61,7.71-15.97,17.85-17.58c3.85,0.01,7.71,0.03,11.56,0.04c-0.01,0.28-0.01,0.57-0.02,0.86
		c-13.62,2.85-19.43,19.96-10.69,31.5c-0.25,0.65-0.5,1.31-0.74,1.96c-1.52,1.44-0.09,1.85,0.86,2.37c2.44,1.32,4.91,2.61,7.36,3.9
		C175.26,313,172.22,313.07,169.18,313.13z"/>
	<path style="fill:#443574;" d="M320.12,270.05c7.87-2.47,13.54-9.32,14.08-17.01c0.66-9.32-3.67-16.89-11.7-20.78
		c-1-0.49-2.79-0.06-2.91-1.94c5.08,0.44,10.26-0.58,15.24,1.13c-0.61,3.86,1.19,5.75,4.93,6.21c1.78,0.22,3.52,0.72,5.27,1.09
		c1.06,2,2.11,3.99,3.17,5.99c-0.53,5.23-1.06,10.45-1.59,15.68c-3.59,5.36-8.08,9.45-14.75,10.48
		C327.98,270.31,323.92,271.97,320.12,270.05z"/>
	<path style="fill:#FBFCFD;" d="M165.24,264.65c0.01-9.23,0.03-18.47,0.04-27.7c0.18-2.15,1.81-1.77,3.17-1.78
		c4.38-0.03,8.76-0.04,13.14-0.05c0.1,0.72,0.2,1.44,0.3,2.16c-0.11,9.73-0.22,19.47-0.32,29.2c-4.4,0.03-8.8,0.06-13.19,0.1
		C166.9,266.61,165.41,266.7,165.24,264.65z"/>
	<path style="fill:#F47E2D;" d="M181.88,237.29c-0.1-0.72-0.2-1.44-0.3-2.17c0.07-1.57,0.15-3.14,0.22-4.72
		c1.06-5.35-0.03-10.64-0.44-15.95c-0.21-2.72-0.8-5.46,0.74-8.01c-0.04,4.15,2.34,6.01,6.07,7.14c2.79,0.84,6.32,1.37,7.51,4.38
		c1.71,4.34,4.03,3.08,6.72,1.49c2.45,1.06,5.55-2.38,7.65,1.1l-0.03-0.04c0.47,2.41-0.45,3.78-2.94,4.21
		c-1.24,0.22-2.41,0.81-3.61,1.23c-5.69,1.41-5.98,1.78-5.99,7.47c0,1.42-0.01,2.84-0.01,4.26
		C192.26,238.28,187.07,237.91,181.88,237.29z"/>
	<path style="fill:#92408A;" d="M396.92,191.63c0.26,0.94,0.52,1.87,0.78,2.81c-4.29,0.42-8.66-0.36-12.92,0.52
		c0,0.41,0,0.81,0,1.22c4.32,0,8.63,0,12.95,0c0,0.94,0.01,1.88,0.01,2.82c-4.27,0-8.55,0-12.82,0c0,0.44,0,0.87,0,1.31
		c4.53,0,9.06,0,13.6,0c0,1.98,0,3.97,0,5.95c-4.84-0.61-8.78,1.19-12.65,5.79c0.68-4.88-1.07-5.88-4.57-5.79
		c-3.15,0.08-4.96-2.34-5.2-5.34c-0.29-3.49-0.26-7.04-0.03-10.53c0.24-3.75,2.61-5.88,6.43-5.94c4.81-0.07,9.63,0.08,14.44,0.13
		c0,1.76,0,3.52,0,5.29c-4.04,0-8.09,0-12.13,0c0,0.4,0,0.8,0,1.2C388.79,192.07,392.91,191.17,396.92,191.63z"/>
	<path style="fill:#B35E88;" d="M243.59,196.02c2.59,1.19,5.24,2.11,8.16,1.66c0.72,0.01,1.44,0.02,2.16,0.03
		c4.21-0.01,8.41-0.01,12.62-0.02c0.3,0.12,0.6,0.25,0.9,0.37c0,1.14,0,2.28,0.01,3.43c-5.88,0.04-11.76,0.07-17.64,0.15
		c-0.83,0.01-2.17-0.4-2.29,0.83c-0.15,1.53,1.29,1.33,2.27,1.34c5.09,0.08,10.19,0.12,15.28,0.18c0.01,0.75,0.02,1.5,0.03,2.26
		c-5.09,0.05-10.17,0.09-15.26,0.15c-0.89,0.01-2.14-0.11-2.15,1.08c0,1.16,1.23,1.11,2.14,1.12c5.09,0.06,10.17,0.12,15.26,0.17
		c0,0.77,0,1.53-0.01,2.3c-5.08,0.06-10.15,0.11-15.23,0.17c-0.9,0.01-2.14-0.07-2.13,1.11c0.01,1.21,1.28,1.04,2.15,1.05
		c4.56,0.07,9.11,0.12,13.67,0.17c-0.03,2-0.06,4.01-0.09,6.01c-4.17,0.05-8.33,0.1-12.5,0.15c-7.66-0.12-7.73-0.12-7.64-7.71
		C243.37,206.7,242.91,201.35,243.59,196.02z"/>
	<path style="fill:#2863A6;" d="M356.37,232.47c-0.93,0.07-1.86,0.14-2.79,0.2c-0.58-0.1-1.15-0.2-1.72-0.3
		c-3.56-1.34-7.2-2.45-10.95-3.14c-1.7-0.48-3.39-0.97-5.09-1.45c-4.82-1.4-9.61-2.92-14.48-4.16c-3.07-0.78-5.43-1.61-3.54-5.5
		c0.3-0.61,0-1.51-0.03-2.28c0.44-0.34,0.88-0.69,1.31-1.03c11.06,3.08,22.12,6.16,33.18,9.24c-1.64,4.93-1.64,4.93,4.38,6.68
		C356.93,231.37,356.84,231.95,356.37,232.47z"/>
	<path style="fill:#92408A;" d="M263.45,219.59c0.03-2,0.06-4.01,0.09-6.01c2.86-0.05,5.72-0.07,8.58-0.18
		c0.8-0.03,2.15,0.42,2.12-0.92c-0.02-1.01-1.2-1.19-2.14-1.22c-2.34-0.06-4.68-0.12-7.02-0.18c0-0.77,0-1.53,0.01-2.3
		c2.61-0.06,5.22-0.11,7.83-0.19c0.8-0.03,1.65-0.2,1.53-1.27c-0.09-0.8-0.85-0.89-1.51-0.91c-2.61-0.07-5.22-0.11-7.83-0.16
		c-0.01-0.75-0.02-1.5-0.03-2.26c2.45-0.07,4.9-0.1,7.34-0.23c0.86-0.05,2.01-0.18,1.93-1.35c-0.07-1.04-1.17-0.74-1.87-0.78
		c-1.67-0.09-3.35-0.1-5.02-0.14c0-1.14,0-2.28-0.01-3.43c0.41-0.12,0.82-0.24,1.23-0.36c3.53,0.55,6.82-0.34,10.02-1.74
		c0.09,6.86,0.13,13.73,0.28,20.59c0.05,2.16-0.98,3.08-2.98,3.14c-1.55,0.05-3.11,0.03-4.67,0.04
		C268.68,219.69,266.07,219.64,263.45,219.59z"/>
	<path style="fill:#F16433;" d="M202.4,219.46c-2.69,1.59-5,2.85-6.72-1.49c-1.19-3.01-4.73-3.54-7.51-4.38
		c-3.73-1.13-6.12-2.99-6.07-7.14c1.1-2.44,2.59-4.5,5.17-5.56c1.4,3.63,5.17,3.99,7.96,5.68c0.56,0.34,0.98-0.6,1.29-1.13
		c0.58-0.99,1.13-1.99,1.69-2.99c3.42,2.09,3.23,5.56,3.38,8.9C201.87,214.05,202.14,216.75,202.4,219.46z"/>
	<path style="fill:#4E1349;" d="M199.77,192.35c0.57,4.68,0.15,5.19-4.56,5.57c-3.05-0.53-3.97-3.21-5.41-5.36
		c-0.57-3.1-3.33-5-4.29-8c-0.75-2.36-0.65-3.25,1.83-4.22c4.17-1.62,8.97-2.15,12.48-6.96c-0.86,4-1.51,7.02-2.15,10.04
		c-2.31,0.29-4.62,0.58-6.94,0.88c-0.84,0.11-2.18-0.04-1.75,1.34c0.87,2.84,1.75,5.79,4.37,7.59
		C195.66,194.8,197.8,193.86,199.77,192.35z"/>
	<path style="fill:#443574;" d="M181.81,230.4c-0.07,1.57-0.15,3.14-0.22,4.72c-4.38,0.01-8.76,0.02-13.14,0.05
		c-1.36,0.01-2.99-0.37-3.17,1.78c-1.17,0.01-2.35-0.01-3.52,0.02c-2.26,0.07-3.99-0.81-4.1-3.19c-0.12-2.74,1.89-3.43,4.21-3.43
		C168.52,230.36,175.17,230.39,181.81,230.4z"/>
	<path style="fill:#92A4CC;" d="M352.27,224.06c-11.06-3.08-22.12-6.16-33.18-9.24c0.18-1.22,0.36-2.44,0.55-3.66
		c5.96,0.37,11.38,2.86,17.06,4.37c0.83,3.82,2.97,4.39,6.54,1.75c2.91,0.81,5.81,1.62,8.72,2.43
		C352.06,221.16,352.17,222.61,352.27,224.06z"/>
	<path style="fill:#F9B747;" d="M335.82,227.78c1.7,0.48,3.39,0.97,5.09,1.45c-0.17,0.96,0.31,1.39,1.2,1.6
		c3.24,0.77,6.42,1.83,9.79,1.93c0.19,0.2,0.38,0.4,0.57,0.6c-1.07,2.83-2.15,5.67-3.22,8.5c-0.12-0.09-0.24-0.17-0.35-0.26
		c0.16-2.92-1.96-2.72-3.86-2.82c-1.76-0.37-3.5-0.87-5.27-1.09c-3.74-0.47-5.54-2.35-4.93-6.21
		C335.16,230.23,335.49,229.01,335.82,227.78z"/>
	<path style="fill:#F16433;" d="M224.58,196.47c-2.33,5.77-6.78,10-10.66,14.64c-0.24,0.19-0.47,0.37-0.71,0.56
		c-0.52-0.03-1.04-0.07-1.56-0.1c-0.02-2.82-0.04-5.63-0.06-8.45c3.21-3.72,5.95-7.91,10.24-10.58
		C222.09,194.3,223.71,195.12,224.58,196.47z"/>
	<path style="fill:#443574;" d="M165.24,264.65c0.18,2.05,1.66,1.95,3.13,1.94c4.4-0.05,8.8-0.07,13.19-0.1
		c-0.01,1.52-0.02,3.05-0.03,4.58c-3.83-0.04-7.68-0.61-11.49,0.32c-2.59-0.01-5.18-0.03-7.77-0.04c-2.41,0-4.67-0.54-4.59-3.46
		c0.07-2.62,2.17-3.24,4.45-3.23C163.16,264.66,164.2,264.65,165.24,264.65z"/>
	<path style="fill:#FBFCFD;" d="M388.42,230.74c3.06,0.25,6.1,0.59,8.67,2.51c-0.98,3.6-1.95,7.21-2.92,10.81
		c-3.06-0.81-6.12-1.62-9.18-2.43c0.72-2.61,1.43-5.22,2.15-7.82C387.56,232.79,387.99,231.76,388.42,230.74z"/>
	<path style="fill:#D2DEEC;" d="M309.99,143.61c5.35,0.16,10.11,2.17,14.76,4.58c-5.89,3.1-12.16,5.18-18.52,7.03
		C307.75,151.44,309.14,147.61,309.99,143.61z"/>
	<path style="fill:#2863A6;" d="M387.13,233.81c-0.72,2.61-1.43,5.22-2.15,7.82c-0.66-0.14-1.31-0.27-1.97-0.41
		c-1.17-0.81-2.35-1.6-3.5-2.43c-4.16-2.97-7.59-7.29-13.39-7.18c1.79,0.03,3.3-0.34,3.58-2.47
		C375.51,230.7,381.32,232.25,387.13,233.81z"/>
	<path style="fill:#F47E2D;" d="M211.59,203.11c0.02,2.82,0.04,5.63,0.06,8.45c-3.36,0.5-6.68-1.01-10.05-0.22
		c-0.16-3.34,0.04-6.81-3.38-8.9c-0.04-0.55-0.08-1.1-0.12-1.65c2.92,1.08,5.93,1.97,8.73,3.31
		C208.88,205.08,210.23,204.53,211.59,203.11z"/>
	<path style="fill:#F9B747;" d="M199.77,192.35c-1.97,1.51-4.11,2.45-6.41,0.88c-2.62-1.79-3.5-4.75-4.37-7.59
		c-0.43-1.38,0.91-1.23,1.75-1.34c2.31-0.3,4.62-0.59,6.94-0.88C198.67,186.33,199.61,189.25,199.77,192.35z"/>
	<path style="fill:#4E1349;" d="M263.45,219.59c2.62,0.05,5.24,0.1,7.86,0.14c-5.55,7.59-14.72,7.59-20.35,0.01
		C255.12,219.7,259.28,219.65,263.45,219.59z"/>
	<path style="fill:#92A4CC;" d="M387.13,233.81c-5.81-1.56-11.62-3.11-17.43-4.67c0.01-1.34,0.02-2.67,0.03-4.01
		c6.39,1.34,12.75,2.79,18.69,5.61C387.99,231.76,387.56,232.79,387.13,233.81z"/>
	<path style="fill:#F16433;" d="M197.48,237.69c0-1.42,0.01-2.84,0.01-4.26c0-5.7,0.3-6.06,5.99-7.47c0.13,1.47,0.27,2.93,0.4,4.4
		c-0.26,1.67,0.21,3.24,0.62,4.82c-0.1,0.89-0.2,1.79-0.31,2.68C201.96,237.8,199.72,237.74,197.48,237.69z"/>
	<path style="fill:#F9B747;" d="M224.58,196.47c-0.87-1.34-2.49-2.16-2.75-3.93c0.43-1.36,0.73-2.78,1.37-4.04
		c0.19-0.37,0.29-3.6,2.08-0.63c0.4,0.65,1.15-0.98,1.69-1.59c0.66-0.73,0.99-2.12,2.34-1.49c1.09,0.51,1.14,1.72,1,2.77
		C229.82,191.42,227.04,193.84,224.58,196.47z"/>
	<path style="fill:#F16433;" d="M394.16,244.06c0.97-3.6,1.95-7.21,2.92-10.81c3.48,0.92,5.2,3.54,4.42,6.71
		C400.7,243.29,397.9,244.85,394.16,244.06z"/>
	<path style="fill:#F9B747;" d="M213.97,211.89c2.53-0.12,3.67,1.49,4.33,3.58c0.83,2.66-1.53,3.61-2.95,4.86
		c-1.56,1.37-3.49,1.92-5.31,0.18c0,0,0.03,0.04,0.03,0.04c0.27-2.78-0.17-5.88,3.47-7.05c0.54-0.17,0.87-0.95,0.47-1.67
		L213.97,211.89z"/>
	<path style="fill:#FBFCFD;" d="M198.1,200.79c0.04,0.55,0.08,1.1,0.12,1.65c-0.56,1-1.1,2-1.69,2.99
		c-0.31,0.53-0.73,1.47-1.29,1.13c-2.79-1.69-6.56-2.05-7.96-5.68c0.6-0.89,1.55-0.77,2.44-0.83c1.77-0.85,3.55,2.67,5.31-0.02
		C196.05,200.29,197.07,200.54,198.1,200.79z"/>
	<path style="fill:#FBFCFD;" d="M319.64,211.16c-0.18,1.22-0.36,2.44-0.55,3.66c-0.44,0.34-0.88,0.69-1.31,1.03
		c-1.09-0.26-2.19-0.53-3.28-0.79c-1.05-0.24-2.11-0.48-3.16-0.72c-1.63-1.23-4.18-0.43-5.44-2.48
		C310.41,210.17,315.06,211.47,319.64,211.16z"/>
	<path style="fill:#F9B747;" d="M195.02,200.04c-1.76,2.69-3.54-0.84-5.31,0.02c0.03-2.5,0.06-5,0.09-7.5
		c1.44,2.15,2.36,4.83,5.41,5.36C195.15,198.63,195.08,199.34,195.02,200.04z"/>
	<path style="fill:#F9B747;" d="M343.24,217.28c-3.58,2.64-5.72,2.07-6.54-1.75C339.01,215.62,341.89,213.56,343.24,217.28z"/>
	<path style="fill:#BEC7E3;" d="M305.9,211.85c1.25,2.05,3.81,1.25,5.44,2.48c0.01,1.25,0.02,2.51,0.03,3.76
		c-2.65-0.51-4.59-2.4-6.66-3.84C302.37,212.63,304.49,212.18,305.9,211.85z"/>
	<path style="fill:#92A4CC;" d="M170.04,271.38c3.81-0.93,7.65-0.36,11.49-0.32c0.01,0.43,0.01,0.86,0.02,1.29
		c-3.85-0.01-7.71-0.03-11.56-0.04C170,272,170.02,271.69,170.04,271.38z"/>
	<path style="fill:#D2DEEC;" d="M311.37,218.09c-0.01-1.25-0.02-2.51-0.03-3.76c1.05,0.24,2.11,0.48,3.16,0.73
		c-0.13,1.5,0.63,3.32-1.08,4.28C312.41,219.91,311.8,218.95,311.37,218.09z"/>
	<path style="fill:#F47E2D;" d="M213.21,211.66c0.24-0.19,0.47-0.37,0.71-0.56c0.01,0.26,0.03,0.53,0.05,0.79
		c0,0,0.03-0.06,0.03-0.06C213.74,211.78,213.47,211.72,213.21,211.66z"/>
	<path style="fill:#EBEEF7;" d="M268.66,197.7c-0.41,0.12-0.82,0.24-1.23,0.36c-0.3-0.12-0.6-0.25-0.9-0.37
		c-0.07-2.33-0.14-4.67-0.21-7c0.05-11.1-0.22-22.21,0.32-33.28c0.22-4.49-2.32-5.6-5.3-6.76c-2.59-1.01-7.36,2.19-7.36,4.79
		c0.01,11.75,0.07,23.5,0.12,35.25c-0.06,2.34-0.13,4.68-0.19,7.02c-0.72-0.01-1.44-0.02-2.16-0.03c-0.02-13.6-0.09-27.19,0-40.79
		c0.02-2.62-0.28-3.91-3.45-4.04c-3.71-0.15-6.94-1.85-8.45-5.73c-1.17-2.99-0.29-6.41,2.5-7.85c2.69-1.39,5.04-0.38,6.92,1.85
		c1.89,2.25,3.09,4.89,3.74,7.69c0.52,2.23,1.65,1.37,2.82,0.95c1.3-0.47,2.33-0.87,1.11-2.64c-2.18-3.15-1.4-6.81-1.17-10.29
		c0.13-2.02,1.73-3.13,3.44-3.83c2.16-0.89,3.38,0.65,4.58,2.07c1.72,4.04,2.04,8.11-0.21,12.03c-0.84,1.47-0.3,2.06,0.93,2.62
		c1.43,0.65,2.39,0.59,2.87-1.24c0.7-2.66,1.83-5.17,3.63-7.3c1.98-2.34,4.28-3.44,7.18-1.57c2.77,1.79,3.62,4.87,2.08,7.87
		c-1.69,3.27-4.58,5.23-8.11,5.37c-3.16,0.13-3.45,1.51-3.44,4.1C268.78,170.55,268.69,184.12,268.66,197.7z M248.8,150.74
		c0.61-0.16,1.91,0.69,2.08-1.1c0.24-2.47-3.79-8.58-5.84-8.56c-2.15,0.02-3.31,1.39-3.45,3.45
		C241.41,147.32,244.95,150.41,248.8,150.74z M271.28,150.74c3.77-0.14,7.44-3.2,7.34-6.06c-0.07-2.06-1.11-3.53-3.32-3.59
		c-2.04-0.06-5.53,5.23-5.76,8.2C269.41,151.09,270.51,150.73,271.28,150.74z M262.84,140.65c-0.53-1.84,0.18-5.34-2.75-5.28
		c-2.39,0.05-2.31,3.39-2.28,5.54c0.03,2.22-0.32,5.7,2.4,5.73C262.98,146.67,262.53,143.21,262.84,140.65z"/>
	<path style="fill:#F9B747;" d="M238.66,95.25c-11.5,19.02-20.79,38.4-14.38,61.72c-3.88-3.56-7.7-23.59-5.25-34
		C221.85,110.95,228.29,101.78,238.66,95.25z"/>
	<path style="fill:#D2DEEC;" d="M310.92,135.8c5.56-0.67,6.81,4.73,10.21,7.21c-3.83,0.2-6.86-2.36-10.46-2.76
		C310.75,138.77,310.83,137.29,310.92,135.8z"/>
	<path style="fill:#EBEEF7;" d="M331.87,270.92c6.67-1.03,11.16-5.12,14.75-10.48c-0.54,7.26-0.97,14.53-1.66,21.77
		c-0.64,6.67-0.76,6.66,6.23,6.58c1.1,14.27,1.99,28.57,3.42,42.81c0.42,4.21-1.23,6.45-4.38,8.34c-2.63,3.48-2.26,4.62,2.03,6.23
		c-1.34,5.75-2.68,11.5-4.02,17.24c-8.95-1.03-17.94-0.68-26.92-0.76c-0.8-0.01-1.57-0.09-2.1-0.8c1.17-0.1,2.36-0.08,3.49-0.32
		c1.79-0.38,3.21-1.28,3.04-3.41c-0.18-2.21-1.56-3.18-3.68-3.23c-0.78-0.02-1.57-0.01-2.35-0.01c-43.64,0-87.29-0.01-130.93,0.02
		c-2.34,0-4.68,0.31-7.02,0.47c-3.5-1.54-7.4,0.62-10.87-1.2c30.36-0.04,60.72-0.08,91.08-0.1c2.62,0,5.22-0.1,7.8-0.64
		c6.04,1.27,12.13,0.4,18.2,0.5c3.64,0.04,7.29,0.15,10.93,0.1c10.5-0.14,18.97-8.02,20.12-18.64c1.06-9.79-5.53-18.97-15.44-21.5
		c-0.04-0.27-0.08-0.55-0.12-0.82c11.3-0.01,22.61-0.01,33.91-0.03c1.04,0,2.1,0.06,3.11-0.13c1.72-0.33,2.85-1.49,2.83-3.23
		c-0.02-1.76-1.19-2.88-2.95-3.06c-1.55-0.16-3.11-0.08-4.67-0.11c0.01-9.28,0.02-18.57,0.03-27.85c1.3-0.01,2.6-0.04,3.9-0.02
		c2.21,0.03,3.58-1.16,3.66-3.21c0.09-2.17-1.41-3.21-3.56-3.23c-2.6-0.02-5.21-0.03-7.81-0.04
		C331.91,271.73,331.89,271.33,331.87,270.92z"/>
	<path style="fill:#BEC7E3;" d="M319.22,361.85c0.53,0.71,1.3,0.79,2.1,0.8c8.98,0.08,17.97-0.26,26.92,0.76
		c-2.3,10.8-4.68,21.59-6.85,32.41c-0.45,2.22-1.71,2.22-3.36,2.21c-19.62-0.04-39.25-0.06-58.87-0.09c0-0.41,0.01-0.82,0.01-1.23
		c13.53-0.07,27.05-0.13,40.58-0.21c1.17-0.01,2.36,0.06,3.51-0.11c1.84-0.27,2.71-1.6,2.62-3.32c-0.08-1.51-0.9-2.78-2.6-2.95
		c-1.81-0.18-3.63-0.29-5.43,0.22c0.02-9.56,0.03-19.12,0.05-28.68C318.33,361.74,318.78,361.79,319.22,361.85z"/>
	<path style="fill:#BEC7E3;" d="M143.46,398.03c0.04-1.05,0.07-2.09,0.11-3.14c6.27,2.36,12.78,1.56,19.24,1.49
		c6.06-0.22,12.17,0.89,18.19-0.62c2.68,0.65,5.39,0.76,8.14,0.77c17.99,0.03,35.97,0.12,53.96,0.19c0,0.41,0,0.82,0.01,1.24
		C209.88,397.98,176.67,398.01,143.46,398.03z"/>
	<path style="fill:#BEC7E3;" d="M354.07,398.02c-1.7,0-3.43,0.2-5.09-0.05c-1.53-0.23-4.06,1.35-4.36-1.57
		c-0.36-3.52,1.51-5.39,4.87-5.41c4.18-0.03,8.37-0.07,12.55,0.03c1.22,0.03,3.61-0.73,3.18,1.45c-0.39,1.98,0.77,5.55-3.31,5.54
		C359.3,398.01,356.69,398.02,354.07,398.02z"/>
	<path style="fill:#D2DEEC;" d="M243.1,397.95c0-0.41,0-0.82-0.01-1.24c12.02-0.34,24.04-0.31,36.07,0c0,0.41-0.01,0.82-0.01,1.23
		C267.13,397.95,255.11,397.95,243.1,397.95z"/>
	<path style="fill:#D2DEEC;" d="M396.92,191.63c-4.02-0.46-8.13,0.44-12.11-0.55c0-0.4,0-0.8,0-1.2c4.05,0,8.09,0,12.13,0
		c7.75,0,15.5,0,23.26,0c0,0.58,0.01,1.17,0.01,1.75C412.46,191.63,404.69,191.63,396.92,191.63z"/>
	<path style="fill:#D2DEEC;" d="M397.73,196.18c-4.32,0-8.63,0-12.95,0c0-0.41,0-0.81,0-1.22c4.26-0.87,8.63-0.1,12.92-0.52
		c7.51,0,15.02,0,22.52,0c0.01,0.41,0.02,0.83,0.02,1.24C412.78,196.55,405.22,195.62,397.73,196.18z"/>
	<path style="fill:#FEFEFE;" d="M398.52,200.31c-4.53,0-9.06,0-13.6,0c0-0.44,0-0.87,0-1.31c4.27,0,8.55,0,12.82,0
		c7.49,0,14.98,0,22.46,0c0,0.44,0,0.87,0,1.31C412.98,200.31,405.75,200.31,398.52,200.31z"/>
	<path style="fill:#EBEEF7;" d="M359.53,339.8c0.27-17.15,0.54-34.3,0.82-51.93c2.4,1.12,2.44,2.82,2.88,4.18
		c4.58,13.99,9.1,28,13.67,42c0.62,1.9,0.63,3.85,0.73,5.79C371.6,339.82,365.56,339.81,359.53,339.8z"/>
	<path style="fill:#F9B747;" d="M351.18,288.79c-7,0.08-6.87,0.09-6.23-6.58c0.69-7.24,1.12-14.51,1.66-21.77
		c0.53-5.23,1.06-10.45,1.59-15.68c0.23-1.06,0.46-2.11,0.69-3.17c0.12,0.09,0.24,0.17,0.35,0.26c-0.28,2.83-1.16,5.74,1.67,7.98
		c0.42,0.34,0.39,1.49,0.28,2.22c-1.76,11.73-0.98,23.45,0.05,35.17C351.3,287.74,351.21,288.27,351.18,288.79z"/>
	<path style="fill:#F9B747;" d="M356.37,232.47c0.47-0.52,0.56-1.09,0.28-1.73c0.03-0.25,0.18-0.65,0.07-0.74
		c-4.78-4.17-4.78-4.17-2.44-10.52c1.45,0.04,2.9,0.07,4.35,0.11c2.95-0.06,4.53,2.71,7.16,3.44c0.95,0.26,0.29,1.66-0.29,1.84
		c-2.47,0.78-1.92,2.69-1.92,4.44c-0.01,3.86-2.98,6.18-5.7,7.09C355.47,237.21,356.65,233.97,356.37,232.47z"/>
	<path style="fill:#F47E2D;" d="M358.63,219.58c-1.45-0.04-2.9-0.07-4.35-0.11c0.25-0.93-0.17-2.6,1.03-2.56
		C356.74,216.95,358.26,217.77,358.63,219.58z"/>
	<path style="fill:#F9B747;" d="M351.86,232.37c0.57,0.1,1.15,0.2,1.72,0.3c-0.37,0.23-0.74,0.46-1.11,0.68
		c-0.19-0.2-0.38-0.4-0.57-0.6C351.93,232.62,351.92,232.49,351.86,232.37z"/>
	<path style="fill:#D2DEEC;" d="M152.75,170.26c3.34,0.52,6.89-0.66,10.11,1.35c-3.31,1.23-6.77,0.57-10.12,0.93
		c-14.62,0-29.24,0-43.86,0c0-0.76,0-1.52,0-2.27C123.5,170.26,138.12,170.26,152.75,170.26z"/>
	<path style="fill:#EBEEF7;" d="M142.55,157.28c6.72,0,13.44,0,20.16,0c0.01,0.5,0.02,1,0.03,1.5c-6.68,0.88-13.47,0.05-20.18,0.54
		c-11.2,0-22.39,0-33.59,0c0-0.68,0-1.36,0-2.03C120.17,157.28,131.36,157.28,142.55,157.28z"/>
	<path style="fill:#FBFCFD;" d="M142.57,163.8c6.71,0,13.42,0,20.13,0c0.01,0.41,0.03,0.83,0.04,1.24
		c-3.22,1.15-6.69,0.13-9.98,0.66c-14.55,0-29.11,0-43.66,0c-0.01-0.63-0.01-1.27-0.02-1.9C120.24,163.8,131.41,163.8,142.57,163.8z
		"/>
	<path style="fill:#FBFCFD;" d="M204.2,237.86c0.1-0.89,0.2-1.79,0.31-2.68c27.07,0,54.14,0.01,81.21-0.02
		c7.14-0.01,12.48,3.04,15.23,9.59c2.46,5.85,1.57,11.54-2.67,16.47c-3.2,3.72-7.41,5.29-12.18,5.29c-27.2,0-54.4-0.05-81.6-0.09
		c0.01-2.22,0.03-4.43,0.04-6.65c24.03,0,48.05,0,72.08-0.01c1.17,0,2.35-0.05,3.49-0.25c0.41-0.07,0.97-0.63,1.02-1.02
		c0.1-0.82-0.62-1.02-1.3-1.05c-0.78-0.03-1.57-0.03-2.35-0.03c-21.41,0-42.83,0.01-64.24,0.01c-0.36-4.46-0.35-8.91-0.01-13.37
		c22.07,0,44.14,0,66.21,0c0-0.5,0-1,0-1.5c-22.12,0-44.24,0-66.35,0c-2.86-0.67-5.76-0.18-8.64-0.32
		C204.36,240.78,204.28,239.32,204.2,237.86z M268.43,251.56c0-0.26,0-0.53-0.01-0.79c-16.65,0-33.3,0-49.96,0c0,0.26,0,0.53,0,0.79
		C235.13,251.56,251.78,251.56,268.43,251.56z"/>
	<path style="fill:#4E1349;" d="M204.53,259.78c-0.01,2.21-0.03,4.43-0.04,6.65c0.03,1.45,0.05,2.89,0.08,4.34
		c-0.67,0.37-0.94,0.91-0.71,1.66c0.01,2.72,0.01,5.43,0.02,8.15c-0.82,7.08-1.64,14.16-2.46,21.24c-1.8-0.06-3.6-0.11-5.41-0.17
		c-1.25-7.9-0.56-15.89-1.14-23.83c-0.07-2.28,0.53-4.62-0.61-6.81c0.01-1.42,0.02-2.83,0.04-4.25c0.49-2.95-0.01-5.88-0.1-9.92
		c-1.29,3.89-2.02,6.8-2.09,9.87c-0.21,1.45-1.17,2.78-0.75,4.34c-3.22,10.53-7.85,20.5-12.07,30.64c-0.7-0.16-1.4-0.33-2.1-0.49
		c-1.02-0.49-2.05-0.97-3.08-1.46c1.41-4.59,2.98-9.14,4.19-13.78c1.11-4.24,3.47-8.18,3.21-12.76c0.01-0.29,0.01-0.57,0.02-0.86
		c-0.01-0.43-0.01-0.86-0.02-1.29c0.01-1.52,0.02-3.05,0.03-4.57c0.11-9.73,0.22-19.47,0.32-29.2c5.19,0.63,10.38,1,15.6,0.4
		c2.24,0.06,4.48,0.11,6.72,0.17c0.08,1.46,0.16,2.93,0.24,4.39c0.02,4.6,0.05,9.2,0.07,13.8
		C204.52,257.29,204.52,258.54,204.53,259.78z"/>
	<path style="fill:#92A4CC;" d="M203.87,272.43c-0.23-0.75,0.04-1.29,0.71-1.66c19.69,0.05,39.38,0.11,59.08,0.15
		c11.22,0.02,22.43-0.02,33.65-0.03c0.9,1.1,2.15,0.72,3.27,0.72c4.68,0.03,9.35,0,14.03-0.01c2,0.04,3.68-1.04,5.53-1.55
		c3.79,1.92,7.85,0.26,11.74,0.87c0.02,0.4,0.04,0.81,0.06,1.22c-1.43,0.09-2.85,0.25-4.28,0.25
		C286.39,272.41,245.13,272.42,203.87,272.43z"/>
	<path style="fill:#BEC7E3;" d="M314.6,271.6c-4.68,0.01-9.35,0.04-14.03,0.01c-1.12-0.01-2.37,0.38-3.27-0.72
		c1.26-0.36,2.52-0.73,3.79-1.09c1.85,1.92,4.21,0.63,6.31,0.98C309.78,271.16,312.35,269.99,314.6,271.6z"/>
	<path style="fill:#FEFEFE;" d="M135.65,338.63c-0.05-2.84-0.11-5.67-0.16-8.51c0.84-3.54,0.6-7.09,0.14-10.64
		c0.45-2.45,2.4-1.54,3.76-1.54c12.29-0.06,24.59-0.04,36.88-0.04c26.81,0,53.62-0.05,80.44,0.03c8.95,0.03,15.8,6.89,15.9,15.54
		c0.09,8.41-6.74,15.78-15.25,15.8c-39.63,0.11-79.26,0.04-118.89,0.07c-1.39,0-2.62-0.01-2.96-1.71c-0.12-0.23-0.23-0.46-0.35-0.7
		c0.96-0.51,1.02-1-0.04-1.46c0.77-0.68,0.53-1.55,0.45-2.39C136.33,341.62,136.03,340.13,135.65,338.63z M172.27,327.33
		c0,4.19-0.01,8.39-0.01,12.58c-7.19,0-14.38-0.04-21.58,0.03c-1.03,0.01-2.88-0.69-2.92,0.91c-0.04,1.76,1.87,1.3,3.1,1.41
		c0.39,0.03,0.78,0.01,1.18,0.01c31.78,0,63.55,0,95.33,0c0.92,0,1.83,0.01,2.74-0.04c0.7-0.04,1.33-0.33,1.36-1.1
		c0.03-0.78-0.57-1.12-1.28-1.16c-0.91-0.05-1.83-0.05-2.74-0.05c-21.31,0-42.63,0-63.94,0c0-4.19-0.01-8.39-0.01-12.58
		c21.28,0,42.55,0.02,63.83-0.02c1.16,0,3.16,0.71,3.25-1.07c0.1-1.95-1.95-1.22-3.07-1.22c-21.41-0.03-42.81,0-64.22,0.02
		c-3.6,0-7.2,0-10.81,0c-7.54-0.02-15.09-0.08-22.63-0.03c-1.12,0.01-3.15-0.72-3.06,1.22c0.09,1.78,2.08,1.06,3.24,1.07
		C157.44,327.37,164.86,327.33,172.27,327.33z M238.59,334.07c0-0.26,0-0.52,0-0.78c-16.65,0-33.31,0-49.96,0
		c0,0.26,0.01,0.52,0.01,0.78C205.28,334.07,221.93,334.07,238.59,334.07z"/>
	<path style="fill:#443574;" d="M135.5,347.63c0.34,1.7,1.57,1.71,2.96,1.71c39.63-0.02,79.26,0.04,118.89-0.07
		c8.51-0.02,15.34-7.39,15.25-15.8c-0.09-8.64-6.95-15.51-15.9-15.54c-26.81-0.08-53.62-0.03-80.44-0.03
		c-12.29,0-24.59-0.03-36.88,0.04c-1.36,0.01-3.31-0.9-3.76,1.54c-2.24,0-4.47-0.01-6.71-0.01c-0.68-0.6-1.49-1.12-1.33-2.22
		c0.38-3.21,2.24-4.23,5.36-4.1c4.25,0.17,8.52-0.04,12.79-0.08c7.82,0.03,15.63,0.05,23.45,0.07c3.04-0.06,6.08-0.13,9.12-0.19
		c1.56,0.64,3.19,1.13,4.65,1.94c2.04,1.14,2.47-0.06,2.8-1.64c6.22-0.07,12.43-0.14,18.65-0.22c19.23,0.05,38.47,0.11,57.7,0.15
		c2.09,0,4.18-0.06,6.2,0.63c6.24,1.64,9.97,5.98,12.19,11.72c4.14,10.69,0.34,20.44-10.7,27.91c-2.57,0.54-5.17,0.64-7.8,0.64
		c-30.36,0.01-60.72,0.06-91.08,0.1c-2.61,0-5.21,0-7.82,0c-0.87-0.01-1.74-0.02-2.61-0.03c-4.12,0.36-8.35-0.96-12.37,0.84
		c-3.97-0.35-7.9-1.39-11.94-0.81c-1.03-0.03-2.07-0.07-3.1-0.08c-5.25-0.06-6.25-1.69-3.87-6.34
		C131.3,347.7,133.4,347.67,135.5,347.63z"/>
	<path style="fill:#6A75B3;" d="M135.65,338.63c0.38,1.49,0.69,2.98-0.07,4.45c-1.38,0.08-2.39-0.56-3.49-1.36
		c-3.33-2.44-6.79-4.72-10.24-6.99c-1.3-0.85-2.9-1.85-4.12-0.09c-3.04,4.43-6.72,8.5-8.24,13.84c-2.14,3.21-3.11,6.97-4.78,10.4
		c-3.67-1.78-5.67-5.31-8.42-8.05c-0.41-0.67-0.81-1.34-1.22-2c-7.91-12.57-8.96-25.78-3.46-39.49c2.99-7.45,8.21-13.22,14.43-18.16
		c5.99,9.64,11.93,19.31,17.97,28.91C127.9,326.27,131.27,332.77,135.65,338.63z"/>
	<path style="fill:#2863A6;" d="M109.48,348.49c1.52-5.34,5.2-9.41,8.24-13.84c1.21-1.77,2.82-0.77,4.12,0.09
		c3.46,2.27,6.91,4.55,10.24,6.99c1.1,0.81,2.11,1.45,3.49,1.36c0.08,0.84,0.32,1.71-0.45,2.39c-0.75,0.5-0.72,0.99,0.03,1.46
		c0.12,0.23,0.23,0.47,0.35,0.7c-2.1,0.04-4.2,0.07-6.3,0.11c-3.22,0.43-2.43,2.94-2.32,4.85c0.13,2.17,1.69,3.02,3.8,3.04
		c1.98,0.02,3.85-0.27,5.5-1.47c4.04-0.58,7.96,0.46,11.94,0.81c4.14-0.06,8.3,0.26,12.37-0.84c0.87,0.01,1.74,0.02,2.61,0.03
		c-0.57,1.91-2.43,1.72-3.79,2.24c-10.39,3.97-15.86,16.39-11.77,26.73c2.8,7.1,8.34,10.97,15.28,13.25
		c-6.46,0.08-12.97,0.88-19.24-1.49c-0.63-0.33-1.27-0.66-1.9-0.99c-3.36-2.44-6.2-5.37-8.3-8.98c-0.94-2.86-1.86-5.72-2.02-8.75
		c0.04-2.95,0.74-5.77,1.59-8.57c1.4-2.15,1-3.72-1.22-5.17c-6.07-3.98-12.01-8.15-18.04-12.18
		C112.43,349.4,111.21,348.27,109.48,348.49z"/>
	<path style="fill:#EBEEF7;" d="M106.03,291.18c-6.22,4.94-11.44,10.71-14.43,18.16c-5.5,13.71-4.45,26.92,3.46,39.49
		c0.42,0.66,0.81,1.33,1.22,2c-2.64,1.8-5.92,0.2-8.63,1.62c-12.24-16.87-10.08-43.93,4.83-60.25c2.21-2.41,4.66-4.55,7.18-6.65
		c1.89-1.58,2.83-1.11,3.77,0.81C104.24,288,105.16,289.58,106.03,291.18z"/>
	<path style="fill:#BEC7E3;" d="M87.66,352.45c2.71-1.43,5.99,0.17,8.63-1.62c2.75,2.75,4.75,6.27,8.42,8.05
		c8.22,6.78,17.81,9.1,28.24,8.72c-0.86,2.8-1.56,5.62-1.59,8.57C112.58,376.01,97.8,368.51,87.66,352.45z"/>
	<path style="fill:#6A75B3;" d="M145.73,313.06c-4.26,0.05-8.53,0.26-12.79,0.08c-3.12-0.13-4.98,0.89-5.36,4.1
		c-4.82-7.87-9.64-15.74-14.47-23.61c1.81-0.29,3.33,0.4,4.68,1.5c4.16,3.35,9.09,5.56,12.65,9.93c1.82,2.23,5.7,2.79,8.68,4.05
		C141.52,310.12,143.83,311.24,145.73,313.06z"/>
	<path style="fill:#6A75B3;" d="M128.92,319.46c2.24,0,4.47,0.01,6.71,0.01c0.46,3.55,0.7,7.11-0.14,10.64
		C132.85,326.84,130.79,323.21,128.92,319.46z"/>
	<path style="fill:#BEC7E3;" d="M133.37,384.92c2.1,3.61,4.94,6.54,8.3,8.98C131.68,393.97,133.17,395.95,133.37,384.92z"/>
	<path style="fill:#EBEEF7;" d="M373.85,244.01c1.61,1.03,3.08,2.01,4.59,2.92c1.27,0.77,1.64,1.61,0.42,2.71
		c-1.13,1.01-1.87,3.09-3.4,2.82c-1.43-0.26-1.07-2.38-1.48-3.69C373.53,247.33,373.02,245.87,373.85,244.01z"/>
	<path style="fill:#BEC7E3;" d="M181.52,273.2c0.25,4.58-2.1,8.52-3.21,12.76c-1.21,4.64-2.78,9.19-4.19,13.78
		c-1.1,1.66-2.19,3.31-3.29,4.97C162.09,293.16,167.9,276.05,181.52,273.2z"/>
	<path style="fill:#EBEEF7;" d="M185.75,313.24c-0.32,1.58-0.75,2.77-2.8,1.64c-1.46-0.81-3.09-1.3-4.65-1.94
		c-2.45-1.3-4.92-2.58-7.36-3.9c-0.95-0.51-2.38-0.93-0.86-2.37c1.82,0.8,3.64,1.6,5.46,2.4c2.31,1.29,4.59,3.51,7.02,0.17
		C184.13,310.17,185.51,311.26,185.75,313.24z"/>
	<path style="fill:#F47E2D;" d="M175.55,309.07c-1.82-0.8-3.64-1.6-5.46-2.4c0.25-0.65,0.5-1.31,0.74-1.96
		c1.1-1.66,2.19-3.31,3.29-4.97c1.03,0.49,2.05,0.97,3.07,1.46C176.02,303.69,175.05,306.23,175.55,309.07z"/>
	<path style="fill:#D2DEEC;" d="M348.9,241.59c-0.23,1.06-0.46,2.11-0.69,3.17c-1.06-2-2.11-3.99-3.17-5.99
		C346.93,238.88,349.06,238.67,348.9,241.59z"/>
	<path style="fill:#EBEEF7;" d="M213.21,211.66c0.26,0.06,0.52,0.12,0.79,0.18c0.4,0.72,0.07,1.5-0.47,1.67
		c-3.64,1.17-3.21,4.27-3.47,7.05c-2.1-3.49-5.2-0.04-7.65-1.1c-0.27-2.7-0.54-5.41-0.81-8.11c3.37-0.79,6.69,0.72,10.05,0.22
		C212.17,211.6,212.69,211.63,213.21,211.66z"/>
	<path style="fill:#F16433;" d="M266.33,190.69c0.07,2.33,0.14,4.67,0.21,7c-4.21,0.01-8.41,0.01-12.62,0.02
		c0.06-2.34,0.13-4.68,0.19-7.02C258.18,190.69,262.25,190.69,266.33,190.69z"/>
	<path style="fill:#EBEEF7;" d="M267.44,201.49c1.67,0.04,3.35,0.05,5.02,0.14c0.7,0.04,1.8-0.26,1.87,0.78
		c0.08,1.17-1.07,1.3-1.93,1.35c-2.44,0.13-4.89,0.16-7.34,0.23c-5.09-0.05-10.19-0.09-15.28-0.18c-0.98-0.02-2.41,0.18-2.27-1.34
		c0.12-1.23,1.45-0.82,2.29-0.83C255.68,201.56,261.56,201.54,267.44,201.49z"/>
	<path style="fill:#EBEEF7;" d="M265.09,206.25c2.61,0.05,5.22,0.09,7.83,0.16c0.66,0.02,1.42,0.11,1.51,0.91
		c0.12,1.06-0.73,1.24-1.53,1.27c-2.61,0.09-5.22,0.13-7.83,0.19c-5.09-0.06-10.17-0.11-15.26-0.17c-0.91-0.01-2.14,0.04-2.14-1.12
		c0-1.19,1.26-1.07,2.15-1.08C254.92,206.34,260.01,206.3,265.09,206.25z"/>
	<path style="fill:#EBEEF7;" d="M265.07,211.08c2.34,0.06,4.68,0.12,7.02,0.18c0.95,0.03,2.12,0.21,2.14,1.22
		c0.03,1.34-1.32,0.89-2.12,0.92c-2.86,0.11-5.72,0.13-8.58,0.18c-4.56-0.05-9.11-0.1-13.67-0.17c-0.87-0.01-2.14,0.17-2.15-1.05
		c-0.01-1.18,1.23-1.1,2.13-1.11C254.92,211.18,260,211.13,265.07,211.08z"/>
	<path style="fill:#D2DEEC;" d="M351.86,232.37c0.06,0.13,0.07,0.26,0.04,0.39c-3.37-0.1-6.55-1.16-9.79-1.93
		c-0.89-0.21-1.37-0.64-1.2-1.6C344.66,229.92,348.29,231.03,351.86,232.37z"/>
	<path style="fill:#F47E2D;" d="M266.33,190.69c-4.07,0-8.15,0-12.22,0c-0.04-11.75-0.11-23.5-0.12-35.25c0-2.6,4.77-5.8,7.36-4.79
		c2.98,1.16,5.52,2.26,5.3,6.76C266.11,168.48,266.38,179.59,266.33,190.69z"/>
	<path style="fill:#F47E2D;" d="M248.8,150.74c-3.85-0.33-7.4-3.42-7.21-6.21c0.14-2.06,1.3-3.43,3.45-3.45
		c2.05-0.02,6.08,6.09,5.84,8.56C250.71,151.43,249.42,150.57,248.8,150.74z"/>
	<path style="fill:#F16433;" d="M271.28,150.74c-0.77-0.01-1.87,0.35-1.73-1.46c0.23-2.97,3.72-8.26,5.76-8.2
		c2.21,0.07,3.25,1.53,3.32,3.59C278.73,147.54,275.06,150.6,271.28,150.74z"/>
	<path style="fill:#F47E2D;" d="M262.84,140.65c-0.31,2.55,0.14,6.01-2.64,5.99c-2.72-0.03-2.37-3.51-2.4-5.73
		c-0.03-2.15-0.1-5.49,2.28-5.54C263.02,135.31,262.3,138.81,262.84,140.65z"/>
	<path style="fill:#FEFEFE;" d="M201.42,301.81c0.82-7.08,1.64-14.16,2.46-21.24c3.97-2.87,8.37-3.82,13.27-3.69
		c8.74,0.24,17.5,0.07,26.25,0.07c29.38,0,58.77-0.01,88.15,0.02c1.55,0,3.54-0.76,4.18,1.67c-0.01,9.28-0.02,18.57-0.03,27.85
		c-0.6,2.78-2.85,1.77-4.47,1.77c-38.26,0.05-76.53,0.04-114.79,0.04c-1.7,0-3.4,0.11-5.04-0.5c-0.48-0.22-1.12-0.24-1.06,0.34
		c0.05,0.43,0.76,0.77,1.18,1.16c0.9,0.87,1,1.95,0.81,3.1c-2.57,0.02-5.14,0.04-7.71,0.07c-2.34-0.02-4.68-0.05-7.02-0.07
		c-1.2-0.01-2.45,0.06-2.41-1.7c2.71,0.02,5.46-0.19,8.13,0.14c2.61,0.32,3.74-0.78,4.25-3.07c0.07-0.37,1.88-0.02,0.54-0.78
		c-2.52-1.42-4.5-3.42-6.67-5.23L201.42,301.81z M298.99,285.72c8.41,0,16.82,0,25.23,0c0-0.52,0-1.04,0-1.57
		c-8.47,0-16.93,0-25.4,0c-3.64,0.01-7.28,0.01-10.93,0.02c-22.36,0-44.71,0-67.07,0c0,0.51,0.01,1.03,0.01,1.54
		c22.3,0,44.6,0,66.9,0c0,4.45,0,8.9,0.01,13.35c-21.58,0-43.15-0.02-64.73,0.03c-1.16,0-3.19-0.69-3.19,1.14
		c-0.01,1.84,2.02,0.96,3.18,1.18c0.38,0.07,0.78,0.01,1.17,0.01c31.51,0,63.03,0,94.54,0c0.78,0,1.57,0.01,2.35-0.01
		c1.06-0.03,2.46-0.07,2.41-1.36c-0.06-1.51-1.61-0.95-2.53-0.96c-7.32-0.05-14.65-0.02-21.97-0.02
		C298.98,294.61,298.98,290.17,298.99,285.72z M282.56,293.22c0-0.26,0-0.53,0-0.79c-16.65,0-33.31,0-49.96,0
		c0,0.26,0,0.53,0.01,0.79C249.26,293.22,265.91,293.22,282.56,293.22z"/>
	<path style="fill:#2863A6;" d="M279.16,396.72c-12.02-0.31-24.04-0.34-36.07,0c-17.99-0.07-35.97-0.15-53.96-0.19
		c-2.75-0.01-5.46-0.12-8.14-0.77c-0.37-0.34-0.69-0.76-1.11-1.01c-8.65-5.27-12.23-14.39-10.04-24.47
		c1.54-7.07,6.13-11.4,11.93-14.91c2.34-0.16,4.68-0.47,7.02-0.47c43.64-0.03,87.29-0.02,130.93-0.02c0.78,0,1.57-0.01,2.35,0.01
		c2.12,0.06,3.51,1.02,3.68,3.23c0.17,2.13-1.25,3.03-3.04,3.41c-1.14,0.24-2.33,0.22-3.49,0.32c-0.45-0.06-0.89-0.11-1.34-0.17
		c-0.15-3.22-2.64-1.91-4.12-1.91c-39-0.07-78-0.06-117.01-0.05c-0.92,0-1.84-0.04-2.75,0.04c-9,0.8-15.44,7.68-15.29,16.31
		c0.15,8.4,6.99,15.59,15.53,15.62c40.31,0.11,80.62,0.06,120.93,0.04c1.05,0,2.52,0.53,2.65-1.37c1.79-0.51,3.62-0.4,5.43-0.22
		c1.71,0.17,2.52,1.44,2.6,2.95c0.09,1.72-0.78,3.05-2.62,3.32c-1.15,0.17-2.34,0.1-3.51,0.11
		C306.21,396.58,292.68,396.65,279.16,396.72z"/>
	<path style="fill:#92A4CC;" d="M181.78,355.37c-5.79,3.52-10.39,7.84-11.93,14.91c-2.19,10.07,1.39,19.19,10.04,24.47
		c0.42,0.26,0.74,0.67,1.11,1.01c-6.02,1.51-12.12,0.4-18.19,0.62c-6.94-2.28-12.48-6.15-15.28-13.25
		c-4.08-10.34,1.38-22.76,11.77-26.73c1.36-0.52,3.22-0.33,3.79-2.24c2.61,0,5.22,0,7.82,0
		C174.38,355.99,178.28,353.83,181.78,355.37z"/>
	<path style="fill:#B8ABCF;" d="M269.79,353.43c11.04-7.47,14.84-17.22,10.7-27.91c-2.22-5.73-5.94-10.08-12.19-11.71
		c0.05-0.35,0.09-0.7,0.14-1.05c6.46,0.14,12.92,0.28,19.39,0.42c0.3,0.19,0.61,0.38,0.91,0.56c15.58,4.13,21.07,21.65,10.56,33.65
		c-3.04,3.47-7.15,5.04-11.31,6.53C281.92,353.83,275.83,354.71,269.79,353.43z"/>
	<path style="fill:#2863A6;" d="M335.73,278.65c-0.64-2.43-2.63-1.67-4.18-1.67c-29.38-0.03-58.77-0.02-88.15-0.02
		c-8.75,0-17.5,0.17-26.25-0.07c-4.9-0.13-9.3,0.82-13.27,3.69c-0.01-2.72-0.01-5.43-0.02-8.15c41.26-0.01,82.52-0.01,123.78-0.03
		c1.43,0,2.85-0.16,4.28-0.25c2.6,0.01,5.21,0.02,7.81,0.04c2.15,0.02,3.64,1.06,3.56,3.23c-0.08,2.05-1.45,3.25-3.66,3.21
		C338.34,278.6,337.03,278.64,335.73,278.65z"/>
	<path style="fill:#443574;" d="M287.99,353.93c4.17-1.49,8.28-3.06,11.31-6.53c10.51-12,5.01-29.52-10.56-33.65
		c0-0.19-0.04-0.37-0.11-0.54l-0.02,0.01c5,0.13,10.04-0.51,15,0.67c9.91,2.54,16.5,11.72,15.44,21.5
		c-1.15,10.62-9.62,18.5-20.12,18.64C295.28,354.08,291.64,353.97,287.99,353.93z"/>
	<path style="fill:#2863A6;" d="M287.83,313.19c-6.46-0.14-12.92-0.28-19.39-0.43c-1.43-0.11-2.86-0.3-4.28-0.3
		c-17.27-0.03-34.54-0.04-51.82-0.05c0.19-1.15,0.09-2.23-0.81-3.1c-0.04-0.5-0.08-1-0.13-1.5c1.63,0.61,3.34,0.5,5.04,0.5
		c38.26,0,76.53,0.01,114.79-0.04c1.61,0,3.86,1.01,4.47-1.77c1.56,0.03,3.13-0.05,4.67,0.11c1.77,0.18,2.93,1.31,2.95,3.06
		c0.02,1.74-1.11,2.9-2.83,3.23c-1.01,0.19-2.07,0.13-3.11,0.13c-11.3,0.01-22.61,0.02-33.91,0.03c-4.97-0.97-9.93-1.18-14.88,0.15
		c0,0,0.02-0.01,0.02-0.01C288.36,313.2,288.1,313.19,287.83,313.19z"/>
	<path style="fill:#6A75B3;" d="M288.61,313.22c4.95-1.33,9.91-1.12,14.88-0.15c0.04,0.27,0.08,0.55,0.12,0.82
		C298.65,312.71,293.61,313.35,288.61,313.22z"/>
	<path style="fill:#FBFCFD;" d="M317.84,390.36c-0.14,1.89-1.6,1.37-2.65,1.37c-40.31,0.02-80.62,0.07-120.93-0.04
		c-8.54-0.02-15.39-7.22-15.53-15.62c-0.15-8.63,6.29-15.52,15.29-16.31c0.91-0.08,1.83-0.04,2.75-0.04c39,0,78-0.02,117.01,0.05
		c1.48,0,3.97-1.3,4.12,1.91C317.87,371.24,317.85,380.8,317.84,390.36z M269.6,367.35c-22.8,0-45.6,0-68.4,0c0,0.54,0,1.08,0,1.62
		c22.75,0,45.5,0,68.25,0c0.38,4.45,0.38,8.89,0,13.34c-22.09,0-44.18-0.01-66.27,0.04c-1.09,0-3.1-0.78-2.97,1.31
		c0.1,1.56,1.89,0.98,2.96,0.98c33.2,0.03,66.4,0.03,99.6,0c1.06,0,2.82,0.51,2.82-1.16c0-1.67-1.76-1.14-2.82-1.15
		c-7.32-0.04-14.64-0.02-21.96-0.02c0-4.45,0-8.91,0-13.36c8.7,0,17.4,0,26.11,0c0-0.52,0-1.03,0-1.55c-8.74,0-17.47,0-26.21,0
		C277.01,367.4,273.3,367.37,269.6,367.35z M263.72,376.55c0-0.25,0-0.5-0.01-0.75c-16.91,0-33.82,0-50.73,0
		c0,0.25,0.01,0.5,0.01,0.75C229.9,376.55,246.81,376.55,263.72,376.55z"/>
	<path style="fill:#EBEEF7;" d="M204.53,259.78c-0.01-1.25-0.02-2.49-0.02-3.74c2.04-3.06,3.93-2.89,5.79,0.2
		c0.45,0.75,1.07,1.47,1.77,2c0.89,0.67,0.93-0.3,1.17-0.81c21.41,0,42.83-0.01,64.24-0.01c0.78,0,1.57-0.01,2.35,0.03
		c0.68,0.03,1.41,0.23,1.3,1.05c-0.05,0.39-0.62,0.95-1.02,1.02c-1.14,0.2-2.32,0.25-3.49,0.25
		C252.59,259.79,228.56,259.78,204.53,259.78z"/>
	<path style="fill:#F47E2D;" d="M213.23,257.44c-0.24,0.51-0.28,1.48-1.17,0.81c-0.7-0.53-1.32-1.25-1.77-2
		c-1.86-3.09-3.75-3.26-5.79-0.2c-0.02-4.6-0.05-9.2-0.07-13.8c2.88,0.14,5.78-0.34,8.64,0.32c0.05,0.5,0.1,1,0.15,1.5
		C212.88,248.53,212.87,252.98,213.23,257.44z"/>
	<path style="fill:#EBEEF7;" d="M213.22,244.07c-0.05-0.5-0.1-1-0.15-1.5c22.12,0,44.24,0,66.35,0c0,0.5,0,1,0,1.5
		C257.37,244.07,235.3,244.07,213.22,244.07z"/>
	<path style="fill:#EBEEF7;" d="M268.43,251.56c-16.65,0-33.31,0-49.96,0c0-0.26,0-0.53,0-0.79c16.65,0,33.3,0,49.96,0
		C268.43,251.03,268.43,251.3,268.43,251.56z"/>
	<path style="fill:#BEC7E3;" d="M195.21,310.7c-0.04,1.76,1.21,1.69,2.41,1.7c2.34,0.02,4.68,0.05,7.02,0.07
		c-0.08,0.18-0.16,0.37-0.23,0.55c-6.22,0.07-12.43,0.14-18.65,0.22c-0.24-1.99-1.62-3.07-3.19-4c-2.93-1.72-3.55-4.44-3.27-7.55
		c4.22-10.13,8.85-20.11,12.07-30.64c0.97-0.01,1.94-0.03,2.9-0.04c1.14,2.18,0.54,4.53,0.61,6.81c-7.53,9.15-7.4,21.66,0.31,29.57
		C195.19,308.49,195.2,309.59,195.21,310.7z"/>
	<path style="fill:#2863A6;" d="M195.19,307.39c-7.71-7.91-7.84-20.42-0.31-29.57c0.58,7.93-0.11,15.93,1.14,23.83
		C195.74,303.56,195.46,305.47,195.19,307.39z"/>
	<path style="fill:#F47E2D;" d="M195.19,307.39c0.28-1.91,0.56-3.83,0.83-5.74c1.8,0.06,3.6,0.11,5.41,0.17c0,0,0.04-0.04,0.04-0.04
		c0.32,3.76,2.7,5.42,6.13,6.01c-0.51,2.28-1.64,3.39-4.25,3.07c-2.68-0.33-5.42-0.12-8.13-0.14
		C195.2,309.59,195.19,308.49,195.19,307.39z"/>
	<path style="fill:#F16433;" d="M179.29,301.69c-0.28,3.11,0.34,5.83,3.27,7.55c-2.42,3.34-4.71,1.12-7.02-0.17
		c-0.5-2.84,0.47-5.37,1.64-7.87C177.89,301.36,178.59,301.53,179.29,301.69z"/>
	<path style="fill:#BEC7E3;" d="M192.11,266.71c0.07-3.07,0.8-5.98,2.09-9.87c0.09,4.04,0.59,6.97,0.1,9.92
		C193.57,266.74,192.84,266.73,192.11,266.71z"/>
	<path style="fill:#443574;" d="M192.11,266.71c0.73,0.02,1.46,0.03,2.19,0.05c-0.01,1.42-0.02,2.83-0.04,4.25
		c-0.97,0.01-1.94,0.03-2.9,0.04C190.94,269.49,191.9,268.16,192.11,266.71z"/>
	<path style="fill:#EBEEF7;" d="M183.5,339.91c21.31,0,42.63,0,63.94,0c0.91,0,1.83,0,2.74,0.05c0.71,0.04,1.31,0.38,1.28,1.16
		c-0.03,0.78-0.66,1.07-1.36,1.1c-0.91,0.05-1.83,0.04-2.74,0.04c-31.78,0-63.55,0-95.33,0c-0.39,0-0.79,0.03-1.18-0.01
		c-1.23-0.11-3.14,0.35-3.1-1.41c0.03-1.6,1.88-0.9,2.92-0.91c7.19-0.06,14.38-0.03,21.58-0.03c0.84,3.49,1.6-0.55,2.4-0.02
		c2.12,0.01,4.24,0.01,6.35,0.02C181.84,339.47,182.67,343.45,183.5,339.91z"/>
	<path style="fill:#EBEEF7;" d="M183.28,325.04c21.41-0.02,42.81-0.05,64.22-0.02c1.12,0,3.17-0.73,3.07,1.22
		c-0.09,1.78-2.09,1.07-3.25,1.07c-21.28,0.04-42.55,0.03-63.83,0.02C183.42,326.56,183.35,325.8,183.28,325.04z"/>
	<path style="fill:#F47E2D;" d="M183.28,325.04c0.07,0.76,0.14,1.53,0.21,2.29c0,4.19,0.01,8.39,0.01,12.58
		c-0.84,3.54-1.66-0.43-2.49,0c-3.31-4.96-3.31-4.96-6.35-0.02c-0.81-0.52-1.56,3.52-2.4,0.02c0-4.19,0.01-8.39,0.01-12.58
		c0.07-0.76,0.14-1.52,0.21-2.29C176.08,325.04,179.68,325.04,183.28,325.04z"/>
	<path style="fill:#EBEEF7;" d="M238.59,334.07c-16.65,0-33.3,0-49.95,0c0-0.26-0.01-0.52-0.01-0.78c16.65,0,33.31,0,49.96,0
		C238.58,333.54,238.58,333.81,238.59,334.07z"/>
	<path style="fill:#EBEEF7;" d="M172.48,325.04c-0.07,0.76-0.14,1.52-0.21,2.29c-7.41,0-14.83,0.04-22.24-0.02
		c-1.16-0.01-3.15,0.71-3.24-1.07c-0.1-1.95,1.94-1.21,3.06-1.22C157.39,324.96,164.93,325.02,172.48,325.04z"/>
	<path style="fill:#6A75B3;" d="M135.16,346.93c-0.75-0.47-0.78-0.95-0.03-1.46C136.18,345.94,136.12,346.42,135.16,346.93z"/>
	<path style="fill:#6A75B3;" d="M204.4,313.03c0.07-0.19,0.15-0.37,0.23-0.55c2.57-0.02,5.14-0.04,7.71-0.07
		c17.27,0.01,34.54,0.02,51.82,0.05c1.43,0,2.85,0.19,4.28,0.3c-0.05,0.35-0.09,0.7-0.14,1.05c-2.02-0.69-4.11-0.63-6.2-0.63
		C242.87,313.14,223.64,313.08,204.4,313.03z"/>
	<path style="fill:#6A75B3;" d="M136.17,354.16c-1.64,1.2-3.51,1.49-5.5,1.47c-2.11-0.02-3.67-0.87-3.8-3.04
		c-0.11-1.91-0.9-4.42,2.32-4.85c-2.38,4.65-1.38,6.29,3.87,6.34C134.1,354.09,135.14,354.14,136.17,354.16z"/>
	<path style="fill:#6A75B3;" d="M160.48,354.13c-4.07,1.1-8.23,0.78-12.37,0.84C152.13,353.17,156.36,354.49,160.48,354.13z"/>
	<path style="fill:#443574;" d="M132.94,367.6c-10.43,0.37-20.02-1.94-28.24-8.72c1.67-3.43,2.63-7.18,4.78-10.4
		c1.73-0.21,2.95,0.92,4.21,1.76c6.03,4.03,11.97,8.2,18.04,12.18C133.95,363.89,134.35,365.45,132.94,367.6z"/>
	<path style="fill:#EBEEF7;" d="M298.98,299.06c7.32,0,14.65-0.02,21.97,0.02c0.92,0.01,2.47-0.56,2.53,0.96
		c0.05,1.29-1.35,1.33-2.41,1.36c-0.78,0.02-1.57,0.01-2.35,0.01c-31.51,0-63.03,0-94.54,0c-0.39,0-0.8,0.06-1.17-0.01
		c-1.16-0.21-3.19,0.66-3.18-1.18c0.01-1.83,2.03-1.14,3.19-1.14c21.58-0.04,43.15-0.03,64.73-0.03c2.09,2.04,2.59-0.67,3.03-1.38
		c2.09-3.36,3.72-2.69,5.48,0.17c0.47,0.76,0.97,1.59,1.66,2.09C298.89,300.65,298.69,299.46,298.98,299.06z"/>
	<path style="fill:#F9B747;" d="M298.98,299.06c-0.29,0.4-0.09,1.59-1.06,0.89c-0.7-0.5-1.2-1.33-1.66-2.09
		c-1.76-2.87-3.39-3.53-5.48-0.17c-0.44,0.71-0.94,3.42-3.03,1.38c0-4.45,0-8.9-0.01-13.35c0.05-0.51,0.1-1.03,0.15-1.54
		c3.64-0.01,7.28-0.01,10.93-0.02c0.06,0.52,0.11,1.04,0.17,1.57C298.98,290.17,298.98,294.61,298.98,299.06z"/>
	<path style="fill:#EBEEF7;" d="M287.89,284.17c-0.05,0.51-0.1,1.03-0.15,1.54c-22.3,0-44.6,0-66.9,0c0-0.51-0.01-1.03-0.01-1.54
		C243.18,284.17,265.53,284.17,287.89,284.17z"/>
	<path style="fill:#EBEEF7;" d="M282.56,293.22c-16.65,0-33.3,0-49.96,0c0-0.26,0-0.53-0.01-0.79c16.65,0,33.31,0,49.96,0
		C282.56,292.69,282.56,292.96,282.56,293.22z"/>
	<path style="fill:#EBEEF7;" d="M298.99,285.72c-0.06-0.52-0.11-1.04-0.17-1.57c8.47,0,16.93,0,25.4,0c0,0.52,0,1.04,0,1.57
		C315.81,285.72,307.4,285.72,298.99,285.72z"/>
	<path style="fill:#6A75B3;" d="M207.59,307.77c-3.43-0.59-5.81-2.25-6.13-6.01c2.17,1.81,4.16,3.81,6.67,5.23
		C209.47,307.75,207.66,307.4,207.59,307.77z"/>
	<path style="fill:#BEC7E3;" d="M211.41,307.81c0.04,0.5,0.08,1,0.13,1.5c-0.42-0.38-1.13-0.73-1.18-1.16
		C210.29,307.56,210.93,307.59,211.41,307.81z"/>
	<path style="fill:#6A75B3;" d="M287.83,313.19c0.27,0.01,0.53,0.02,0.8,0.02c0.07,0.17,0.11,0.35,0.11,0.54
		C288.44,313.56,288.14,313.37,287.83,313.19z"/>
	<path style="fill:#EBEEF7;" d="M280.81,382.33c7.32,0,14.64-0.03,21.96,0.02c1.06,0.01,2.82-0.52,2.82,1.15
		c0,1.67-1.76,1.16-2.82,1.16c-33.2,0.03-66.4,0.03-99.6,0c-1.06,0-2.85,0.59-2.96-0.98c-0.14-2.09,1.88-1.31,2.97-1.31
		c22.09-0.05,44.18-0.04,66.27-0.04c0.89,2.75,1.58-0.11,2.38-0.08c2.23,0.02,4.45,0.03,6.68,0.05
		C279.28,382.08,279.99,385.11,280.81,382.33z"/>
	<path style="fill:#F9B747;" d="M271.83,382.24c-0.8-0.03-1.49,2.83-2.38,0.08c0.38-4.45,0.38-8.89,0-13.34
		c0.05-0.54,0.1-1.08,0.15-1.62c3.7,0.02,7.41,0.04,11.11,0.06c0.03,0.52,0.07,1.03,0.1,1.55c0,4.45,0,8.91,0,13.36
		c-0.82,2.79-1.53-0.24-2.3-0.04C275.35,377.16,275.14,377.16,271.83,382.24z"/>
	<path style="fill:#EBEEF7;" d="M269.6,367.35c-0.05,0.54-0.1,1.08-0.15,1.62c-22.75,0-45.5,0-68.25,0c0-0.54,0-1.08,0-1.62
		C224,367.35,246.8,367.35,269.6,367.35z"/>
	<path style="fill:#EBEEF7;" d="M263.72,376.55c-16.91,0-33.81,0-50.72,0c0-0.25-0.01-0.5-0.01-0.75c16.91,0,33.82,0,50.73,0
		C263.71,376.05,263.71,376.3,263.72,376.55z"/>
	<path style="fill:#EBEEF7;" d="M280.81,368.96c-0.03-0.52-0.07-1.03-0.1-1.55c8.74,0,17.47,0,26.21,0c0,0.52,0,1.03,0,1.55
		C298.22,368.96,289.52,368.96,280.81,368.96z"/>
	<path style="fill:#FBFCFD;" d="M174.66,339.88c3.04-4.94,3.04-4.94,6.35,0.02C178.89,339.9,176.77,339.89,174.66,339.88z"/>
	<path style="fill:#FBFCFD;" d="M271.83,382.24c3.31-5.08,3.52-5.08,6.68,0.05C276.28,382.27,274.06,382.25,271.83,382.24z"/>
</g>
</svg>
