<?xml version="1.0" encoding="utf-8"?>
<!-- Generator: Adobe Illustrator 25.3.0, SVG Export Plug-In . SVG Version: 6.00 Build 0)  -->
<svg version="1.1" id="Layer_1" xmlns="http://www.w3.org/2000/svg" xmlns:xlink="http://www.w3.org/1999/xlink" x="0px" y="0px"
	 viewBox="0 0 1050 450" style="enable-background:new 0 0 1050 450;" xml:space="preserve">
<style type="text/css">
	.st0{display:none;}
	.st1{display:inline;fill:#FFFFFF;}
	.st2{opacity:0.55;fill:#9881B7;enable-background:new    ;}
	.st3{fill:#FFFFFF;}
	.st4{fill:#868989;}
	.st5{fill:#292C3D;}
	.st6{fill:#0254E4;}
	.st7{opacity:0.65;fill:#00A1CC;enable-background:new    ;}
	.st8{fill:#F9A57E;}
	.st9{fill:#E76F59;}
	.st10{fill:#E8A393;}
	.st11{fill:#4D505E;}
	.st12{fill:#3D3848;}
	.st13{opacity:0.32;fill:#CA0045;enable-background:new    ;}
	.st14{fill:#DA395B;}
	.st15{fill:#FF4C6B;}
	.st16{fill:#D8D8D8;}
	.st17{fill:#AFEAF0;}
	.st18{fill:#7695A8;}
	.st19{fill:#5AC4E0;}
	.st20{fill:#273137;}
	.st21{fill:#F8F2ED;}
	.st22{fill:#48525B;}
	.st23{fill:#B6B6B6;}
	.st24{fill:#FFF9FD;}
	.st25{fill:#8494AB;}
	.st26{fill:#B3B2DA;}
</style>
<g id="EDUCATION" class="st0">
	<path class="st1" d="M120.35,317.39V175.55h66.39v23.27h-31.65v31.65h23.61v24.12h-23.61v39.61h32v23.18h-66.74V317.39z"/>
	<path class="st1" d="M200.85,317.39V175.55h37.38c9.75,0,17.78,0.81,24.08,2.44s11.34,4.32,15.1,8.08s6.4,8.4,7.91,13.9
		s2.27,12.45,2.27,20.83v51.16c0,8.44-0.76,15.41-2.27,20.92c-1.51,5.5-4.15,10.15-7.91,13.94s-8.8,6.5-15.1,8.13
		c-6.3,1.63-14.3,2.44-24,2.44H200.85z M235.59,293.44h3.25c2.96,0,5.32-0.24,7.06-0.73c1.74-0.48,3.05-1.35,3.94-2.61
		c0.88-1.25,1.45-2.64,1.71-4.15c0.26-1.51,0.38-3.64,0.38-6.37v-66.56c0-2.74-0.13-4.85-0.38-6.33c-0.26-1.48-0.83-2.82-1.71-4.02
		c-0.89-1.2-2.2-2.02-3.94-2.48c-1.74-0.46-4.09-0.68-7.06-0.68h-3.25V293.44z"/>
	<path class="st1" d="M348.77,319.62c-8.21,0-15.11-0.93-20.7-2.78c-5.59-1.85-10.04-4.73-13.35-8.64s-5.66-8.57-7.06-13.99
		c-1.4-5.42-2.1-11.98-2.1-19.68v-98.98h34.56v104.8c0,1.94,0.08,3.59,0.26,4.96c0.17,1.37,0.51,2.87,1.03,4.49
		c0.51,1.63,1.4,2.88,2.65,3.76s2.82,1.33,4.71,1.33c1.88,0,3.45-0.44,4.7-1.33c1.25-0.88,2.14-2.14,2.65-3.76
		c0.51-1.62,0.84-3.12,0.98-4.49s0.21-3.02,0.21-4.96v-104.8h34.65v98.98c0,7.7-0.71,14.26-2.14,19.68
		c-1.43,5.42-3.78,10.08-7.06,13.99s-7.73,6.79-13.35,8.64C363.81,318.69,356.92,319.62,348.77,319.62z"/>
	<path class="st1" d="M453.82,319.62c-8.1,0-15.01-1.07-20.75-3.21c-5.73-2.14-10.27-5.32-13.6-9.54c-3.34-4.22-5.76-9.15-7.27-14.8
		c-1.51-5.65-2.27-12.29-2.27-19.93V220.9c0-7.7,0.76-14.37,2.27-20.02c1.51-5.65,3.93-10.58,7.27-14.8s7.87-7.4,13.6-9.54
		s12.65-3.21,20.75-3.21c6.44,0,12.12,0.67,17.02,2.01s8.94,3.19,12.11,5.56c3.17,2.37,5.75,5.3,7.74,8.81
		c2,3.51,3.41,7.26,4.23,11.25c0.83,3.99,1.24,8.44,1.24,13.35v12.75h-34.13v-15.57c0-2.05-0.06-3.69-0.17-4.92
		c-0.12-1.23-0.42-2.65-0.9-4.28c-0.49-1.62-1.33-2.85-2.52-3.68c-1.2-0.83-2.74-1.24-4.62-1.24c-1.54,0-2.87,0.31-3.98,0.94
		c-1.11,0.63-1.96,1.37-2.52,2.22c-0.57,0.86-1.01,2-1.33,3.42c-0.31,1.43-0.51,2.68-0.6,3.76c-0.08,1.08-0.13,2.37-0.13,3.85v69.81
		c0,1.48,0.04,2.78,0.13,3.89c0.09,1.11,0.3,2.37,0.64,3.76c0.34,1.4,0.8,2.54,1.37,3.42s1.41,1.62,2.52,2.22s2.41,0.9,3.89,0.9
		c1.88,0,3.42-0.41,4.62-1.24c1.2-0.83,2.04-2.07,2.52-3.72c0.48-1.65,0.78-3.09,0.9-4.32c0.11-1.23,0.17-2.87,0.17-4.92v-16.25
		h34.13v12.66c0,4.96-0.41,9.45-1.24,13.47s-2.24,7.83-4.23,11.42c-2,3.59-4.58,6.6-7.74,9.03c-3.17,2.42-7.2,4.35-12.11,5.78
		C465.94,318.9,460.27,319.62,453.82,319.62z"/>
	<path class="st1" d="M506.35,317.39l25.75-141.84h40.38l25.49,141.84h-31.74l-4.45-28.32h-18.39l-4.28,28.32H506.35z
		 M546.13,269.06h12.75l-6.42-52.95L546.13,269.06z"/>
	<path class="st1" d="M622.18,317.39V201.22h-20.7v-25.66h76.05v25.66h-20.62V317.4L622.18,317.39L622.18,317.39z"/>
	<path class="st1" d="M690.19,317.39V175.55h34.65v141.84H690.19z"/>
	<path class="st1" d="M808.3,316.49c-5.73,2.08-12.65,3.12-20.75,3.12s-15-1.04-20.7-3.12s-10.24-5.19-13.6-9.32
		c-3.37-4.13-5.79-9.01-7.27-14.63c-1.48-5.62-2.22-12.25-2.22-19.89v-52.36c0-7.64,0.74-14.27,2.22-19.89s3.91-10.49,7.27-14.63
		c3.36-4.13,7.9-7.24,13.6-9.32c5.7-2.08,12.6-3.12,20.7-3.12c8.1,0,15.01,1.04,20.75,3.12c5.73,2.08,10.29,5.19,13.69,9.32
		c3.39,4.14,5.85,9.01,7.36,14.63c1.51,5.62,2.27,12.25,2.27,19.89v52.36c0,7.64-0.76,14.27-2.27,19.89
		c-1.51,5.62-3.96,10.49-7.36,14.63C818.59,311.3,814.03,314.41,808.3,316.49z M787.55,295.58c1.88,0,3.42-0.41,4.62-1.24
		s2.05-2.04,2.57-3.64c0.51-1.6,0.84-3.05,0.98-4.36c0.14-1.31,0.21-2.94,0.21-4.88V211.4c0-1.94-0.07-3.56-0.21-4.88
		c-0.14-1.31-0.47-2.75-0.98-4.32s-1.37-2.77-2.57-3.59c-1.2-0.83-2.74-1.24-4.62-1.24c-1.54,0-2.85,0.31-3.94,0.94
		c-1.08,0.63-1.9,1.36-2.44,2.18c-0.54,0.83-0.96,1.97-1.24,3.42c-0.29,1.45-0.44,2.65-0.47,3.59c-0.03,0.94-0.04,2.24-0.04,3.89
		v70.06c0,1.6,0.01,2.88,0.04,3.85c0.03,0.97,0.18,2.18,0.47,3.64c0.29,1.46,0.7,2.6,1.24,3.42c0.54,0.83,1.35,1.57,2.44,2.22
		C784.7,295.25,786.01,295.58,787.55,295.58z"/>
	<path class="st1" d="M850.43,317.39V175.55h24.64l25.92,60.74v-60.74h28.66v141.84h-23.7l-25.75-66.73v66.73H850.43z"/>
</g>
<g>
	<ellipse class="st2" cx="525" cy="320.26" rx="467.79" ry="16.7"/>
	<g>
		<g>
			<path class="st3" d="M248.21,161.34h-1v-4h1V161.34z M248.21,153.34h-1v-4h1V153.34z M248.21,145.34h-1v-4h1V145.34z
				 M248.21,137.34h-1v-4h1V137.34z M248.21,129.34h-1v-4h1V129.34z M248.21,121.33h-1v-4h1V121.33z M248.21,113.33h-1v-4h1V113.33z
				 M248.21,105.33h-1v-4h1V105.33z M248.21,97.33h-1v-4h1V97.33z M248.21,89.33h-1v-4h1V89.33z M248.21,81.33h-1v-4h1V81.33z
				 M292.19,74.31h-4v-1h4V74.31z M284.19,74.31h-4v-1h4V74.31z M276.19,74.31h-4v-1h4V74.31z M268.19,74.31h-4v-1h4V74.31z
				 M260.19,74.31h-4v-1h4V74.31z M252.19,74.31h-4v-1h4V74.31z"/>
		</g>
		<g>
			<circle class="st3" cx="247.71" cy="161.23" r="1.88"/>
			<path class="st3" d="M249.84,161.23c0-1.17-0.96-2.13-2.13-2.13s-2.13,0.96-2.13,2.13s0.96,2.13,2.13,2.13
				S249.84,162.4,249.84,161.23S249.84,162.4,249.84,161.23z M246.08,161.23c0-0.9,0.73-1.63,1.63-1.63c0.9,0,1.63,0.73,1.63,1.63
				c0,0.9-0.73,1.63-1.63,1.63S246.08,162.12,246.08,161.23S246.08,162.12,246.08,161.23z"/>
		</g>
		<g>
			<path class="st3" d="M295.63,75.69c1.04,0,1.88-0.84,1.88-1.88s-0.84-1.88-1.88-1.88c-1.04,0-1.88,0.84-1.88,1.88
				C293.75,74.85,294.59,75.69,295.63,75.69z"/>
			<path class="st3" d="M295.63,75.94c-1.17,0-2.13-0.96-2.13-2.13s0.96-2.13,2.13-2.13c1.17,0,2.13,0.96,2.13,2.13
				S296.8,75.94,295.63,75.94C294.45,75.94,296.8,75.94,295.63,75.94z M295.63,72.18c-0.9,0-1.63,0.73-1.63,1.63
				c0,0.9,0.73,1.63,1.63,1.63c0.9,0,1.63-0.73,1.63-1.63S296.53,72.18,295.63,72.18C294.73,72.18,296.53,72.18,295.63,72.18z"/>
		</g>
	</g>
	<g>
		<g>
			<path class="st3" d="M483.14,161.35h-1v-3.78h1V161.35z M483.14,153.57h-1v-4h1V153.57z M483.14,145.57h-1v-4h1V145.57z
				 M483.14,137.57h-1v-4h1V137.57z M483.14,129.57h-1v-4h1V129.57z M483.14,121.56h-1v-4h1V121.56z M483.14,113.56h-1v-4h1V113.56z
				 M483.14,105.56h-1v-4h1V105.56z M483.14,97.56h-1v-4h1V97.56z M483.14,89.56h-1v-4h1V89.56z M480.99,83.71h-4v-1h4V83.71z
				 M472.99,83.71h-4v-1h4V83.71z M464.99,83.71h-4v-1h4V83.71z"/>
		</g>
		<g>
			<path class="st3" d="M461.1,85.1c-1.04,0-1.88-0.84-1.88-1.88s0.84-1.88,1.88-1.88c1.04,0,1.88,0.84,1.88,1.88
				S462.13,85.1,461.1,85.1z"/>
			<path class="st3" d="M461.1,85.35c1.17,0,2.13-0.96,2.13-2.13s-0.96-2.13-2.13-2.13c-1.17,0-2.13,0.96-2.13,2.13
				S459.92,85.35,461.1,85.35C462.27,85.35,459.92,85.35,461.1,85.35z M461.1,81.58c0.9,0,1.63,0.73,1.63,1.63
				c0,0.9-0.73,1.63-1.63,1.63c-0.9,0-1.63-0.73-1.63-1.63C459.47,82.31,460.2,81.58,461.1,81.58
				C461.99,81.58,460.2,81.58,461.1,81.58z"/>
		</g>
		<g>
			<path class="st3" d="M480.76,161.24c0,1.04,0.84,1.88,1.88,1.88c1.04,0,1.88-0.84,1.88-1.88s-0.84-1.88-1.88-1.88
				C481.6,159.36,480.76,160.21,480.76,161.24z"/>
			<path class="st3" d="M480.51,161.24c0-1.17,0.96-2.13,2.13-2.13c1.17,0,2.13,0.96,2.13,2.13s-0.96,2.13-2.13,2.13
				C481.46,163.37,480.51,162.42,480.51,161.24S480.51,162.42,480.51,161.24z M484.27,161.24c0-0.9-0.73-1.63-1.63-1.63
				c-0.9,0-1.63,0.73-1.63,1.63c0,0.9,0.73,1.63,1.63,1.63C483.53,162.87,484.27,162.14,484.27,161.24
				C484.27,160.34,484.27,162.14,484.27,161.24z"/>
		</g>
	</g>
	<g>
		<g>
			<path class="st3" d="M827.38,144.09h-1v-4h1V144.09z M827.38,136.09h-1v-4h1V136.09z M827.38,128.09h-1v-4h1V128.09z
				 M827.38,120.08h-1v-4h1V120.08z M827.38,112.08h-1v-4h1V112.08z M827.38,104.08h-1v-4h1V104.08z"/>
		</g>
		<g>
			<path class="st3" d="M828.76,143.99c0,1.04-0.84,1.88-1.88,1.88s-1.88-0.84-1.88-1.88s0.84-1.88,1.88-1.88
				C827.91,142.11,828.76,142.95,828.76,143.99z"/>
			<path class="st3" d="M829.01,143.99c0-1.17-0.96-2.13-2.13-2.13s-2.13,0.96-2.13,2.13s0.96,2.13,2.13,2.13
				S829.01,145.15,829.01,143.99S829.01,145.15,829.01,143.99z M825.25,143.99c0-0.9,0.73-1.63,1.63-1.63s1.63,0.73,1.63,1.63
				s-0.73,1.63-1.63,1.63S825.25,144.88,825.25,143.99S825.25,144.88,825.25,143.99z"/>
		</g>
		<g>
			<path class="st3" d="M828.76,100.07c0-1.04-0.84-1.88-1.88-1.88s-1.88,0.84-1.88,1.88s0.84,1.88,1.88,1.88
				C827.91,101.95,828.76,101.11,828.76,100.07z"/>
			<path class="st3" d="M829.01,100.07c0,1.17-0.96,2.13-2.13,2.13s-2.13-0.96-2.13-2.13s0.96-2.13,2.13-2.13
				S829.01,98.9,829.01,100.07C829.01,101.25,829.01,98.9,829.01,100.07z M825.25,100.07c0,0.9,0.73,1.63,1.63,1.63
				s1.63-0.73,1.63-1.63c0-0.9-0.73-1.63-1.63-1.63S825.25,99.18,825.25,100.07C825.25,100.97,825.25,99.18,825.25,100.07z"/>
		</g>
	</g>
	<g>
		<g>
			<path class="st3" d="M603.44,148.67h-1v-2.36h1V148.67z M603.44,142.31h-1v-4h1V142.31z M603.44,134.31h-1v-4h1V134.31z
				 M603.44,126.31h-1v-4h1V126.31z M603.44,118.31h-1v-4h1V118.31z M603.44,110.31h-1v-4h1V110.31z M603.44,102.31h-1v-4h1V102.31z
				 M603.44,94.31h-1v-4h1V94.31z M726.72,86.58h-4v-1h4V86.58z M718.72,86.58h-4v-1h4V86.58z M710.72,86.58h-4v-1h4V86.58z
				 M702.72,86.58h-4v-1h4V86.58z M694.72,86.58h-4v-1h4V86.58z M686.72,86.58h-4v-1h4V86.58z M678.72,86.58h-4v-1h4V86.58z
				 M670.72,86.58h-4v-1h4V86.58z M662.72,86.58h-4v-1h4V86.58z M654.72,86.58h-4v-1h4V86.58z M646.72,86.58h-4v-1h4V86.58z
				 M638.72,86.58h-4v-1h4V86.58z M630.72,86.58h-4v-1h4V86.58z M622.72,86.58h-4v-1h4V86.58z M614.72,86.58h-4v-1h4V86.58z
				 M606.72,86.58h-3.78v-0.28h-0.5v-0.72h4.28V86.58z"/>
		</g>
		<g>
			<path class="st3" d="M726.61,84.2c1.04,0,1.88,0.84,1.88,1.88s-0.84,1.88-1.88,1.88s-1.88-0.84-1.88-1.88
				C724.73,85.04,725.58,84.2,726.61,84.2z"/>
			<path class="st3" d="M726.61,83.95c-1.17,0-2.13,0.96-2.13,2.13s0.96,2.13,2.13,2.13s2.13-0.96,2.13-2.13
				C728.74,84.92,727.79,83.95,726.61,83.95C725.44,83.95,727.79,83.95,726.61,83.95z M726.61,87.71c-0.9,0-1.63-0.73-1.63-1.63
				c0-0.9,0.73-1.63,1.63-1.63s1.63,0.73,1.63,1.63C728.24,86.99,727.51,87.71,726.61,87.71C725.72,87.71,727.51,87.71,726.61,87.71
				z"/>
		</g>
		<g>
			<circle class="st3" cx="602.94" cy="148.57" r="1.88"/>
			<path class="st3" d="M600.81,148.57c0-1.17,0.96-2.13,2.13-2.13s2.13,0.96,2.13,2.13s-0.96,2.13-2.13,2.13
				S600.81,149.74,600.81,148.57S600.81,149.74,600.81,148.57z M604.57,148.57c0-0.9-0.73-1.63-1.63-1.63s-1.63,0.73-1.63,1.63
				s0.73,1.63,1.63,1.63S604.57,149.47,604.57,148.57S604.57,149.47,604.57,148.57z"/>
		</g>
	</g>
	<g>
		<g>
			<path class="st3" d="M406.24,388.62h-4v-1h4V388.62z M398.24,388.62h-4v-1h4V388.62z M390.24,388.62h-4v-1h4V388.62z
				 M382.24,388.62h-4v-1h4V388.62z M374.24,388.62h-4v-1h4V388.62z M366.24,388.62h-4v-1h4V388.62z M358.24,388.62h-4v-1h4V388.62z
				 M350.24,388.62h-4v-1h4V388.62z M345.3,385.57h-1v-4h1V385.57z M345.3,377.57h-1v-4h1V377.57z M345.3,369.57h-1v-4h1V369.57z
				 M345.3,361.57h-1v-4h1V361.57z"/>
		</g>
		<g>
			<path class="st3" d="M342.92,357.68c0-1.04,0.84-1.88,1.88-1.88c1.04,0,1.88,0.84,1.88,1.88s-0.84,1.88-1.88,1.88
				C343.76,359.57,342.92,358.71,342.92,357.68z"/>
			<path class="st3" d="M342.67,357.68c0,1.17,0.96,2.13,2.13,2.13c1.17,0,2.13-0.96,2.13-2.13s-0.96-2.13-2.13-2.13
				C343.62,355.55,342.67,356.51,342.67,357.68C342.67,358.85,342.67,356.51,342.67,357.68z M346.42,357.68
				c0,0.9-0.73,1.63-1.63,1.63c-0.9,0-1.63-0.73-1.63-1.63s0.73-1.63,1.63-1.63C345.69,356.05,346.42,356.79,346.42,357.68
				C346.42,358.57,346.42,356.79,346.42,357.68z"/>
		</g>
		<g>
			<path class="st3" d="M407.46,390.01c1.04,0,1.88-0.84,1.88-1.88s-0.84-1.88-1.88-1.88c-1.04,0-1.88,0.84-1.88,1.88
				C405.58,389.16,406.42,390.01,407.46,390.01z"/>
			<path class="st3" d="M407.46,390.26c-1.17,0-2.13-0.96-2.13-2.13s0.96-2.13,2.13-2.13c1.17,0,2.13,0.96,2.13,2.13
				C409.59,389.3,408.63,390.26,407.46,390.26C406.29,390.26,408.63,390.26,407.46,390.26z M407.46,386.49
				c-0.9,0-1.63,0.73-1.63,1.63s0.73,1.63,1.63,1.63c0.9,0,1.63-0.73,1.63-1.63C409.09,387.22,408.36,386.49,407.46,386.49
				C406.56,386.49,408.36,386.49,407.46,386.49z"/>
		</g>
	</g>
	<g>
		<g>
			<path class="st3" d="M640.38,373.01h-4v-1h4V373.01z M632.38,373.01h-4v-1h4V373.01z M643.57,371.2h-1v-4h1V371.2z M643.57,363.2
				h-1v-4h1V363.2z"/>
		</g>
		<g>
			<path class="st3" d="M622.58,374.39c-1.04,0-1.88-0.84-1.88-1.88s0.84-1.88,1.88-1.88s1.88,0.84,1.88,1.88
				S623.62,374.39,622.58,374.39z"/>
			<path class="st3" d="M622.58,374.64c1.17,0,2.13-0.96,2.13-2.13s-0.96-2.13-2.13-2.13s-2.13,0.96-2.13,2.13
				C620.45,373.69,621.4,374.64,622.58,374.64S621.4,374.64,622.58,374.64z M622.58,370.88c0.9,0,1.63,0.73,1.63,1.63
				s-0.73,1.63-1.63,1.63s-1.63-0.73-1.63-1.63S621.68,370.88,622.58,370.88S621.68,370.88,622.58,370.88z"/>
		</g>
		<g>
			<path class="st3" d="M644.95,358.35c0-1.04-0.84-1.88-1.88-1.88s-1.88,0.84-1.88,1.88s0.84,1.88,1.88,1.88
				S644.95,359.39,644.95,358.35z"/>
			<path class="st3" d="M645.2,358.35c0,1.17-0.96,2.13-2.13,2.13s-2.13-0.96-2.13-2.13s0.96-2.13,2.13-2.13
				S645.2,357.18,645.2,358.35C645.2,359.54,645.2,357.18,645.2,358.35z M641.44,358.35c0,0.9,0.73,1.63,1.63,1.63
				s1.63-0.73,1.63-1.63s-0.73-1.63-1.63-1.63S641.44,357.45,641.44,358.35C641.44,359.26,641.44,357.45,641.44,358.35z"/>
		</g>
	</g>
	<g id="EDUKIT">
		<path class="st4" d="M128.52,175.38h77.07v26.3H155.2v25.53h50.39v25.82H155.2v37.14h50.39v26.39h-77.07L128.52,175.38
			L128.52,175.38z"/>
		<path class="st4" d="M259.63,175.38h31.84c20.52,0,35.77,2.54,45.74,7.63c9.97,5.09,18.19,13.36,24.64,24.81
			c6.46,11.45,9.69,24.83,9.69,40.12c0,10.88-1.81,20.88-5.42,29.99c-3.61,9.12-8.6,16.68-14.96,22.7
			c-6.36,6.01-13.25,10.17-20.66,12.48c-7.42,2.3-20.26,3.46-38.55,3.46h-32.32L259.63,175.38L259.63,175.38z M286.31,201.29v89.06
			h12.48c12.28,0,21.19-1.41,26.73-4.23c5.53-2.82,10.06-7.56,13.58-14.22c3.52-6.66,5.28-14.86,5.28-24.6
			c0-14.99-4.19-26.61-12.57-34.88c-7.55-7.43-19.67-11.15-36.37-11.15h-9.13V201.29z"/>
		<path class="st4" d="M425.1,175.38h26.97v91.29c0,7.86,0.69,13.43,2.06,16.68c1.38,3.26,3.65,5.87,6.81,7.82
			c3.17,1.95,6.99,2.92,11.47,2.92c4.73,0,8.81-1.09,12.24-3.26c3.42-2.17,5.79-4.94,7.1-8.29c1.31-3.36,1.97-9.77,1.97-19.23
			v-87.94h26.97v84.17c0,14.2-0.8,24.06-2.4,29.56c-1.6,5.5-4.65,10.81-9.17,15.93c-4.51,5.12-9.71,8.91-15.6,11.37
			s-12.73,3.69-20.54,3.69c-10.24,0-19.15-2.35-26.73-7.05c-7.58-4.7-13-10.59-16.27-17.66c-3.26-7.07-4.89-19.02-4.89-35.85v-84.15
			H425.1z"/>
		<path class="st4" d="M580.97,175.38h27.16v48.67l38.33-48.67h32.27l-49.3,63.01l54.1,78.17h-31.87l-43.52-62.73v62.73h-27.16
			V175.38H580.97z"/>
		<path class="st4" d="M729.63,175.38h26.68v141.18h-26.68V175.38z"/>
		<path class="st4" d="M801.53,175.38h78.03v26.49h-25.72v114.69h-27.26V201.87h-25.05L801.53,175.38L801.53,175.38z"/>
	</g>
	<g>
		<g>
			<g>
				<path class="st5" d="M701.16,174.15c-0.2,0-0.41-0.06-0.58-0.18c-0.46-0.32-0.58-0.96-0.25-1.42c0,0,0.65-0.93,1.85-2.49
					c0.34-0.45,0.99-0.53,1.43-0.19c0.45,0.34,0.53,0.99,0.19,1.43c-1.16,1.51-1.78,2.41-1.79,2.42
					C701.8,173.99,701.48,174.15,701.16,174.15z"/>
			</g>
			<g>
				<path class="st5" d="M812.41,188.79c-1.18,0-2.34-0.1-3.45-0.31c-0.55-0.1-0.92-0.64-0.82-1.19c0.1-0.56,0.62-0.91,1.19-0.82
					c1.78,0.33,3.7,0.45,5.7-0.08c0.55-0.15,1.1,0.18,1.25,0.73c0.14,0.55-0.18,1.1-0.73,1.25
					C814.49,188.64,813.43,188.79,812.41,188.79z M803.39,186.31c-0.18,0-0.36-0.05-0.53-0.14c-1.74-1.04-3.38-2.37-5.02-4.07
					c-0.39-0.41-0.38-1.05,0.03-1.45c0.41-0.39,1.05-0.38,1.45,0.03c1.51,1.57,3.01,2.79,4.6,3.73c0.48,0.29,0.64,0.92,0.35,1.4
					C804.07,186.12,803.73,186.31,803.39,186.31z M820.86,185.69c-0.32,0-0.64-0.15-0.84-0.44c-0.32-0.47-0.2-1.1,0.26-1.42
					c1.47-1.01,3.03-2.31,4.65-3.87c0.41-0.39,1.05-0.38,1.44,0.03s0.38,1.05-0.03,1.44c-1.72,1.66-3.33,3-4.91,4.09
					C821.26,185.62,821.06,185.69,820.86,185.69z M794.66,177.58c-0.32,0-0.64-0.15-0.84-0.44c-1.08-1.53-2.18-3.27-3.39-5.32
					c-0.29-0.49-0.12-1.11,0.36-1.4s1.11-0.13,1.4,0.36c1.18,2,2.26,3.7,3.3,5.18c0.33,0.46,0.21,1.1-0.25,1.42
					C795.07,177.51,794.86,177.58,794.66,177.58z M829.91,177.18c-0.24,0-0.48-0.08-0.67-0.25c-0.43-0.37-0.47-1.02-0.1-1.44
					c1.22-1.4,2.52-2.96,3.95-4.76c0.35-0.44,1-0.51,1.44-0.16c0.44,0.35,0.52,1,0.16,1.44c-1.46,1.83-2.77,3.41-4.01,4.83
					C830.47,177.06,830.19,177.18,829.91,177.18z M837.72,167.46c-0.22,0-0.44-0.07-0.62-0.21c-0.45-0.34-0.53-0.98-0.19-1.43
					l1.21-1.58c0.87-1.14,1.73-2.26,2.58-3.36c0.35-0.45,0.99-0.52,1.43-0.18c0.45,0.35,0.53,0.99,0.18,1.43
					c-0.85,1.1-1.71,2.22-2.58,3.36l-1.21,1.59C838.32,167.32,838.02,167.46,837.72,167.46z M788.26,166.9
					c-0.36,0-0.71-0.19-0.9-0.53l-1.01-1.85c-0.65-1.2-1.31-2.41-1.97-3.61c-0.27-0.49-0.09-1.12,0.4-1.39
					c0.5-0.27,1.11-0.1,1.39,0.4c0.67,1.21,1.33,2.42,1.98,3.62l1.01,1.85c0.27,0.5,0.09,1.12-0.41,1.39
					C788.59,166.86,788.42,166.9,788.26,166.9z M706.88,166.84c-0.23,0-0.47-0.08-0.66-0.24c-0.43-0.37-0.49-1.01-0.12-1.44
					c1.35-1.6,2.74-3.18,4.15-4.71c0.38-0.42,1.03-0.44,1.44-0.06c0.42,0.38,0.44,1.03,0.06,1.44c-1.38,1.5-2.76,3.06-4.09,4.64
					C707.46,166.72,707.17,166.84,706.88,166.84z M715.32,157.69c-0.26,0-0.53-0.1-0.73-0.3c-0.4-0.4-0.39-1.05,0.01-1.45
					c1.51-1.5,3.05-2.94,4.58-4.3c0.42-0.37,1.07-0.34,1.44,0.09c0.38,0.42,0.34,1.07-0.08,1.44c-1.5,1.33-3.02,2.76-4.5,4.22
					C715.84,157.59,715.58,157.69,715.32,157.69z M845.4,157.65c-0.23,0-0.46-0.08-0.65-0.24c-0.43-0.36-0.49-1.01-0.13-1.44
					c1.56-1.87,2.95-3.41,4.24-4.7c0.4-0.4,1.05-0.4,1.45,0s0.4,1.05,0,1.45c-1.24,1.24-2.59,2.73-4.11,4.56
					C845.98,157.51,845.69,157.65,845.4,157.65z M782.16,156.03c-0.35,0-0.68-0.18-0.87-0.49c-1.17-1.93-2.27-3.61-3.37-5.14
					c-0.33-0.46-0.23-1.1,0.23-1.43c0.46-0.33,1.1-0.23,1.43,0.23c1.13,1.57,2.27,3.3,3.46,5.27c0.29,0.48,0.14,1.11-0.35,1.4
					C782.53,155.98,782.35,156.03,782.16,156.03z M724.64,149.42c-0.3,0-0.6-0.13-0.81-0.39c-0.35-0.44-0.27-1.09,0.17-1.44
					c1.7-1.34,3.42-2.59,5.09-3.71c0.47-0.32,1.1-0.19,1.42,0.28c0.31,0.47,0.19,1.1-0.28,1.42c-1.63,1.1-3.3,2.31-4.97,3.62
					C725.08,149.35,724.86,149.42,724.64,149.42z M774.82,146c-0.27,0-0.55-0.11-0.75-0.33c-1.44-1.55-2.95-2.9-4.48-4.02
					c-0.46-0.33-0.55-0.97-0.22-1.43c0.33-0.46,0.97-0.55,1.43-0.22c1.63,1.2,3.24,2.64,4.76,4.27c0.39,0.41,0.36,1.06-0.05,1.44
					C775.32,145.9,775.07,146,774.82,146z M734.98,142.51c-0.36,0-0.71-0.19-0.9-0.53c-0.27-0.5-0.09-1.12,0.41-1.39
					c1.92-1.05,3.84-1.97,5.72-2.74c0.52-0.21,1.12,0.04,1.33,0.56s-0.04,1.12-0.56,1.33c-1.81,0.74-3.66,1.62-5.51,2.64
					C735.32,142.47,735.15,142.51,734.98,142.51z M764.81,138.79c-0.13,0-0.26-0.02-0.39-0.08c-1.7-0.71-3.51-1.22-5.37-1.51
					l-0.35-0.06c-0.56-0.08-0.94-0.6-0.86-1.16s0.61-0.95,1.16-0.86l0.38,0.06c2.01,0.32,3.98,0.87,5.83,1.64
					c0.52,0.22,0.77,0.81,0.55,1.34C765.59,138.56,765.21,138.79,764.81,138.79z M746.5,137.89c-0.46,0-0.88-0.31-0.99-0.78
					c-0.14-0.55,0.2-1.1,0.75-1.24c2.13-0.53,4.26-0.86,6.32-0.99c0.56-0.06,1.05,0.39,1.08,0.96c0.03,0.56-0.39,1.05-0.96,1.08
					c-1.94,0.12-3.94,0.44-5.96,0.93C746.67,137.88,746.58,137.89,746.5,137.89z"/>
			</g>
		</g>
		<g>
			<polygon class="st6" points="887.03,129.64 852.28,151.1 853.86,138.56 			"/>
			<polygon class="st5" points="887.03,129.64 852.28,151.1 856.64,142.17 			"/>
			<g>
				<polygon class="st3" points="866.7,155.32 845.06,128.83 891.91,123.88 				"/>
				<polygon class="st6" points="890.44,124.69 853.7,139.4 856.35,142.65 				"/>
			</g>
		</g>
	</g>
	<g>
		<path class="st6" d="M656.49,141.15c0,0,3.33,12.01,4.97,13.97c1.64,1.96,6.99,4.86,6.99,4.86l-1.42,2.51c0,0-9.72-4.95-11.41-9
			c-0.98-2.36-1.64-4.4-1.96-6.22c-0.27-1.49-1.37-5.18-0.82-6.66C653.19,139.65,655.73,139.14,656.49,141.15z"/>
		<path class="st7" d="M656.49,141.15c0,0,3.33,12.01,4.97,13.97c1.64,1.96,6.99,4.86,6.99,4.86l-1.42,2.51c0,0-9.72-4.95-11.41-9
			c-0.98-2.36-1.64-4.4-1.96-6.22c-0.27-1.49-1.37-5.18-0.82-6.66C653.19,139.65,655.73,139.14,656.49,141.15z"/>
		<path class="st5" d="M689.84,198.47l2.45-2.29c0,0,9.81-0.72,10.38,0.14s-9.3,5.52-10.57,5.43
			C690.84,201.67,690.01,199.4,689.84,198.47z"/>
		<path class="st8" d="M671.86,165.28c0,0,9.28-2.36,10.04-0.83c0.76,1.53,10.4,31.73,10.4,31.73l-2.45,2.29
			c0,0-10.33-25.49-13.32-28.16C673.53,167.65,670.48,166.33,671.86,165.28z"/>
		<path class="st9" d="M671.86,165.28c0,0,9.28-2.36,10.04-0.83c0.76,1.53,10.4,31.73,10.4,31.73l-2.45,2.29
			c0,0-10.33-25.49-13.32-28.16C673.53,167.65,670.48,166.33,671.86,165.28z"/>
		<g>
			<path class="st8" d="M667.08,159.72c0.7-0.19,1.28-0.42,1.93-0.77c0.52-0.28,1.02-0.55,1.64-0.46c0.44,0.06,4.01,1.55,3.06,2.21
				c-0.31,0.22-1.08-0.16-1.38-0.27c-0.44-0.16-0.88-0.37-1.3-0.56c0.38-0.02,2.31,0.8,2.11,1.25c-0.36,0.79-2.31-0.27-2.76-0.52
				c0.35,0.05,1.55,0.51,1.55,0.95c0,0.69-1.44,0.11-1.75-0.04c-0.23-0.12-0.4-0.28-0.65-0.32c-0.3-0.04-0.59,0.09-0.87,0.15
				c-0.49,0.1-1.02,0.08-1.52,0.03c-0.3-0.03-0.99,0.04-1.14-0.22c-0.16-0.27-0.04-0.88,0.19-1.08
				C666.42,159.84,666.76,159.79,667.08,159.72z"/>
			<path class="st10" d="M667.08,159.72c0.7-0.19,1.28-0.42,1.93-0.77c0.52-0.28,1.02-0.55,1.64-0.46c0.44,0.06,4.01,1.55,3.06,2.21
				c-0.31,0.22-1.08-0.16-1.38-0.27c-0.44-0.16-0.88-0.37-1.3-0.56c0.38-0.02,2.31,0.8,2.11,1.25c-0.36,0.79-2.31-0.27-2.76-0.52
				c0.35,0.05,1.55,0.51,1.55,0.95c0,0.69-1.44,0.11-1.75-0.04c-0.23-0.12-0.4-0.28-0.65-0.32c-0.3-0.04-0.59,0.09-0.87,0.15
				c-0.49,0.1-1.02,0.08-1.52,0.03c-0.3-0.03-0.99,0.04-1.14-0.22c-0.16-0.27-0.04-0.88,0.19-1.08
				C666.42,159.84,666.76,159.79,667.08,159.72z"/>
		</g>
		<g>
			<polygon class="st5" points="683.15,143.68 685.33,144.58 677.84,162.65 675.63,161.47 			"/>
			<rect x="662.16" y="161.15" class="st5" width="14.27" height="2.22"/>
		</g>
		<path class="st5" d="M636.92,150.85c1.91-1.09,2.23-2.3,1.17-6.29c-1.06-3.99,1.71-8.13,4.37-9.23c1.96-0.81,3.67-1.16,4.86-3.24
			s-1.06-6.53,2.7-9.82c2.74-2.4,6.68-0.48,6.68-0.48c0.85-0.47,1.2,4.47,1.26,8.18c-4.77,7.3-3.41,16.83-1.67,25
			c0.04,0.2,0.11,0.37,0.17,0.55c-0.37,6.32-0.68,11.56-0.68,11.56s-11.46,6.49-19.26,0.93
			C628.73,162.45,633.1,153.04,636.92,150.85z"/>
		<path class="st5" d="M670.62,196.97l2.91,1.67c0,0,3.57,9.17,2.91,9.97c-0.65,0.8-8-7.28-8.29-8.51
			C667.86,198.86,669.77,197.4,670.62,196.97z"/>
		<path class="st8" d="M666.91,164.74c0,0,18.7,1.31,20.45,2.98s-14.13,30.75-14.13,30.75l-2.61-1.5c0,0,3.93-13.82,4.95-17.03
			c1.02-3.2,2.98-7.06,2.62-7.57c-0.36-0.51-19.21,2.33-19.06-2.98C659.27,164.08,666.91,164.74,666.91,164.74z"/>
		<path class="st8" d="M657.69,133.19c0,0-1.96,5.35-0.76,9.33l-6.55-1.58c0,0,2.68-8.95,3.83-10.48
			C655.35,128.94,657.69,133.19,657.69,133.19z"/>
		<path class="st9" d="M657.69,133.19c0,0-1.96,5.35-0.76,9.33l-6.55-1.58c0,0,2.68-8.95,3.83-10.48
			C655.35,128.94,657.69,133.19,657.69,133.19z"/>
		<path class="st8" d="M658.37,126.21c0,0,2.54,1.22,3.15,2.24c0.61,1.03,0.08,2.44,0.13,3.38s0.31,2.33,0.17,2.56s-1.08,0-1.23,0.2
			c-0.15,0.2-1.37,0.96-1.75,1.82s-0.89,0.94-1.77,0.51c-0.89-0.43-4.28-4.91-4.32-7.01C652.71,127.81,655.85,125.35,658.37,126.21z
			"/>
		<path class="st5" d="M656.21,123.36c0,0,1.19,2.37,1.31,3.32c0.12,0.94-0.78,3.72-1.31,4.09c-0.53,0.37-0.08-3.11-1.43-2.05
			c-1.35,1.06,0.08,3.07,0,3.48c-0.08,0.41-0.7,1.72-2.09,1.84s-3.68-6.8-2.17-8.51S654.62,123.36,656.21,123.36z"/>
		<path class="st11" d="M648.36,158.99l8.67-0.65c0,0,4.51,5.04,8.97,5.04c4.4,0,15.24,0,15.24,0s-0.77,6.34-4.44,11.38
			c0,0-14.54,1.07-21.59,0.49C648.16,174.65,641.45,166.87,648.36,158.99z"/>
		<path class="st12" d="M647.55,160.01c0.25-0.34,0.51-0.68,0.81-1.02l8.67-0.65c0,0,4.39,4.9,8.79,5.03
			C660.51,163.9,650.36,165.08,647.55,160.01z"/>
		<path class="st13" d="M677.22,164.39c-2.21-0.22-4.36-0.74-6.53-1.02h9.56C679.31,163.86,678.84,164.54,677.22,164.39z"/>
		<path class="st6" d="M651.21,137.92c0,0,3.98,1.57,5.33,1.71c0,0,2.8,6.18,3.9,7.86c1.09,1.67-2.77,8.08-2.98,10.84
			c0,0-2.32,2.21-9.34,0.85C648.11,159.19,646.28,141.81,651.21,137.92z"/>
		<path class="st7" d="M650.15,141.62c1.22-0.56,3.34,0.01,3.93,1.23c0.73,1.51-0.02,4.2,0.07,5.83c0.09,1.72,0.2,4,0.64,5.68
			c0.34,1.31,1.19,2.92,2.29,4.24c-0.9,0.54-3.51,1.64-8.96,0.58c0,0-1.12-10.59,0.74-17.09
			C649.36,141.93,649.83,141.76,650.15,141.62z"/>
		<path class="st8" d="M665.71,159.72c0.7-0.19,1.28-0.42,1.93-0.77c0.52-0.28,1.02-0.55,1.64-0.46c0.44,0.06,4.01,1.55,3.06,2.21
			c-0.31,0.22-1.08-0.16-1.38-0.27c-0.44-0.16-0.88-0.37-1.3-0.56c0.38-0.02,2.31,0.8,2.11,1.25c-0.36,0.79-2.31-0.27-2.76-0.52
			c0.35,0.05,1.55,0.51,1.55,0.95c0,0.69-1.44,0.11-1.75-0.04c-0.23-0.12-0.4-0.28-0.65-0.32c-0.3-0.04-0.59,0.09-0.87,0.15
			c-0.49,0.1-1.02,0.08-1.52,0.03c-0.3-0.03-0.99,0.04-1.14-0.22c-0.16-0.27-0.04-0.88,0.19-1.08
			C665.06,159.84,665.4,159.79,665.71,159.72z"/>
		<path class="st6" d="M666.31,159.62l-0.76,2.87c0,0-18.77-2.18-19.21-5.51s0.76-18.82,5.29-17.22c4.53,1.61,0.05,12.85,0.76,13.72
			C653.11,154.37,666.31,159.62,666.31,159.62z"/>
		<path class="st5" d="M656.03,122.06c0,0,2.24-1.68,4.57,0.2s2.25,4.71,4.18,4.46c0,0-1.27,3.27-4.05,2.5
			C657.94,128.45,655.06,124.03,656.03,122.06z"/>
	</g>
	<g>
		<path class="st10" d="M160.49,154.31c-0.53-0.29-1.03-0.58-1.34-1.09c-0.15-0.24-0.27-0.47-0.5-0.64s-0.44-0.44-0.64-0.68
			c-0.19-0.22-0.39-0.51-0.69-0.6c-0.37-0.11-0.26,0.37-0.14,0.68c0.13,0.34,1.07,0.95,0.95,1.31c-0.12,0.36-1.22-0.46-1.44-0.63
			c-0.51-0.39-0.45-0.87-0.69-1.41c-0.14-0.31-0.3-0.41-0.5-0.07c-0.15,0.26-0.02,0.57,0.07,0.83c0.18,0.52,0.5,1.06,0.93,1.43
			c-0.36-0.25-0.79-0.85-1-1.24c-0.14-0.27-0.55-1.52-0.99-1.33c-0.89,0.38,0.84,2.79,1.32,3.05c-0.45-0.31-0.76-0.75-1.09-1.19
			c-0.19-0.26-0.61-0.88-0.82-0.35c-0.3,0.79,1.17,1.71,1.75,2.24c-0.49-0.21-0.79-0.53-1.25-0.89c-0.53-0.42-0.66,0.12-0.19,0.64
			c0.2,0.22,0.66,0.6,0.77,0.67c1.09,0.83,1.84,1,3.15,1.12c0.47,0.05,1.29,0.63,1.62,0.39
			C160.43,156.11,160.38,154.98,160.49,154.31z"/>
		<path class="st14" d="M159.83,152.98c0,0,10.14,2.83,11.16,2.76c1.03-0.07,3.4-8.99,4.35-13.39c0.09-0.41,1.44-0.43,2.96-1.72
			c0.63-0.53,2.5,0.49,3.12,0c1.2,1.26,1.53,3.09,0.8,4.7c-2.31,5.1-4.3,14.9-9.61,15c-7.03,0.13-14.16-3.54-14.16-3.54
			L159.83,152.98z"/>
		<path class="st10" d="M157.65,154.2c0,0,0.41-0.69,0.48-0.9c0.12-0.36-0.82-0.98-0.95-1.31c-0.12-0.31-0.23-0.79,0.14-0.68
			c0.31,0.09,0.51,0.38,0.69,0.6c0.2,0.23,0.41,0.51,0.64,0.68c0.23,0.16,0.35,0.4,0.5,0.64c0.12,0.19,0.27,0.34,0.43,0.49
			C159.2,154.04,157.65,154.2,157.65,154.2z"/>
		<path class="st5" d="M155.06,185.25c0,0-0.94,4.37-1.82,4.78c-0.87,0.41-10.05-1.85-10.58-2.88c-0.53-1.04,0.22-2.12,2.18-2.04
			c1.76,0.07,2.92,0.72,4.35,0.51c1.25-0.19,2.48-2.57,2.48-2.57L155.06,185.25z"/>
		<path class="st5" d="M170.65,195.17c0,0,2.35,3.8,2.01,4.7c-0.35,0.9-8.52,5.65-9.62,5.27c-1.1-0.38-1.31-1.68,0.15-2.98
			c1.32-1.17,2.6-1.51,3.48-2.65c0.77-1,0-3.57,0-3.57L170.65,195.17z"/>
		<path class="st6" d="M184.38,162.97c0,0-3.7,1.93-5.43,1.7s-16.5,0.94-18.22,2.36c-1.73,1.43,5.34,29.91,5.34,29.91l5.85-0.98
			c0,0-2.1-20.82-1.75-20.97c0.35-0.15,9.19-0.12,24.27-0.12c3.68,0,7.78-7.73,3.13-13.14L184.38,162.97z"/>
		<path class="st7" d="M163.28,169.34c0.74-1.22,1.25-2.62,1.65-3.99c5.11-0.63,12.82-0.84,14.03-0.68c1.73,0.23,5.43-1.7,5.43-1.7
			l0.85-0.08c-1.06,1.52-2.31,2.84-3.86,3.19c-1.86,0.41-3.82,0.52-5.66,1c-3.18,0.84-6.33,2.51-7.75,5.68
			c-1.71,3.81-3.53,7.81-4.71,12.06c-0.96-4.32-1.95-8.85-2.52-12.44C161.85,171.84,162.66,170.36,163.28,169.34z"/>
		<path class="st6" d="M182.86,159.79c0,0-17.59,1.05-19.26,2.7c-1.68,1.65-13,21.13-13,21.13l4.66,3.36c0,0,9.27-13.67,13.74-19
			c1.01-1.21,2.42-2.02,3.98-2.28c1.9-0.32,4.68-0.74,6.76-0.85c3.49-0.19,5.07-1.93,5.07-1.93L182.86,159.79z"/>
		<path class="st8" d="M178.34,132.62c0.55-0.31,1.01-0.72,1.45-1.17c0.43,1.69,1.45,4.79,3.39,6.24c0,0-3.45,1.92-6.5,1.61
			c0,0-0.12-4.08-0.97-5.98C176.63,133.28,177.53,133.08,178.34,132.62z"/>
		<path class="st9" d="M178.34,132.62c0.55-0.31,1.01-0.72,1.45-1.17c0.43,1.69,1.45,4.79,3.39,6.24c0,0-3.45,1.92-6.5,1.61
			c0,0-0.12-4.08-0.97-5.98C176.63,133.28,177.53,133.08,178.34,132.62z"/>
		<path class="st8" d="M175.38,122.12c0,0-4.51,0.28-5.48,1.57c-0.97,1.28-1,4.16-0.22,5.54c0.78,1.38-0.24,3.72-0.09,4.27
			c0.13,0.44,1.56,0.24,1.66,0.39s1.21,2.78,3.14,2.55c2.73-0.32,5.28-3.59,5.85-5.54C180.81,128.97,179.51,121.57,175.38,122.12z"
			/>
		<path class="st5" d="M167.94,125.17c0.13-0.29,0.54-0.85,0.57-1.17c0.02-0.27-0.02-0.55,0.04-0.81c0.2-0.83,0.12-1.35,1.74-2.63
			c1.41-1.12,3.67-1.32,5.33-0.79c0.61,0.19,1.2,0.49,1.69,0.91c0.15,0.12,0.59,0.45,0.59,0.64c0,0.24-0.55,0.61-0.69,0.79
			c-0.26,0.32-0.42,0.73-0.62,1.08c-1.26,2.2-3.52,4.9-6.34,3.61c-0.37-0.17-0.75-0.36-1.09-0.58c-0.05,0.96,0.04,2.02,0.47,2.89
			c0,0-0.85-0.24-1.32-0.98C167.51,126.88,167.63,125.88,167.94,125.17z"/>
		<path class="st5" d="M176.41,121.78c0.39-0.45,1.33-0.72,1.88-0.8c1.15-0.18,2.01,0.38,2.6,1.33c0.35,0.58,0.68,1.18,0.92,1.82
			c0.41,1.12,0.63,1.85,0.63,3.04c0,1.13-0.14,2.3-0.66,3.32c-0.47,0.92-1.58,2.2-2.39,2.19c-0.31,0-1.45-1.8-1.57-2.33
			c-0.12-0.51,0.12-0.61,0.42-0.97c0.5-0.61,0.94-1.61,0.18-2.2c-1.1-0.85-2.15,0.13-2,1.84c0,0-0.16,1.05-0.49,1.02
			C175.6,130,172.69,126.12,176.41,121.78z"/>
		<path class="st15" d="M200.47,163.36c0,0-5.25,5.66-19.09,1.75c0,0-0.47-3.45-1.94-6.86c-1.47-3.4-3.85-10.09-4.32-13.71
			c-0.53-4.09,1.5-6.2,1.5-6.2s2.62,1.93,5.79-1.36c0,0,6.84,0.8,10.85,8.01S200.47,163.36,200.47,163.36z"/>
		<path class="st14" d="M181.46,142.87c0.05-0.17,0.08-0.35,0.12-0.52c3.32,1.62,2.9,4.82,2.1,9.64c-0.61,3.71-2.39,9.57-2.74,10.88
			c-0.3-1.28-0.78-2.94-1.49-4.6c-0.68-1.57-1.55-3.84-2.34-6.19c1.21-1.76,2.01-3.65,2.74-5.71
			C180.27,145.15,181.12,144.11,181.46,142.87z"/>
		<g>
			<path class="st3" d="M158.84,150.92l-11.63-6.93c0,0-4.24,4.16-5.44,9.82l13.2,6.19C154.97,159.99,157.03,155.14,158.84,150.92z"
				/>
			<path class="st16" d="M149.85,155.26c2.71-0.8,5.56-2.93,6.94-5.57l2.05,1.22c-1.81,4.23-3.87,9.07-3.87,9.07l-9.64-4.52
				C146.79,155.72,148.23,155.74,149.85,155.26z"/>
		</g>
		<path class="st8" d="M158.88,158.07c-0.6,0.03-1.18,0.05-1.72-0.21c-0.25-0.13-0.48-0.26-0.76-0.28s-0.61-0.14-0.9-0.24
			c-0.27-0.09-0.6-0.22-0.91-0.14c-0.37,0.1-0.03,0.45,0.24,0.65c0.29,0.22,1.41,0.24,1.5,0.61s-1.28,0.26-1.55,0.23
			c-0.64-0.06-0.85-0.5-1.33-0.83c-0.28-0.19-0.47-0.19-0.46,0.21c0.01,0.29,0.29,0.5,0.5,0.66c0.43,0.34,0.99,0.63,1.54,0.72
			c-0.44-0.02-1.12-0.3-1.51-0.52c-0.26-0.15-1.27-1-1.55-0.6c-0.55,0.79,2.2,1.92,2.74,1.89c-0.55-0.02-1.04-0.23-1.55-0.43
			c-0.3-0.12-0.99-0.42-0.87,0.14c0.16,0.83,1.9,0.83,2.67,0.97c-0.53,0.08-0.96-0.03-1.53-0.09c-0.68-0.08-0.5,0.45,0.18,0.64
			c0.28,0.08,0.88,0.15,1.01,0.16c1.37,0.13,2.09-0.13,3.27-0.72c0.43-0.21,1.43-0.15,1.58-0.53
			C159.78,159.62,159.13,158.69,158.88,158.07z"/>
		<path class="st15" d="M158.6,157.61l-0.34,3.9c0,0,16.77,1.35,18.7,0.12c1.92-1.23,2.84-3.22,3.45-5.01
			c1.22-3.58,6-13.43,1.69-14.93c-1.35-0.47-3.14-0.46-4.05,1.31c-2.02,3.95-4.19,12.77-4.76,13.14
			C172.49,156.68,158.6,157.61,158.6,157.61z"/>
	</g>
	<g>
		<g>
			<path class="st5" d="M303.41,235.79c0,0,2.4,7.04,3.8,10.13c7.85,17.32-6.68,15.11-12.2,14.29c-5.53-0.81-11.82-2.9-11.47-7.37
				c0.24-3.04,2.08-3.38,2.83-4.39s-0.71-2.68-0.08-5.18c0.64-2.5,4.81-3,5.64-3.69c0.83-0.69,2.49-2.6,1.67-6.21
				c-0.82-3.61-1.16-5.55,1.17-7.9c2.35-2.37,6.01-1.33,6.01-1.33L303.41,235.79z"/>
			<path class="st8" d="M330.49,262.69c-0.5-0.39-2.44,0.71-3.84,1.17c-0.8,0.26-2.41,0.33-3.65,0.34
				c-0.04,0.68-0.13,1.36-0.28,2.03c0.88,0.04,1.56,0.2,2.21,0.15c0.7-0.05,1.98-0.23,2.47-0.32c0.46-0.09,1.23-0.1,1.57,0.18
				c1.56,1.3,2.43,1.39,2.64,0.92c0.03-0.07-1.22-1.18-1.64-1.63c0.68,0.62,2.36,1.84,2.71,1.46c0.27-0.29-1.3-1.72-1.96-2.3
				c0.7,0.6,2.5,2.1,2.93,1.98C334.84,266.35,330.99,263.08,330.49,262.69z"/>
			<rect x="317.72" y="266.47" class="st5" width="19.55" height="2.51"/>
			<path class="st15" d="M324.54,263.86l-0.69,2.85c0,0-9.01-0.98-12.07-2.4c-3.06-1.42-6.13-8.71-6.13-8.71l2.34-9.18
				c0,0,4.53,11.96,6.11,13.46C315.69,261.39,324.54,263.86,324.54,263.86z"/>
			<path class="st17" d="M360.98,258.89h-38.11c-1.01,0-1.84-0.82-1.84-1.84v-22.98c0-1.01,0.82-1.84,1.84-1.84h38.11
				c1.01,0,1.84,0.82,1.84,1.84v22.98C362.81,258.07,361.99,258.89,360.98,258.89z"/>
			<path class="st5" d="M323.2,257.07v-22.98c0-1.01,0.82-1.84,1.84-1.84h-2.17c-1.01,0-1.84,0.82-1.84,1.84v22.98
				c0,1.01,0.82,1.84,1.84,1.84h2.17C324.03,258.89,323.2,258.07,323.2,257.07z"/>
			<path class="st5" d="M341.99,265.48c0,0,0.84-8.1-2.85-10.84c0,0-0.84-0.69,0.54-1.48s5.22-1.7,6.52,0.67
				c1.3,2.37,2.17,6.52,1.62,11.64L341.99,265.48L341.99,265.48z"/>
			<g>
				<g>
					<rect x="289.02" y="284.79" class="st17" width="1.73" height="45.54"/>
					<rect x="321.03" y="284.79" class="st17" width="1.73" height="45.54"/>
				</g>
				<rect x="284.38" y="282.1" class="st5" width="43.01" height="4.45"/>
			</g>
			<path class="st5" d="M307.73,309.95c0,0-4.39,3.82-4.36,4.38c0.02,0.55,7.51,13.28,8.81,13.32s1.61-2.17,1.4-3
				c-0.21-0.84-2.61-12.97-2.61-12.97L307.73,309.95z"/>
			<path class="st5" d="M301.36,312.32c0,0-4.27,3.95-4.23,4.51s7.91,13.05,9.21,13.05s1.54-2.21,1.3-3.04
				c-0.24-0.83-3-12.89-3-12.89L301.36,312.32z"/>
			<path class="st11" d="M304.12,268.64c0,0,5.55,2.64,11.93,5.13c4.05,1.58,9.71,3.65,9.52,7.99c-0.13,3.17-12.89,33.7-12.89,33.7
				l-5.8-2.9c0,0,10.61-25.7,10.43-27.45s-1.42-0.2-11.91-1.15c-10.49-0.95-13.67-2.95-13.6-7.93c0.07-4.98,2.81-11.94,7.06-13.71
				C303.11,260.57,304.12,268.64,304.12,268.64z"/>
			<path class="st12" d="M304.12,268.64c0,0,2.12,2.69,8.5,5.18c4.05,1.58,9.08,4.47,9.07,7.25c0,3.17-11.88,32.96-11.88,32.96
				l-2.93-1.46c0,0,10.61-25.7,10.43-27.45s-1.42-0.2-11.91-1.15c-10.49-0.95-13.67-2.95-13.6-7.93c0.07-4.98,2.81-11.94,7.06-13.71
				S304.12,268.64,304.12,268.64z"/>
			<path class="st11" d="M301.25,264.85c0,0,1.69,7.03,5.69,8.72c4.01,1.69,13.21,3.57,13.2,8.01c0,3.17-13.73,34.58-13.73,34.58
				l-7.04-3.29c0,0,9.3-25.41,9.06-27.15s0.69-0.89-9.83-1.52c-10.52-0.63-11.93-2.64-12.01-7.62c-0.08-4.98,6.38-11.73,6.38-11.73
				C297.16,262.94,301.25,264.85,301.25,264.85z"/>
			<path class="st9" d="M303.99,234.59c0,0-1.66,6.8,1.42,10.28c0,0,4.11,5.53-2.37,6.48s-5.64-7.56-5.64-7.56s1.11-9.38-0.58-13.44
				C296.82,230.35,301.03,232.67,303.99,234.59z"/>
			<path class="st8" d="M299.63,224.97c0,0,8.89,0.45,8.95,2.65s-0.75,3.64-0.45,5.56c0.64,4.13-1.77,8.68-2.82,8.87
				c-1.63,0.29-7.14-2.14-8.01-5.49C296.43,233.22,296.21,223.64,299.63,224.97z"/>
			<path class="st8" d="M308.1,264.27c0,0,1.86,0.24,2.25,0.24c0.4,0,5.53-2.89,6.09-2.49c0.55,0.4,5.77,4.03,5.61,4.74
				c-0.16,0.71-1.62,0.28-4.39-2.06c0,0,3.69,2.61,2.98,3.24c-0.71,0.63-3.93-2.29-3.93-2.29s3.32,2.48,2.53,3.03
				c-0.79,0.55-3.72-2.4-3.72-2.4s2.29,2.21,1.98,2.58c-0.32,0.37-1.77-0.26-3.35-1.74c0,0-0.29-0.16-1.13,0.29
				c-0.84,0.45-6.01-0.42-6.01-0.42L308.1,264.27z"/>
			<path class="st5" d="M309.33,231.79c0,0-6.19,1.41-8.21-3.34c-1.6-3.75-1.05-4.21-1.05-4.21s3.42-2.66,7.44,0.95
				C310.2,227.62,309.33,231.79,309.33,231.79z"/>
			<path class="st5" d="M300.59,224.15c0,0,3.29,2.89,1.47,5.64c-1.65,2.48-0.56,3.81-0.9,5.47c0,0-0.79-0.36-0.96-1.13
				c-0.17-0.77-0.43-2.73-1.46-2.44c-1.03,0.28-2,1.56-0.01,3.2c0,0,1.08,2.23-0.32,3.98c0,0-5.31-4.56-3.77-9.69
				C296.18,224.04,300.59,224.15,300.59,224.15z"/>
			<path class="st15" d="M304.74,243.94c0,0,0.41,3.22-0.75,3.8c-1.16,0.58-5.27-5.48-5.27-5.48s-5.6,2.35-6.86,3.38
				c-1.27,1.03,0.57,10.9,0.57,10.9s-3.9,11.83-3.41,14.36s17.53-0.5,17.53-0.5s1.65-12.07,2.28-13.86s1.45-2.86,0.63-5.47
				c-1.16-3.69-1.47-4.63-1.47-4.63S305.97,244.51,304.74,243.94z"/>
			<path class="st14" d="M294.58,254.65c-1.28-1.71-0.51-4.58-1.86-6.35c-0.41-0.54-0.83-1.05-1.26-1.57
				c-0.33,2.84,0.96,9.79,0.96,9.79s-3.9,11.83-3.41,14.36s17.53-0.5,17.53-0.5s1.45-10.63,2.15-13.42
				c-0.43,0.65-3.88,4.85-7.67,4.27C298.9,260.91,297.16,258.12,294.58,254.65z"/>
			<path class="st5" d="M297.58,232.9c0,0-0.1,1.31,1.02,1.62c0.46,0.13,0.41,1.56,0.79,3.01c0.71,2.76,0.26,4.63-1.79,5.43
				c-1.47,0.57-3.55,1.03-5.92,2.69c-2.37,1.66-0.85-5.26,2.14-7.02C296.79,236.88,297.58,232.9,297.58,232.9z"/>
			<path class="st5" d="M351.27,268.98h-12.45c-0.75,0-1.24-0.79-0.9-1.46l0.73-1.46c0.17-0.34,0.52-0.56,0.9-0.56h10.98
				c0.38,0,0.73,0.22,0.9,0.56l0.73,1.46C352.51,268.19,352.02,268.98,351.27,268.98z"/>
			<g>
				<g>
					<rect x="261.23" y="268.98" class="st18" width="109.06" height="2.92"/>
					<g>
						<g>
							<rect x="265.26" y="270.23" class="st18" width="1.27" height="60.11"/>
						</g>
						<g>
							<rect x="364.99" y="270.23" class="st18" width="1.27" height="60.11"/>
						</g>
					</g>
				</g>
			</g>
			<path class="st15" d="M309.68,264.13l-0.32,3.67c0,0-21.66,0.23-24.93-0.19c-3.27-0.42-4.74-4.74-2.64-8.54
				c2.11-3.8,8.38-13.65,11.12-13.86s4.32,3.53,2.06,7.59c-2.27,4.06-6.38,7.96-5.48,8.64
				C290.39,262.12,309.68,264.13,309.68,264.13z"/>
		</g>
	</g>
	<g>
		<g>
			<path class="st5" d="M770.19,248.48c0,0-9.37-0.7-12.27-5.52c-2.89-4.82-0.04-8.11,2.37-9.65c2.41-1.53,5.92-3.9,6.05-6.09
				s0.02-7.58,5.61-9.36c1.89-0.6,4.06-0.52,5.88,0.32c0.94,0.44,1.67,1.06,2.33,1.86c0.64,0.77,0.84,1.42,1.05,2.41
				c0.17,0.8,0.16,1.55,0.13,2.38c-0.04,1.28-0.32,2.58-0.44,3.86c-0.1,1.1-0.17,2.19-0.17,3.31c0,0.75,0.14,1.45,0.38,2.17
				c0.24,0.71,0.64,1.36,0.9,2.07c0.26,0.69,0.84,2.08,1.03,2.79c0.31,1.21,0.08,1.86-0.04,3.11c-0.3,3.1-2.57,5.05-5.47,5.84
				C775.17,248.61,772.61,248.67,770.19,248.48z"/>
			<path class="st9" d="M776.91,230.76c-1.71-0.18-2.98-1-3.81-2.12c0.21,1.22,0.32,3.86-1.69,6.84c0,0-0.03,6.23,3.99,5.62
				s3.55-5.26,3.55-5.26S776.56,234.25,776.91,230.76z"/>
			<path class="st8" d="M772.68,220.86c0,0,3.83-1.61,5.26-0.82s2.08,3.04,2.54,5.23c0.47,2.19-0.66,6.46-2.78,7.16
				c-2.49,0.83-4.68-1.23-5.5-3.83c0,0-2.19-0.53-2.02-3.45C770.37,222.23,771.1,220.57,772.68,220.86z"/>
			<path class="st6" d="M778.14,235.04c0,0-1.65,2.95-2.5,3.51s-4.34-4.01-4.34-4.01s-4.02,2.44-7.32,3.31c0,0-1.15,12.16-1.9,14.97
				c0,0-1.31,15.38-1.31,17.45h20.65c-0.56-10.44,3.54-19.5,3.54-19.5s-1.2-9.39-0.55-11.73
				C784.41,239.03,779.76,236.38,778.14,235.04z"/>
			<path class="st7" d="M784.96,250.76c0,0-0.29-2.3-0.51-4.91c-1.43,2.81-2.25,5.76-3.38,8.72c-1.33,3.5-5.24,10.15-10.03,8.64
				c-3.78-1.19-4.97-5.56-5.57-9.06c-0.33-1.91-0.63-3.85-0.83-5.78c-0.17-1.59-0.22-4.2-1.1-5.55c-0.51,0.45-0.71,2.02-0.78,2.7
				c-0.09,1.01-0.12,2.03-0.16,3.05c-0.02,0.52-0.05,1.04-0.09,1.55c-0.04,0.45-0.13,0.87-0.19,1.31c-0.05,0.31-0.06,0.64-0.13,0.94
				c-0.01,0.04-0.02,0.08-0.03,0.12c-0.03,0.12-0.05,0.23-0.08,0.32c0,0-1.31,15.38-1.31,17.45h20.65
				C780.85,259.82,784.96,250.76,784.96,250.76z"/>
			<polygon class="st3" points="771.52,234.29 769.27,235.62 772.7,241.23 775.64,238.81 778.45,241.08 779.83,236.12 
				777.83,234.67 775.71,238.21 			"/>
			<path class="st5" d="M778.4,221.26c0,0-0.74,2.6-2.97,3.23c-0.95,0.27-1.56,1.21-1.46,2.19c0.05,0.45-1.03,0.52-1.06,0.22
				s0.24-1.86-1.1-2.17c-1.34-0.31-1.44,1.69-0.24,2.89c0,0,2.24,2.37,1.19,4.99c-1.05,2.62-3.23,5.16-7.44,5.65
				c-4.21,0.48-5.98,6.37-5.98,6.37s-4.23-4.97,0.46-8.57s8.02-5.66,7.98-8.03c-0.04-2.36,1.52-8.77,5.55-9.2
				C777.36,218.4,778.4,221.26,778.4,221.26z"/>
			<path class="st5" d="M781.07,224.95c0,0-1.75,0.25-3.63-2.36c-1.87-2.62-1.87-4.71-1.87-4.71S782.33,218.95,781.07,224.95z"/>
			<g>
				<g>
					<rect x="760.65" y="282.32" class="st17" width="1.68" height="44.32"/>
					<rect x="791.79" y="282.32" class="st17" width="1.68" height="44.32"/>
				</g>
				<g>
					<rect x="812.28" y="282.32" class="st17" width="1.68" height="44.32"/>
					<rect x="843.42" y="282.32" class="st17" width="1.68" height="44.32"/>
				</g>
				<rect x="756.13" y="279.69" class="st5" width="41.85" height="4.33"/>
			</g>
			<path class="st5" d="M783.41,308.96c0,0-3.8,4.2-3.71,4.73s8.78,11.97,10.05,11.86c1.26-0.11,1.3-2.28,1-3.06
				s-4.02-12.24-4.02-12.24L783.41,308.96z"/>
			<path class="st5" d="M772.65,309.1c0,0-4.15,3.85-4.12,4.39s7.69,12.69,8.96,12.69s1.5-2.15,1.27-2.96s-2.92-12.54-2.92-12.54
				L772.65,309.1z"/>
			<path class="st9" d="M789.52,282.8c-1.48,7-6.45,26.55-6.45,26.55l4.42,2.64c0,0,7.54-19.15,9.94-29.19H789.52z"/>
			<path class="st8" d="M780.66,282.8c-2.18,7.16-8.41,26.73-8.41,26.73l3.94,2.66c0,0,10.44-19.39,14.28-29.38h-9.81V282.8z"/>
			<path class="st11" d="M796.2,275.65c-3.18-1.8-6.61-3.52-10.15-4.44c-0.01,0-0.02-0.01-0.03-0.01c-1.43-0.37-4.03-3.71-4.35-6.55
				c-2.07,0.81-4.62,0.78-7.14,0.86c-3.5,0.12-7.57,0.65-11-0.17c-0.78-0.19-1.47-0.48-2.14-0.82c0,0-3.81,3.51-3.81,9.77
				c0,3.18,0.92,4.59,4.39,5.72c1.86,0.61,11.7-0.3,14.44,0.83c2.43,1.01,2.01,3.59,1.58,5.37c11.57,1.66,17.57,0.54,19.71,0.04
				C798.38,283.99,799.9,277.76,796.2,275.65z"/>
			<path class="st5" d="M828.05,264.6c0,0-9.85-0.05-13.31-2.36s-4.06-11.47,0.96-15.22s6.06-4.9,6.28-7.37
				c0.22-2.47,0.17-8.08,6.67-8.1c6.38-0.02,5.83,5.2,6.32,8.53c0.34,2.32,3.52,5.73,6.31,7.87
				C844.87,250.7,848.88,266.91,828.05,264.6z"/>
			<path class="st9" d="M830.97,241.33c-0.52,0.17-1.1,0.27-1.74,0.27c-1.16,0-2.13-0.31-2.92-0.82c-0.27,1.85,0.57,4.02-1.24,4.53
				c0,0,0.11,7.96,3.31,7.96s3.63-8.01,3.63-8.01S830.54,244.96,830.97,241.33z"/>
			<path class="st8" d="M833,239.35c-0.33-0.71-1.17-0.36-1.17-0.36c0.16-1.94,0.16-4.98,0.16-4.98l-3.35-0.35l-3.35,0.35
				c0,0-0.01,3.04,0.16,4.98c0,0-0.84-0.35-1.17,0.36c-0.56,1.21,0.8,2,0.8,2c-0.05-0.02,0.93,4.08,3.56,4.32
				c2.63-0.23,3.61-4.34,3.56-4.32C832.21,241.35,833.56,240.54,833,239.35z"/>
			<g>
				<path class="st5" d="M832.46,233.95c0,0-1.76,4.53-6.59,4.2c0,0,0.16,0.77-0.13,1.51c0,0-0.67-1.9-1.41-1.47
					c-0.75,0.42-1.04,1.14-1.04,1.14s-0.7-5.37,2.78-6.57C829.55,231.57,832.46,233.95,832.46,233.95z"/>
				<path class="st5" d="M830.92,233.54c-0.04,0.25-0.08,0.5-0.07,0.75c0.01,0.54,0.03,1.07,0.01,1.6c0.71,0.78,0.96,2.25,0.87,2.46
					c-0.03,0.27-0.04,0.8,0.16,1.31c0,0,0.67-1.9,1.41-1.47c0.75,0.42,1.04,1.14,1.04,1.14S834.09,233.44,830.92,233.54z"/>
			</g>
			<path class="st17" d="M838,257.96c-0.97-2.81-0.47-10.36-0.47-10.36c-1.19-0.37-5.87-2.57-5.87-2.57l-3.03,7.33l-3.2-7.28
				c0,0-3.77,1.81-4.97,2.19c0,0-0.24,7.88-1.21,10.69c0,0,2.96,4.84,0,15.67h9.37H838C835.04,262.8,838,257.96,838,257.96z"/>
			<path class="st19" d="M838,257.96c-0.24-0.69-0.32-3.17-0.41-4.36c-0.45,1.19-0.97,3.81-1.43,4.99c-1.54,3.99-3.2,5.64-7.67,5.71
				c-3.57,0.06-6.91-5.72-7.28-6.78c-0.43-1.23-0.97-2.41-1.42-3.61c-0.07,1.63-0.23,3.15-0.54,4.05c0,0,2.96,4.84,0,15.67H838
				C835.04,262.8,838,257.96,838,257.96z"/>
			<path class="st8" d="M837.31,265.94c0,0-1.59,0.81-2.11,0.66c-0.64-0.18-0.78-0.49-1.88-0.15s-1.39,0.5-2.05,0.9
				c-0.55,0.33-1.63,0.86-1.28,1.5c0.34,0.64,1.48-0.21,1.6-0.26c0.12-0.05,0.48-0.22,0.48-0.22s-1.31,0.62-1.07,0.99
				c0.23,0.37,0.89,0.36,1.31,0.13c0.42-0.23,0.78-0.5,0.78-0.5s-0.88,0.61-0.71,0.81c0.16,0.2,0.75,0.31,1.25,0.04
				s0.7-0.52,0.7-0.52s-0.78,0.54-0.08,0.79s1.34-0.49,1.73-0.77c0.39-0.28,0.93-0.9,1.12-1.01c0.19-0.11,1.88-0.71,1.88-0.71
				L837.31,265.94z"/>
			<path class="st5" d="M830.03,269.04l-4.61-7.55c0,0-1.38-0.72-1.31,0.91l5.45,7.04C829.57,269.44,831.15,271.21,830.03,269.04z"
				/>
			<path class="st8" d="M819.72,265.96c0,0,1.63,0.91,1.88,0.83c0.24-0.08,3.66-2.06,4.4-1.71c0.73,0.35,1.17,1.16,1.53,1.65
				c0.35,0.48,1.51,1.89,0.96,2.35s-1.35-1.11-1.64-1.44c-0.3-0.33-1.19-1.26-1.69-1.16c0,0,0.98,0.48,1.41,1.07
				s1.47,1.51,1.09,2.14c-0.39,0.64-1.68-1.22-1.8-1.34s-1-0.84-1.37-0.88c0,0,1.07,0.77,1.2,0.91c0.12,0.14,1.38,1.13,1.16,1.46
				c-0.17,0.26-0.63,0.49-1.6-0.61c-0.38-0.43-1.15-0.81-1.15-0.81s0.88,0.52,1.08,0.74s0.68,0.73,0.31,0.85
				c-0.37,0.11-0.88-0.17-1.43-0.51c-0.55-0.35-1.18-0.51-1.8-0.37c-0.64,0.15-3.63-0.9-3.63-0.9L819.72,265.96z"/>
			<path class="st8" d="M827.71,265.24c0,0,1.27,0.42,1.52,0.97s-0.17,0.86-0.48,0.74L827.71,265.24z"/>
			<path class="st17" d="M820.47,247.28c-1.07,0.29-3.69,1.27-6.12,7.88c-2.21,5.98-3.11,10.86-2.9,12.4
				c0.34,2.5,10.05,2.42,10.05,2.42l0.65-3.86c0,0-4.36-1.42-4.25-1.95c0.14-0.72,1.37-3.38,1.88-5
				C819.86,258.88,821.22,247.07,820.47,247.28z"/>
			<path class="st17" d="M837.31,247.57c0.77,0.12,3.61,1.42,6.12,7.58c2.41,5.9,3.11,10.86,2.9,12.4
				c-0.34,2.5-10.05,2.42-10.05,2.42l-0.65-3.86c0,0,4.36-1.42,4.25-1.95c-0.14-0.72-1.37-3.38-1.88-5
				C837.91,258.88,836.54,247.45,837.31,247.57z"/>
			<path class="st8" d="M806.94,264.15l-1.25,2.2c0,0,1.78,1.06,2.16,1.46c0.38,0.4,1.02,1.92,2.92,2.29
				c1.94,0.37,2.24,0.76,2.74,0.26s-0.79-1.18-1.58-1.36c-0.78-0.18-1.4-0.31-1.3-0.49c0.1-0.18,0.82-0.17,2.18,0.04
				c1.39,0.21,3.18,0.85,3.6,0.57s-1.06-1.47-2.7-1.65c-1.16-0.12-1.79-0.27-1.79-0.27s1.56,0.08,1.95,0.18s2.7,0.76,3.24,0.33
				c0.54-0.43-1.52-1.21-2.96-1.37c-1.41-0.15-1.9-0.04-1.9-0.04s1.62-0.12,2.13-0.06s2.02,0.5,2.18,0.11
				c0.15-0.39-1.09-0.92-2.2-0.95s-2.07,0.13-2.07,0.13s1.47-0.31,2.02-0.27c0.55,0.04,1.39,0.15,1.44-0.11
				c0.05-0.25-0.32-0.73-2.19-0.71c-0.99,0.01-1.94,0.24-2.55,0.36C809.95,264.96,807.22,264.16,806.94,264.15z"/>
			<g>
				<rect x="743.45" y="269.7" class="st18" width="1.3" height="57.26"/>
				<rect x="856.03" y="269.7" class="st18" width="1.3" height="57.26"/>
				<rect x="741.25" y="269.7" class="st18" width="118.28" height="1.52"/>
			</g>
			<path class="st20" d="M840.78,283.04c0.01-0.18,0.01-0.36,0.01-0.51c0-5.48-2.86-9.09-2.86-9.09h-18.76c0,0-2.57,3.61-2.57,9.09
				c0,0.15,0.01,0.33,0.01,0.51H840.78z"/>
			<path class="st5" d="M823.24,309.93c0,0-4.74,5.65-5.3,6.85c-0.55,1.2,0.8,2.71,2.65,2.09c1.85-0.62,7.3-6.84,7.05-7.61
				s-1.48-1.61-1.48-1.61L823.24,309.93z"/>
			<g>
				<rect x="807.84" y="279.69" class="st5" width="41.34" height="4.33"/>
			</g>
			<path class="st8" d="M828.09,281.97c-0.18-2.19,0.22-6.19-3.4-6.19c-5.47,0-4.35,7.87-4.27,8.75c0.86,8.72,2.81,25.4,2.81,25.4
				l2.92-0.36C826.16,309.57,828.17,282.97,828.09,281.97z"/>
			<path class="st5" d="M834.15,309.93c0,0,4.74,5.65,5.3,6.85c0.55,1.2-0.8,2.71-2.65,2.09c-1.85-0.62-7.3-6.84-7.05-7.61
				s1.48-1.61,1.48-1.61L834.15,309.93z"/>
			<path class="st8" d="M829.29,281.97c0.18-2.19-0.22-6.19,3.4-6.19c5.47,0,4.35,7.87,4.27,8.75c-0.86,8.72-2.81,25.4-2.81,25.4
				l-2.92-0.36C831.22,309.57,829.21,282.97,829.29,281.97z"/>
			<path class="st6" d="M808.05,263.32l-1.22,4.53c0,0-15.99-2.86-17.49-5.08c-1.49-2.22-5.29-11.74-5.29-11.74
				s-2.17-7.25,0.35-12.01c0,0,2.38,0.9,3.74,4.59c0.87,2.37,5.12,12.56,5.96,13.63C794.95,258.32,808.05,263.32,808.05,263.32z"/>
			<path class="st8" d="M764.79,266.76c0,0,1.4,0.22,1.7,0.23s4.26-2.07,4.67-1.76s4.29,3.18,4.16,3.72
				c-0.14,0.54-1.23,0.18-3.28-1.65c0,0,2.74,2.06,2.19,2.52s-2.93-1.82-2.93-1.82s2.47,1.95,1.85,2.35c-0.61,0.4-2.77-1.9-2.77-1.9
				s1.69,1.73,1.44,2s-1.33-0.24-2.5-1.39c0,0-0.22-0.13-0.87,0.2c-0.65,0.32-4.55-0.45-4.55-0.45L764.79,266.76z"/>
			<path class="st6" d="M766.1,266.85l-1.26,2.86c0,0-12.06-5.22-12.5-10.08s7-21.3,12.16-21.19c0,0-0.94,11.02-2.32,13.96
				c0,0-2.91,4.62-2.87,5.74C759.36,259.24,766.1,266.85,766.1,266.85z"/>
		</g>
	</g>
	<g>
		<g>
			<path class="st6" d="M461.93,160.62h-54.65c-1.51,0-2.73-1.22-2.73-2.73v-35.2c0-1.51,1.22-2.73,2.73-2.73h54.65
				c1.51,0,2.73,1.22,2.73,2.73v35.2C464.67,159.4,463.44,160.62,461.93,160.62z"/>
			<rect x="407.28" y="123.19" class="st17" width="54.65" height="34.19"/>
		</g>
		<polygon class="st15" points="426.46,133.2 426.46,149.94 442.76,141.57 		"/>
	</g>
	<g>
		<path class="st9" d="M475.98,233.76h-2.72h-2.72c0,0-0.78,7.41-2.2,8.29c0,0-1.75,8.75,4.92,8.75c8.07,0,4.92-8.75,4.92-8.75
			C476.76,241.18,475.98,233.76,475.98,233.76z"/>
		<g>
			<path class="st8" d="M480.33,235.22c-0.75-0.87-1.66,0.45-1.66,0.45s1.24-4.9,0-7.04c-1.24-2.15-5.27-1.02-5.27-1.02
				s-4.03-1.13-5.27,1.02c-1.24,2.15,0,7.04,0,7.04s-0.9-1.32-1.66-0.45c-0.75,0.87,1.24,3.05,1.7,3.32c0,0,2.9,5.42,5.24,5.42
				c2.34,0,5.24-5.42,5.24-5.42C479.09,238.26,481.08,236.09,480.33,235.22z"/>
			<path class="st5" d="M472.39,229.54c0,0-3.05,0.54-3.39,2.18c-0.16,0.8,0.02,1.66,0.16,2.44c0.08,0.42,0.37,2.65,0.26,2.7
				s-0.31,0-0.4-0.07c-0.41-0.33-0.74-0.82-1.03-1.25c-0.58-0.85-1.41-0.71-1.65-0.17c0,0-0.68-8.04,2.68-8.32
				C472.39,226.78,472.39,229.54,472.39,229.54z"/>
			<path class="st5" d="M474.37,229.54c0,0,3.05,0.54,3.39,2.18c0.16,0.8-0.02,1.66-0.16,2.44c-0.08,0.42-0.37,2.65-0.26,2.7
				s0.31,0,0.4-0.07c0.41-0.33,0.74-0.82,1.03-1.25c0.58-0.85,1.41-0.71,1.65-0.17c0,0,0.68-8.04-2.68-8.32
				C474.37,226.78,474.37,229.54,474.37,229.54z"/>
			<path class="st5" d="M478.86,227.54c0,0,0.07-1.32-1.43-2.14c-1.51-0.82-4.5-1.19-6.87,0s-3.09,1.46-3.79,1.06
				c-0.69-0.4-0.25-0.79-0.25-0.79s-1.55-0.01-1.48,2.4c0.08,2.41,3.04,5.41,6.91,5.41C477.86,233.47,479.77,229.34,478.86,227.54z"
				/>
		</g>
		<path class="st17" d="M478.18,242.06c-0.29,7.44-4.92,6.67-4.92,6.67s-4.63,0.77-4.92-6.67c0,0-7.4,2.05-11.01,4.46
			c0,0,1.54,6.5,1.63,13.71l4.23,16.39l10.06,0.5l10.06-0.5l4.23-16.39c0.1-7.21,1.63-13.71,1.63-13.71
			C485.58,244.1,478.18,242.06,478.18,242.06z"/>
		<path class="st19" d="M486.83,250.82c-4.6,2.45-6.84,8.09-11.3,10.86c-4.62,2.86-7.89-2.92-10.14-5.92
			c-1.94-2.59-4.4-4.68-7.4-5.89c0.43,2.57,0.93,6.36,0.99,10.36l4.23,16.39l10.06,0.5l10.06-0.5l4.23-16.39
			c0.05-3.93,0.53-7.64,0.96-10.21C487.93,250.28,487.36,250.54,486.83,250.82z"/>
		<path class="st6" d="M491.92,283.24c0-5.75-7.13-9.53-7.13-9.53h-23.96c0,0-7.13,3.78-7.13,9.53c0,0.93,0.22,2.49,0.58,4.44h7.96
			c-0.32,0.58-0.62,1.13-0.85,1.59c-0.07,0.14-0.15,0.26-0.22,0.4c1.19,0,2.37,0,3.56,0c0.74,0,1.49,0,2.23,0
			c0.44,0,1.26,0.18,1.14-0.46c-0.17-0.91-0.74-1.43-0.19-2.39c0.44-0.75,1.61-1.37,2.47-1.39c0.19,0,0.38,0,0.56,0
			c1.25,0.03,2.5,0.03,3.75,0c0.53-0.01,0.89,0.15,1.4,0.23c0.41,0.07,0.94,0.07,1.17,0.48c0.27,0.49,0.32,1.26,0.42,1.8
			c0.03,0.17-0.08,1.73-0.13,1.73h8.12c-0.56-0.71-1.01-1.36-1.39-1.99h7.08C491.7,285.74,491.92,284.18,491.92,283.24z"/>
		<path class="st7" d="M491.92,283.24c0-5.75-7.13-9.53-7.13-9.53h-23.96c0,0-7.13,3.78-7.13,9.53c0,0.93,0.22,2.49,0.58,4.44h7.96
			c-0.32,0.58-0.62,1.13-0.85,1.59c-0.07,0.14-0.15,0.26-0.22,0.4h6.93c0.18,0-0.28-1-0.32-1.09c-0.17-0.37-0.22-0.78-0.12-1.19
			c0.1-0.39,0.49-0.81,0.79-1.07c1.13-0.96,2.71-0.99,4.12-0.95c1.38,0.04,2.89-0.15,4.09,0.66c0.25,0.17,0.43,0.3,0.62,0.53
			c0.83,1.03,0.4,1.97,0.27,3.12h8.12c-0.56-0.71-1.01-1.36-1.39-1.99h7.08C491.7,285.74,491.92,284.18,491.92,283.24z"/>
		<path class="st17" d="M457.33,246.51c0,0-9.15,19.78-8.49,22.41c0.17,0.66,11.3,7.38,16.54,6.42l2.13-0.39
			C467.52,274.95,459.74,246.38,457.33,246.51z"/>
		<path class="st17" d="M489.17,246.51c0,0,9.15,19.78,8.49,22.41c-0.17,0.66-11.3,7.38-16.54,6.42l-2.13-0.39
			C478.99,274.95,486.76,246.38,489.17,246.51z"/>
		<path class="st19" d="M460.9,253.44c-0.01,0.91-0.12,1.87-0.35,2.89c-0.81,3.57-2.09,7.3-0.75,10.93
			c1.01,2.75,2.63,5.53,4.13,8.17c0.52,0.02,1.01,0,1.45-0.08l2.13-0.39C467.52,274.95,463.95,261.85,460.9,253.44z"/>
		<path class="st19" d="M484.17,275.24c0.67-1.66,1.08-3.41,1.01-5.27c-0.12-3.65-0.14-7.3-0.08-10.96
			c0.03-1.58,0.07-3.11,0.16-4.61c-2.97,8.41-6.27,20.54-6.27,20.54l2.13,0.39C482,275.51,483.04,275.44,484.17,275.24z"/>
		<path class="st5" d="M464.13,317.47c0,0-5.81,6.91-6.48,8.38c-0.68,1.47,0.98,3.32,3.24,2.56c2.26-0.75,3.58-2.3,3.62-3.28
			c0.04-0.98,1.24-1.5,1.77-1.58c0.53-0.08,3.54-3.51,3.24-4.45s-1.82-1.97-1.82-1.97L464.13,317.47z"/>
		<path class="st5" d="M481.48,317.47c0,0,5.81,6.91,6.48,8.38c0.68,1.47-0.98,3.32-3.24,2.56c-2.26-0.75-3.58-2.3-3.62-3.28
			c-0.04-0.98-1.24-1.5-1.77-1.58c-0.53-0.08-3.54-3.51-3.24-4.45s1.82-1.97,1.82-1.97L481.48,317.47z"/>
		<g>
			<rect x="450.2" y="288.66" class="st17" width="1.89" height="39.93"/>
			<rect x="493.93" y="288.66" class="st17" width="1.89" height="39.93"/>
			<rect x="446.49" y="285.44" class="st5" width="51.8" height="5.12"/>
		</g>
		<path class="st6" d="M466.16,282.94c-0.69-1.64-0.83-5.12-5.49-5.12c-8.97,0-6.87,7.19-6.73,8.26c1.36,10.7,7.86,32.05,7.86,32.05
			h8.98c0,0-3.27-26.16-3.77-30.19C466.95,287.38,466.63,284.07,466.16,282.94z"/>
		<path class="st6" d="M479.47,282.94c0.69-1.64,0.83-5.12,5.49-5.12c8.97,0,6.87,7.19,6.73,8.26c-1.36,10.7-7.86,32.05-7.86,32.05
			h-8.98c0,0,3.27-26.16,3.77-30.19C478.68,287.38,479,284.07,479.47,282.94z"/>
		<g>
			<rect x="460.08" y="275.17" class="st5" width="26.37" height="1.56"/>
			<path class="st5" d="M490.33,256.89H456.2c0,0-1.84,0-1.53,2.06c0.32,2.06,4.62,16.43,5.49,16.43c1.61,0,13.11,0,13.11,0
				s11.49,0,13.11,0c0.76,0,5.17-14.38,5.49-16.43C492.17,256.89,490.33,256.89,490.33,256.89z"/>
			<path class="st3" d="M474.67,266.85c0,0.78-0.63,1.41-1.41,1.41c-0.78,0-1.41-0.63-1.41-1.41s0.63-1.41,1.41-1.41
				C474.04,265.43,474.67,266.07,474.67,266.85z"/>
		</g>
	</g>
	<g>
		<polygon class="st14" points="112.01,285.04 112.01,286.99 134.13,286.99 134.13,292.08 112.01,292.08 112.01,294.04 
			159.19,294.04 159.19,285.04 		"/>
		<path class="st6" d="M164.89,295.38L164.89,295.38h1.43v-1.35h-49.6v6.22h49.6v-1.35h-1.43l0,0c-0.47-0.05-0.85-0.81-0.85-1.76
			C164.05,296.2,164.42,295.43,164.89,295.38z"/>
		<rect x="137.8" y="285.04" class="st15" width="21.38" height="9"/>
		<rect x="116.72" y="294.04" class="st7" width="27.38" height="6.22"/>
		<path class="st21" d="M112.01,286.99L112.01,286.99c0.68,0.07,1.22,1.18,1.22,2.55c0,1.36-0.54,2.47-1.22,2.54v0.01h23.77v-5.09
			h-23.77V286.99z"/>
		<polygon class="st15" points="164.52,266.26 164.52,264.3 142.4,264.3 142.4,259.2 164.52,259.2 164.52,257.26 117.34,257.26 
			117.34,266.26 		"/>
		<rect x="117.34" y="257.26" class="st14" width="21.38" height="9"/>
		<path class="st21" d="M164.52,264.3L164.52,264.3c-0.68-0.07-1.22-1.18-1.22-2.55c0-1.36,0.54-2.47,1.22-2.54v-0.01h-23.77v5.09
			h23.77V264.3z"/>
		<polygon class="st15" points="170.09,325.33 170.09,323.97 137.74,323.97 137.74,320.4 170.09,320.4 170.09,319.04 101.11,319.04 
			101.11,325.33 		"/>
		<rect x="101.11" y="319.04" class="st14" width="31.27" height="6.3"/>
		<path class="st21" d="M170.09,323.97L170.09,323.97c-1-0.05-1.79-0.83-1.79-1.78c0-0.96,0.79-1.73,1.79-1.78l0,0h-34.76v3.56
			H170.09z"/>
		<polygon class="st22" points="104.8,300.26 104.8,302.2 128.51,302.2 128.51,307.29 104.8,307.29 104.8,309.26 155.36,309.26 
			155.36,300.26 		"/>
		<rect x="132.44" y="300.26" class="st23" width="29.1" height="9"/>
		<path class="st21" d="M104.8,302.2L104.8,302.2c0.73,0.07,1.31,1.18,1.31,2.55c0,1.36-0.58,2.47-1.31,2.54v0.01h53.44v-5.09H104.8
			V302.2z"/>
		<path class="st21" d="M132.52,302.2H104.8v0.01c0.73,0.07,1.31,1.18,1.31,2.54c0,1.36-0.58,2.47-1.31,2.54v0.01h27.72V302.2z"/>
		<polygon class="st22" points="107.41,276.04 107.41,277.99 127.06,277.99 127.06,283.08 107.41,283.08 107.41,285.04 
			149.31,285.04 149.31,276.04 		"/>
		<rect x="130.32" y="276.04" class="st23" width="24.11" height="9"/>
		<path class="st21" d="M107.41,277.99L107.41,277.99c0.61,0.07,1.09,1.18,1.09,2.55c0,1.36-0.48,2.47-1.09,2.54v0.01h44.28v-5.09
			h-44.28V277.99z"/>
		<path class="st21" d="M130.38,277.99h-22.97v0.01c0.61,0.07,1.09,1.18,1.09,2.54c0,1.36-0.48,2.47-1.09,2.54v0.01h22.97V277.99z"
			/>
		<polygon class="st17" points="167.18,319.04 167.18,316.91 140.41,316.91 140.41,311.38 167.18,311.38 167.18,309.26 
			113.45,309.26 113.45,319.04 		"/>
		<rect x="107.24" y="309.26" class="st19" width="29.23" height="9.79"/>
		<path class="st21" d="M167.18,316.91L167.18,316.91c-0.73-0.08-1.32-1.29-1.32-2.77s0.58-2.69,1.32-2.76v-0.01h-56.63v5.54H167.18
			z"/>
		<path class="st21" d="M136.39,316.91h30.79v-0.01c-0.73-0.07-1.32-1.28-1.32-2.76s0.58-2.69,1.32-2.76v-0.01h-30.79L136.39,316.91
			L136.39,316.91z"/>
		<polygon class="st17" points="158.15,276.04 158.15,273.92 137.33,273.92 137.33,268.38 158.15,268.38 158.15,266.26 
			116.36,266.26 116.36,276.04 		"/>
		<rect x="111.53" y="266.26" class="st19" width="22.73" height="9.79"/>
		<path class="st21" d="M158.15,273.92L158.15,273.92c-0.57-0.08-1.03-1.29-1.03-2.77c0-1.48,0.45-2.69,1.03-2.76v-0.01H114.1v5.54
			H158.15z"/>
		<path class="st21" d="M134.2,273.92h23.95v-0.01c-0.57-0.07-1.03-1.28-1.03-2.76s0.45-2.69,1.03-2.76v-0.01H134.2V273.92z"/>
		<polygon class="st21" points="149.59,298.9 164.89,298.9 164.89,298.9 		"/>
		<path class="st21" d="M164.05,297.14c0-0.94,0.38-1.71,0.85-1.76l0,0h-19.07v3.52h19.07l0,0
			C164.42,298.85,164.05,298.1,164.05,297.14z"/>
		<path class="st6" d="M159.58,249.85L159.58,249.85l1.05-0.01v-2.06h-36.51v9.48h36.51v-2.06h-1.05l0,0
			c-0.35-0.07-0.62-1.24-0.62-2.68C158.95,251.09,159.23,249.92,159.58,249.85z"/>
		<rect x="124.12" y="247.79" class="st7" width="20.15" height="9.48"/>
		<path class="st21" d="M158.95,252.53c0-1.44,0.28-2.61,0.62-2.68v-0.01h-14.04v5.36h14.04l0,0
			C159.23,255.14,158.95,253.97,158.95,252.53z"/>
	</g>
	<g>
		<g>
			<g>
				<path class="st3" d="M587.08,153.62h-26.29l-14.1,11.51l6.34-11.51h-6.46c-1.12,0-2.03-0.91-2.03-2.03V125.5
					c0-1.12,0.91-2.03,2.03-2.03h40.51c1.12,0,2.03,0.91,2.03,2.03v26.09C589.11,152.72,588.2,153.62,587.08,153.62z"/>
			</g>
		</g>
		<g>
			<path class="st5" d="M572.9,134.65c0,3.48-4.38,4.5-4.38,5.86v0.54h-4.38v-1.28c0-1.87,3.33-2.94,3.33-5.02
				c0-0.95-0.61-1.79-1.69-1.79c-1.38,0-1.66,1.07-1.66,2.15c0,0.23,0,0.46,0.03,0.69h-4.71c-0.02-0.33-0.08-0.64-0.08-0.97
				c0-3.33,2.97-5.4,6.99-5.4C570.26,129.43,572.9,131.48,572.9,134.65z M568.9,147.35h-5.07v-4.74h5.07V147.35z"/>
		</g>
	</g>
	<g>
		<g>
			<g>
				<path class="st3" d="M107.23,160.32h-4.8l4.15,8.9l-9.03-8.9h-15.8c-0.7,0-1.27-0.57-1.27-1.27v-16.41
					c0-0.7,0.57-1.27,1.27-1.27h25.47c0.7,0,1.27,0.57,1.27,1.27v16.41C108.5,159.75,107.93,160.32,107.23,160.32z"/>
			</g>
		</g>
		<g>
			<path class="st5" d="M98.31,148.39c0,2.19-2.75,2.83-2.75,3.69v0.34H92.8v-0.81c0-1.17,2.09-1.85,2.09-3.15
				c0-0.6-0.39-1.13-1.06-1.13c-0.87,0-1.05,0.68-1.05,1.35c0,0.15,0,0.29,0.02,0.43h-2.96c-0.02-0.21-0.05-0.4-0.05-0.61
				c0-2.09,1.87-3.4,4.39-3.4C96.65,145.1,98.31,146.39,98.31,148.39z M95.8,156.37h-3.19v-2.98h3.19V156.37z"/>
		</g>
	</g>
	<g>
		<g>
			<g>
				<path class="st3" d="M356.71,156.14h-20.07l-10.76,8.79l4.84-8.79h-4.93c-0.85,0-1.55-0.69-1.55-1.55v-19.92
					c0-0.85,0.69-1.55,1.55-1.55h30.93c0.85,0,1.55,0.69,1.55,1.55v19.92C358.26,155.45,357.57,156.14,356.71,156.14z"/>
			</g>
		</g>
		<g>
			<path d="M337.05,149.96h-3.76v-3.53h3.76V149.96z"/>
			<path d="M342.95,149.96h-3.76v-3.53h3.76V149.96z"/>
			<path d="M348.85,149.96h-3.76v-3.53h3.76V149.96z"/>
		</g>
	</g>
	<polygon class="st24" points="515.7,133.62 511.26,133.62 511.26,129.19 508.77,129.19 508.77,133.62 504.33,133.62 504.33,136.12 
		508.77,136.12 508.77,140.56 511.26,140.56 511.26,136.12 515.7,136.12 	"/>
	<polygon class="st24" points="86.17,210.46 81.73,210.46 81.73,206.01 79.23,206.01 79.23,210.46 74.79,210.46 74.79,212.96 
		79.23,212.96 79.23,217.39 81.73,217.39 81.73,212.96 86.17,212.96 	"/>
	<polygon class="st24" points="104,262.9 99.56,262.9 99.56,258.47 97.06,258.47 97.06,262.9 92.62,262.9 92.62,265.4 97.06,265.4 
		97.06,269.85 99.56,269.85 99.56,265.4 104,265.4 	"/>
	<polygon class="st24" points="307.27,149.89 302.83,149.89 302.83,145.45 300.34,145.45 300.34,149.89 295.9,149.89 295.9,152.38 
		300.34,152.38 300.34,156.82 302.83,156.82 302.83,152.38 307.27,152.38 	"/>
	<polygon class="st24" points="164.14,122.11 159.7,122.11 159.7,117.67 157.2,117.67 157.2,122.11 152.76,122.11 152.76,124.61 
		157.2,124.61 157.2,129.06 159.7,129.06 159.7,124.61 164.14,124.61 	"/>
	<polygon class="st24" points="707.57,116.43 703.13,116.43 703.13,111.99 700.63,111.99 700.63,116.43 696.19,116.43 
		696.19,118.92 700.63,118.92 700.63,123.36 703.13,123.36 703.13,118.92 707.57,118.92 	"/>
	<polygon class="st24" points="912.75,145.99 908.31,145.99 908.31,141.54 905.81,141.54 905.81,145.99 901.37,145.99 
		901.37,148.49 905.81,148.49 905.81,152.93 908.31,152.93 908.31,148.49 912.75,148.49 	"/>
	<polygon class="st24" points="961.79,218.57 957.35,218.57 957.35,214.12 954.85,214.12 954.85,218.57 950.41,218.57 
		950.41,221.07 954.85,221.07 954.85,225.51 957.35,225.51 957.35,221.07 961.79,221.07 	"/>
	<polygon class="st24" points="949.31,286.82 944.87,286.82 944.87,282.38 942.37,282.38 942.37,286.82 937.94,286.82 
		937.94,289.32 942.37,289.32 942.37,293.74 944.87,293.74 944.87,289.32 949.31,289.32 	"/>
	<circle class="st3" cx="540.28" cy="81.08" r="15.89"/>
	<g>
		<path class="st25" d="M914.97,290.79c-2.14-0.91-3.69-1.66-3.32-5.07c0.17-1.62,0.75-2.75,1.91-3.73
			c0.94-0.79,1.42-1.09,1.71-2.41c0.44-2-0.12-3.64,0.84-5.46c1.02-1.95,3.23-1.75,4.25-3.57c0.89-1.57,1.29-3.32,3.3-3.93
			c1.78-0.54,2.85,0.98,2.25,2.53c-0.35,0.9-1.1,1.68-1.32,2.63c-0.22,0.94,0.24,1.59,0.69,2.36c1.07,1.83,1.61,4.04-0.45,5.9
			c-1.24,1.11-2.18,2.08-1.56,3.91c0.71,2.09,1.07,3.37-0.82,5.21c-1.42,1.38-2.73,1.27-4.32,1.37c-1.43,0.09-3.29,0.7-4.45-0.25
			L914.97,290.79z"/>
		<path class="st6" d="M910.41,290.74c-1.53,1.64-2.84,2.92-5.1,0.97c-1.15-0.99-1.65-2.19-1.62-3.89c0.02-1.34,0.12-1.95-0.72-2.98
			c-1.31-1.61-3.19-2.2-4.04-4.28c-0.91-2.24,1.13-3.68,0.39-5.7c-0.64-1.75-1.85-3.4-0.7-4.91c0.94-1.23,2.88-0.49,3.61,0.92
			c0.42,0.81,0.5,1.73,1.04,2.51c0.52,0.76,1.23,0.95,1.98,1.22c1.67,0.6,3.17,1.61,3.31,3.75c0.08,1.32,0.21,2.41,1.47,2.98
			c1.33,0.59,2.07,0.98,2.32,2.98c0.19,1.55-0.31,2.43-0.83,3.67c-0.5,1.19-0.92,3.05-2,3.73L910.41,290.74z"/>
		<g>
			<path class="st3" d="M916.54,288.58c-0.07,0-0.13,0-0.2-0.01c-0.09-0.01-0.15-0.09-0.14-0.18s0.08-0.16,0.18-0.14
				c1.06,0.11,2.16-0.85,2.76-1.71c0.49-0.69,0.44-1.3,0.39-2.09l-0.04-0.65c-0.1-1.69-0.19-3.15,1.12-4.47
				c1.45-1.47,1.81-2.37,1.73-4.41c-0.01-0.17-0.02-0.34-0.03-0.52c-0.04-0.66-0.08-1.41,0.05-2.02c0.07-0.35,0.23-0.68,0.39-1
				c0.2-0.42,0.39-0.81,0.4-1.22c0-0.09,0.07-0.16,0.16-0.16l0,0c0.09,0,0.16,0.07,0.16,0.16c-0.01,0.49-0.22,0.93-0.43,1.36
				c-0.15,0.32-0.3,0.62-0.36,0.93c-0.12,0.58-0.08,1.3-0.04,1.94c0.01,0.18,0.02,0.36,0.03,0.53c0.08,2.12-0.31,3.12-1.83,4.65
				c-1.21,1.22-1.13,2.55-1.03,4.22l0.04,0.64c0.06,0.81,0.11,1.52-0.45,2.3C918.75,287.64,917.67,288.58,916.54,288.58z"/>
		</g>
		<g>
			<path class="st3" d="M920.22,284.1c-0.2,0-0.44-0.08-0.67-0.35c-0.06-0.07-0.05-0.17,0.02-0.23s0.17-0.05,0.23,0.02
				c0.17,0.2,0.35,0.27,0.54,0.22c0.68-0.17,1.42-1.62,1.54-2.16c0.35-1.6,0.77-2.42,2.34-3.03c0.08-0.03,0.18,0.01,0.21,0.09
				s-0.01,0.18-0.09,0.21c-1.51,0.58-1.82,1.33-2.14,2.8c-0.11,0.48-0.87,2.18-1.77,2.41C920.36,284.1,920.29,284.1,920.22,284.1z"
				/>
		</g>
		<g>
			<path class="st3" d="M910.5,289.9c-0.3,0-0.59-0.07-0.85-0.21c-1.12-0.59-1.64-2.34-2.1-3.88c-0.23-0.76-0.44-1.48-0.7-1.95
				c-0.69-1.26-1.45-2.09-2.8-3.08c-1.58-1.16-1.96-2.03-2.24-3.92c-0.23-1.54-0.55-3.1-1.24-4.03c-0.05-0.07-0.04-0.17,0.03-0.23
				c0.07-0.05,0.17-0.04,0.23,0.03c0.74,0.98,1.07,2.59,1.31,4.17c0.27,1.82,0.62,2.61,2.12,3.71c1.15,0.84,2.08,1.7,2.89,3.18
				c0.27,0.5,0.49,1.23,0.73,2.01c0.44,1.48,0.94,3.15,1.95,3.68c0.39,0.21,0.83,0.23,1.34,0.06c0.09-0.02,0.18,0.02,0.2,0.1
				c0.03,0.09-0.02,0.18-0.1,0.2C910.98,289.85,910.74,289.9,910.5,289.9z"/>
		</g>
		<g>
			<path class="st3" d="M905.54,281.95c-0.03,0-0.07-0.01-0.1-0.03c-0.07-0.05-0.08-0.16-0.03-0.23c0.47-0.61,0.18-1.59-0.12-2.62
				c-0.27-0.9-0.54-1.83-0.31-2.58c0.03-0.09,0.12-0.13,0.2-0.11c0.09,0.03,0.13,0.12,0.11,0.2c-0.21,0.66,0.06,1.54,0.31,2.39
				c0.32,1.06,0.64,2.16,0.07,2.91C905.63,281.93,905.58,281.95,905.54,281.95z"/>
		</g>
		<g>
			<path class="st3" d="M907.15,284.13c-0.02,0-0.04,0-0.06-0.01c-0.23-0.09-0.41-0.2-0.58-0.3c-0.28-0.17-0.52-0.31-0.91-0.34
				c-0.21-0.01-0.4,0-0.59,0.02c-0.4,0.03-0.81,0.06-1.31-0.19c-0.7-0.35-1.44-1-2.19-1.92c-0.1-0.13-0.24-0.33-0.38-0.54
				c-0.2-0.31-0.57-0.88-0.72-0.91c-0.08-0.02-0.14-0.11-0.12-0.19c0.02-0.08,0.1-0.14,0.18-0.13c0.25,0.04,0.52,0.43,0.93,1.05
				c0.14,0.21,0.26,0.4,0.36,0.52c0.5,0.61,1.27,1.43,2.09,1.84c0.41,0.21,0.75,0.18,1.14,0.15c0.2-0.02,0.41-0.03,0.64-0.02
				c0.47,0.03,0.77,0.21,1.05,0.38c0.16,0.1,0.33,0.2,0.53,0.28c0.08,0.03,0.12,0.13,0.09,0.21
				C907.28,284.1,907.22,284.13,907.15,284.13z"/>
		</g>
		<path class="st26" d="M909.76,291.1c-2.29-1.93-5.02-3.23-4.4-6.92c0.51-3.05,4.03-3.83,2.92-7.11c-0.7-2.1-2.52-4.52-1.9-6.86
			c0.66-2.5,3.92-1.5,4.63-3.83c0.59-1.97-1.49-4.25,0.36-5.86c1.63-1.42,4.52-0.07,5.39,1.56c1.12,2.08-0.73,3.63-0.43,5.66
			c0.2,1.31,1.46,1.51,2.38,2.26c0.89,0.73,1.85,1.88,2.24,2.98c1.19,3.38-2.21,4.6-3.24,7.2c-0.97,2.45,2.34,3.21,2.59,5.69
			c0.28,2.73-2.65,4.89-5,5.33C913.69,291.51,911.21,292.32,909.76,291.1z"/>
		<g>
			<path class="st3" d="M912.4,291.88c-0.02,0-0.03,0-0.05-0.01c-0.09-0.03-0.13-0.12-0.11-0.2c0.02-0.06,1.85-6.33,0.29-13
				c-0.98-4.22-0.09-7.17,0.62-9.55c0.43-1.41,0.79-2.63,0.59-3.71c-0.02-0.09,0.04-0.17,0.13-0.19s0.17,0.04,0.19,0.13
				c0.21,1.16-0.16,2.41-0.6,3.86c-0.7,2.34-1.58,5.24-0.62,9.38c1.57,6.75-0.28,13.1-0.3,13.16
				C912.53,291.85,912.47,291.88,912.4,291.88z"/>
		</g>
		<g>
			<path class="st3" d="M912.8,278.64c-0.08,0-0.15-0.06-0.16-0.14c-0.01-0.09,0.05-0.17,0.14-0.18c1.34-0.2,2.87-1.43,3.01-2.92
				c0.02-0.18,0.03-0.37,0.04-0.58c0.06-0.98,0.13-2.2,0.85-2.79c0.35-0.29,0.82-0.4,1.39-0.32c0.09,0.01,0.15,0.09,0.14,0.18
				s-0.09,0.15-0.18,0.14c-0.49-0.06-0.86,0.02-1.15,0.25c-0.61,0.5-0.67,1.65-0.73,2.56c-0.01,0.21-0.03,0.41-0.04,0.59
				c-0.16,1.7-1.83,2.99-3.29,3.21C912.82,278.64,912.81,278.64,912.8,278.64z"/>
		</g>
		<g>
			<path class="st3" d="M911.83,278.68c-0.65-0.02-1.18-0.21-1.6-0.57c-0.65-0.57-0.98-1.57-0.95-2.88c0-0.13,0.01-0.28,0.02-0.44
				c0.05-0.93,0.12-2.34-0.46-2.97c-0.19-0.21-0.44-0.32-0.76-0.33c-0.09,0-0.16-0.08-0.16-0.17c0-0.09,0.08-0.16,0.17-0.16l0,0
				c0.4,0.02,0.73,0.16,0.98,0.43c0.67,0.73,0.6,2.22,0.55,3.21c-0.01,0.16-0.02,0.31-0.02,0.44c-0.03,1.22,0.26,2.12,0.84,2.63
				c0.5,0.43,1.21,0.58,2.13,0.43c0.09-0.02,0.17,0.05,0.19,0.13c0.01,0.09-0.05,0.17-0.13,0.19
				C912.34,278.67,912.08,278.69,911.83,278.68z"/>
		</g>
		<g>
			<path class="st3" d="M913.73,289.23c-0.2,0-0.4-0.03-0.59-0.11c-0.08-0.03-0.12-0.13-0.09-0.21c0.03-0.08,0.13-0.12,0.21-0.09
				c0.97,0.4,2.46-0.7,3.02-1.42c0.23-0.3,0.39-0.77,0.55-1.27c0.29-0.88,0.59-1.8,1.41-2c0.09-0.03,0.17,0.03,0.2,0.12
				c0.02,0.09-0.03,0.17-0.12,0.2c-0.65,0.16-0.92,0.99-1.18,1.79c-0.17,0.52-0.34,1.02-0.6,1.37
				C916.04,288.26,914.82,289.23,913.73,289.23z"/>
		</g>
		<g>
			<path class="st3" d="M912.3,289.17c-0.2,0-0.41-0.04-0.63-0.11c-1.18-0.41-2.17-1.88-2.55-2.77c-0.2-0.47-0.22-1.15-0.25-1.86
				c-0.04-1.13-0.08-2.29-0.82-2.66c-0.08-0.04-0.11-0.14-0.07-0.22s0.14-0.11,0.22-0.07c0.91,0.46,0.96,1.78,1,2.94
				c0.02,0.68,0.05,1.32,0.22,1.74c0.34,0.8,1.28,2.21,2.36,2.59c0.42,0.15,0.82,0.12,1.19-0.08c0.08-0.04,0.18-0.01,0.22,0.06
				c0.04,0.08,0.01,0.18-0.06,0.22C912.86,289.1,912.58,289.17,912.3,289.17z"/>
		</g>
		<g>
			<path class="st15" d="M902.05,290.14c-1.16,3.09-1.83,6.72-1.83,10.61c0,11.24,5.58,20.36,12.47,20.36s12.47-9.11,12.47-20.36
				c0-3.89-0.67-7.52-1.83-10.61L902.05,290.14L902.05,290.14z"/>
			<path class="st6" d="M924.64,294.96c-0.31-1.71-0.75-3.33-1.31-4.83h-21.28c-0.56,1.49-1,3.11-1.31,4.83H924.64z"/>
		</g>
	</g>
	<g>
		<path class="st4" d="M305.67,50.21h4.63c2.54,0,4.34,0.23,5.42,0.68c1.08,0.45,1.94,1.2,2.6,2.26c0.65,1.05,0.98,2.29,0.98,3.73
			c0,1.51-0.36,2.77-1.09,3.79c-0.72,1.01-1.81,1.78-3.27,2.3l5.44,10.21h-4.78l-5.16-9.72h-0.4v9.72h-4.37L305.67,50.21
			L305.67,50.21z M310.04,59.18h1.37c1.39,0,2.35-0.18,2.87-0.55c0.52-0.37,0.79-0.97,0.79-1.82c0-0.5-0.13-0.94-0.39-1.31
			c-0.26-0.37-0.61-0.64-1.04-0.8c-0.44-0.16-1.23-0.24-2.4-0.24h-1.2V59.18L310.04,59.18z"/>
		<path class="st4" d="M339.46,49.64c3.25,0,6.04,1.18,8.38,3.53c2.34,2.35,3.51,5.22,3.51,8.6c0,3.35-1.15,6.19-3.46,8.51
			s-5.1,3.48-8.4,3.48c-3.45,0-6.31-1.19-8.59-3.57c-2.28-2.38-3.42-5.21-3.42-8.49c0-2.2,0.53-4.21,1.59-6.06
			c1.06-1.84,2.52-3.3,4.38-4.38C335.31,50.18,337.31,49.64,339.46,49.64z M339.41,53.92c-2.13,0-3.91,0.74-5.36,2.22
			c-1.45,1.48-2.17,3.36-2.17,5.64c0,2.54,0.91,4.55,2.73,6.02c1.42,1.16,3.04,1.73,4.88,1.73c2.07,0,3.84-0.75,5.3-2.25
			c1.46-1.5,2.19-3.35,2.19-5.54c0-2.19-0.73-4.04-2.2-5.55C343.3,54.68,341.51,53.92,339.41,53.92z"/>
		<path class="st4" d="M360.01,50.21h4.39v14.85c0,1.28,0.11,2.18,0.34,2.71c0.22,0.53,0.59,0.95,1.11,1.27
			c0.51,0.32,1.14,0.48,1.87,0.48c0.77,0,1.43-0.18,1.99-0.53s0.94-0.8,1.16-1.35c0.21-0.55,0.32-1.59,0.32-3.13v-14.3h4.39V63.9
			c0,2.31-0.13,3.91-0.39,4.81c-0.26,0.89-0.76,1.76-1.49,2.59c-0.73,0.83-1.58,1.45-2.54,1.85c-0.96,0.4-2.07,0.6-3.34,0.6
			c-1.67,0-3.11-0.38-4.35-1.15c-1.23-0.76-2.12-1.72-2.65-2.87c-0.53-1.15-0.8-3.09-0.8-5.83V50.21H360.01z"/>
		<path class="st4" d="M383.06,50.21h12.69v4.31h-4.18v18.65h-4.43V54.53h-4.07v-4.31H383.06z"/>
		<path class="st4" d="M403.14,50.21h4.34v22.96h-4.34V50.21z"/>
		<path class="st4" d="M417.11,50.21h4.19l9.82,15.11V50.21h4.37v22.96h-4.2l-9.81-15.06v15.06h-4.37V50.21z"/>
		<path class="st4" d="M445.46,50.21h12.53v4.28h-8.19v4.15h8.19v4.2h-8.19v6.04h8.19v4.29h-12.53V50.21z"/>
	</g>
	<g>
		<path class="st4" d="M434.32,377.43h4.26v18.32h6.21v4.06h-10.47V377.43z"/>
		<path class="st4" d="M452.62,377.43h12.22v4.17h-7.99v4.05h7.99v4.09h-7.99v5.89h7.99v4.18h-12.22V377.43z"/>
		<path class="st4" d="M480.21,377.43h4.32l8.61,22.38h-4.43l-1.75-4.61h-9.13l-1.82,4.61h-4.43L480.21,377.43z M482.4,383.38
			l-3,7.68h5.99L482.4,383.38z"/>
		<path class="st4" d="M501.3,377.43h4.51c2.47,0,4.23,0.22,5.28,0.66c1.05,0.44,1.89,1.17,2.53,2.2c0.64,1.02,0.96,2.24,0.96,3.64
			c0,1.47-0.35,2.7-1.06,3.69c-0.7,0.99-1.77,1.74-3.19,2.24l5.3,9.95h-4.66l-5.03-9.48h-0.39v9.48h-4.26v-22.38H501.3z
			 M505.56,386.18h1.33c1.35,0,2.29-0.18,2.8-0.53c0.51-0.36,0.77-0.95,0.77-1.77c0-0.49-0.13-0.91-0.38-1.27s-0.59-0.62-1.02-0.78
			c-0.42-0.16-1.2-0.24-2.34-0.24h-1.17v4.59H505.56z"/>
		<path class="st4" d="M523.68,377.43h4.09l9.57,14.73v-14.73h4.26v22.38h-4.1l-9.56-14.68v14.68h-4.26L523.68,377.43L523.68,377.43
			z"/>
		<path class="st4" d="M550.99,377.43h4.23v22.38h-4.23V377.43z"/>
		<path class="st4" d="M564.61,377.43h4.09l9.57,14.73v-14.73h4.26v22.38h-4.1l-9.56-14.68v14.68h-4.26L564.61,377.43L564.61,377.43
			z"/>
		<path class="st4" d="M612.88,381.08l-3,2.97c-1.9-2.01-4.11-3.01-6.64-3.01c-2.2,0-4.05,0.73-5.53,2.19
			c-1.49,1.46-2.23,3.24-2.23,5.32c0,2.16,0.77,3.99,2.31,5.49s3.45,2.25,5.71,2.25c1.47,0,2.71-0.31,3.72-0.93
			c1.01-0.62,1.83-1.59,2.44-2.91h-6.48v-4h11.26l0.03,0.94c0,1.96-0.51,3.81-1.52,5.57c-1.01,1.75-2.33,3.09-3.94,4.02
			c-1.61,0.92-3.5,1.38-5.67,1.38c-2.32,0-4.39-0.5-6.21-1.51s-3.26-2.45-4.32-4.31c-1.06-1.87-1.59-3.88-1.59-6.04
			c0-2.96,0.98-5.54,2.94-7.73c2.32-2.61,5.34-3.91,9.07-3.91c1.95,0,3.77,0.36,5.46,1.08C610.11,378.57,611.51,379.6,612.88,381.08
			z"/>
	</g>
	<g>
		<path class="st4" d="M765.48,65.08l-3.26,3.23c-2.06-2.18-4.47-3.27-7.22-3.27c-2.4,0-4.4,0.79-6.02,2.38s-2.43,3.52-2.43,5.79
			c0,2.35,0.84,4.34,2.52,5.97c1.68,1.63,3.75,2.45,6.21,2.45c1.6,0,2.95-0.34,4.05-1.01s1.98-1.73,2.66-3.16h-7.05v-4.35h12.24
			l0.03,1.03c0,2.13-0.55,4.15-1.65,6.05c-1.1,1.91-2.53,3.36-4.28,4.37c-1.75,1-3.81,1.5-6.17,1.5c-2.53,0-4.78-0.55-6.76-1.64
			c-1.98-1.1-3.55-2.66-4.7-4.69s-1.73-4.22-1.73-6.57c0-3.22,1.06-6.02,3.19-8.4c2.52-2.83,5.81-4.25,9.86-4.25
			c2.12,0,4.1,0.39,5.94,1.17C762.47,62.35,763.99,63.47,765.48,65.08z"/>
		<path class="st4" d="M787.93,60.5c3.44,0,6.4,1.25,8.88,3.74s3.72,5.53,3.72,9.11c0,3.55-1.22,6.56-3.67,9.01
			c-2.44,2.46-5.41,3.69-8.9,3.69c-3.65,0-6.69-1.26-9.1-3.79c-2.42-2.53-3.62-5.52-3.62-9c0-2.33,0.56-4.47,1.69-6.42
			s2.67-3.5,4.64-4.64C783.53,61.07,785.65,60.5,787.93,60.5z M787.88,65.03c-2.25,0-4.14,0.78-5.68,2.35
			c-1.53,1.57-2.3,3.56-2.3,5.97c0,2.69,0.97,4.82,2.9,6.38c1.5,1.22,3.22,1.84,5.17,1.84c2.2,0,4.07-0.79,5.61-2.38
			c1.55-1.59,2.32-3.54,2.32-5.87c0-2.32-0.78-4.28-2.33-5.88C792,65.83,790.11,65.03,787.88,65.03z"/>
		<path class="st4" d="M817.29,61.11h4.7l9.36,24.33h-4.81l-1.9-5.01h-9.93l-1.98,5.01h-4.81L817.29,61.11z M819.67,67.56
			l-3.26,8.35h6.51L819.67,67.56z"/>
		<path class="st4" d="M839.9,61.11h4.63v19.91h6.75v4.42H839.9V61.11z"/>
		<path class="st4" d="M872.55,64.42l-3.43,3.03c-1.2-1.68-2.43-2.51-3.68-2.51c-0.61,0-1.1,0.16-1.49,0.49
			c-0.39,0.33-0.58,0.69-0.58,1.1c0,0.41,0.14,0.79,0.41,1.16c0.38,0.49,1.51,1.53,3.4,3.13c1.77,1.48,2.84,2.41,3.21,2.79
			c0.94,0.95,1.6,1.86,2,2.72c0.39,0.87,0.59,1.81,0.59,2.84c0,2-0.69,3.65-2.07,4.95c-1.38,1.3-3.18,1.95-5.4,1.95
			c-1.73,0-3.24-0.42-4.53-1.27c-1.29-0.85-2.39-2.18-3.3-4l3.89-2.35c1.17,2.15,2.52,3.23,4.04,3.23c0.79,0,1.46-0.23,2-0.69
			s0.81-1,0.81-1.6c0-0.55-0.2-1.1-0.61-1.65s-1.31-1.39-2.7-2.53c-2.65-2.16-4.36-3.83-5.14-5c-0.77-1.18-1.16-2.35-1.16-3.52
			c0-1.69,0.64-3.13,1.93-4.34s2.87-1.81,4.76-1.81c1.21,0,2.37,0.28,3.47,0.84C870.08,61.92,871.27,62.93,872.55,64.42z"/>
	</g>
</g>
</svg>
