<?xml version="1.0" encoding="utf-8"?>
<!-- Generator: Adobe Illustrator 25.3.0, SVG Export Plug-In . SVG Version: 6.00 Build 0)  -->
<svg version="1.1" xmlns="http://www.w3.org/2000/svg" xmlns:xlink="http://www.w3.org/1999/xlink" x="0px" y="0px"
	 viewBox="0 0 500 500" style="enable-background:new 0 0 500 500;" xml:space="preserve">
<g id="Background_Simple">
	<g>
		<path style="opacity:0.7;fill:#FFFFFF;" d="M67.93,167.09c0,0-27.88,71.99,11.3,144.5c39.17,72.52,119.88,110.8,184.47,143.55
			c64.59,32.75,131.66,16.8,163.53-36.84c31.87-53.64-11.85-91.93-11.9-168.42c-0.05-76.49,11.45-96.74-29.96-161.36
			c-41.41-64.62-143.06-78.93-219.9-31C88.63,105.45,67.93,167.09,67.93,167.09z"/>
	</g>
</g>
<g id="Elements">
</g>
<g id="Earth">
</g>
<g id="Character">
	<g>
		<path style="fill:#92E3A9;" d="M30.22,120.69C60.89,61.18,117.79,16.16,188.72,9.82c48.27-4.31,97.86,9.87,136.31,39.43
			c19.36,14.88,36.56,33.92,47.98,55.61c13.12,24.92,16.93,53.64,30.42,78.43c16.78,30.83,48.28,43.54,69.43,70.18
			c17.42,21.94,23.4,51.33,21.4,79.28c-3.65,51.01-33.54,99.44-77.49,125.58c-37.16,22.1-81.95,28.2-125.14,26.19
			c-66.58-3.09-132.87-25.05-185.31-66.19c-52.44-41.14-90.14-101.95-99.07-168C1.18,205.45,10,159.92,30.22,120.69z"/>
		<path style="opacity:0.7;fill:#FFFFFF;" d="M30.22,120.69C60.89,61.18,117.79,16.16,188.72,9.82
			c48.27-4.31,97.86,9.87,136.31,39.43c19.36,14.88,36.56,33.92,47.98,55.61c13.12,24.92,16.93,53.64,30.42,78.43
			c16.78,30.83,48.28,43.54,69.43,70.18c17.42,21.94,23.4,51.33,21.4,79.28c-3.65,51.01-33.54,99.44-77.49,125.58
			c-37.16,22.1-81.95,28.2-125.14,26.19c-66.58-3.09-132.87-25.05-185.31-66.19c-52.44-41.14-90.14-101.95-99.07-168
			C1.18,205.45,10,159.92,30.22,120.69z"/>
		<g>
			<g>
				<path style="fill:none;stroke:#263238;stroke-linecap:round;stroke-linejoin:round;stroke-miterlimit:10;" d="M10,142.45
					c1.35,5.36,0.69-4.51,3.34-16.59c2.66-12.08,7.2-7.18,7.2-7.18"/>
				
					<line style="fill:none;stroke:#263238;stroke-linecap:round;stroke-linejoin:round;stroke-miterlimit:10;" x1="9.16" y1="130.11" x2="17.49" y2="126.7"/>
				<path style="fill:none;stroke:#263238;stroke-linecap:round;stroke-linejoin:round;stroke-miterlimit:10;" d="M24.37,122.6
					c0,0-4.98,10.29,2.53,14.66"/>
				<path style="fill:none;stroke:#263238;stroke-linecap:round;stroke-linejoin:round;stroke-miterlimit:10;" d="M31.43,119.71
					c0,0,8.21,4.56,3.07,14.44"/>
				
					<line style="fill:none;stroke:#263238;stroke-linecap:round;stroke-linejoin:round;stroke-miterlimit:10;" x1="25.8" y1="126.09" x2="31.69" y2="130.39"/>
				
					<line style="fill:none;stroke:#263238;stroke-linecap:round;stroke-linejoin:round;stroke-miterlimit:10;" x1="30.42" y1="124.2" x2="25.81" y2="131.53"/>
			</g>
			<g>
				
					<ellipse transform="matrix(0.1619 -0.9868 0.9868 0.1619 -191.7395 238.4523)" style="fill:none;stroke:#263238;stroke-linecap:round;stroke-linejoin:round;stroke-miterlimit:10;" cx="44.51" cy="232.11" rx="12.52" ry="12.52"/>
				
					<ellipse transform="matrix(0.9796 -0.201 0.201 0.9796 -46.3775 17.2005)" style="fill:none;stroke:#263238;stroke-linecap:round;stroke-linejoin:round;stroke-miterlimit:10;" cx="61.52" cy="237" rx="13.9" ry="13.9"/>
				
					<line style="fill:none;stroke:#263238;stroke-linecap:round;stroke-linejoin:round;stroke-miterlimit:10;" x1="55.92" y1="226.95" x2="50.15" y2="229.01"/>
				
					<line style="fill:none;stroke:#263238;stroke-linecap:round;stroke-linejoin:round;stroke-miterlimit:10;" x1="56.72" y1="229.33" x2="48.44" y2="232.32"/>
				
					<line style="fill:none;stroke:#263238;stroke-linecap:round;stroke-linejoin:round;stroke-miterlimit:10;" x1="57.03" y1="232.19" x2="47.78" y2="235.75"/>
				
					<line style="fill:none;stroke:#263238;stroke-linecap:round;stroke-linejoin:round;stroke-miterlimit:10;" x1="56.37" y1="236.11" x2="47.94" y2="239.96"/>
				
					<line style="fill:none;stroke:#263238;stroke-linecap:round;stroke-linejoin:round;stroke-miterlimit:10;" x1="54.89" y1="239.12" x2="48.47" y2="241.78"/>
				<path style="fill:none;stroke:#263238;stroke-linecap:round;stroke-linejoin:round;stroke-miterlimit:10;" d="M50.56,213.03
					c-0.36-1.09-4.42-1.86-4.62,1.14c-0.2,3.01,4.28,0.51,5.54-1.09c0,0-2.3,3.1-1.33,3.71"/>
				<path style="fill:none;stroke:#263238;stroke-linecap:round;stroke-linejoin:round;stroke-miterlimit:10;" d="M73.04,216.78
					l-3.61,7.49c0,0,1.8-3.75,3.73-3.4c2.38,0.42,0.8,4.31-2.08,2.88"/>
			</g>
			<g>
				
					<line style="fill:none;stroke:#263238;stroke-linecap:round;stroke-linejoin:round;stroke-miterlimit:10;" x1="465.36" y1="339.18" x2="471.02" y2="344.53"/>
				
					<line style="fill:none;stroke:#263238;stroke-linecap:round;stroke-linejoin:round;stroke-miterlimit:10;" x1="471.02" y1="337.78" x2="466.28" y2="344.86"/>
				
					<line style="fill:none;stroke:#263238;stroke-linecap:round;stroke-linejoin:round;stroke-miterlimit:10;" x1="476.59" y1="339.81" x2="482.26" y2="337.7"/>
				
					<line style="fill:none;stroke:#263238;stroke-linecap:round;stroke-linejoin:round;stroke-miterlimit:10;" x1="484.98" y1="331.8" x2="488.42" y2="334.85"/>
				
					<line style="fill:none;stroke:#263238;stroke-linecap:round;stroke-linejoin:round;stroke-miterlimit:10;" x1="491.06" y1="328.13" x2="486.7" y2="343.11"/>
			</g>
			<g>
				<polygon style="fill:none;stroke:#263238;stroke-linecap:round;stroke-linejoin:round;stroke-miterlimit:10;" points="
					226.86,255.09 242.09,244.61 262.27,246.02 263.53,271.59 248.72,282.18 230.45,280.85 				"/>
				<polyline style="fill:none;stroke:#263238;stroke-linecap:round;stroke-linejoin:round;stroke-miterlimit:10;" points="
					230.45,280.85 245.19,270.23 263.53,271.59 				"/>
				
					<line style="fill:none;stroke:#263238;stroke-linecap:round;stroke-linejoin:round;stroke-miterlimit:10;" x1="245.19" y1="270.23" x2="242.09" y2="244.61"/>
				<polyline style="fill:none;stroke:#263238;stroke-linecap:round;stroke-linejoin:round;stroke-miterlimit:10;" points="
					226.86,255.09 246.99,257.42 262.27,246.02 				"/>
				
					<line style="fill:none;stroke:#263238;stroke-linecap:round;stroke-linejoin:round;stroke-miterlimit:10;" x1="246.99" y1="257.42" x2="248.72" y2="282.18"/>
			</g>
			<g>
				<polygon style="fill:none;stroke:#263238;stroke-linecap:round;stroke-linejoin:round;stroke-miterlimit:10;" points="
					404.67,169.15 397.93,190.13 418.93,187.29 				"/>
				
					<line style="fill:none;stroke:#263238;stroke-linecap:round;stroke-linejoin:round;stroke-miterlimit:10;" x1="404.67" y1="169.15" x2="408.43" y2="188.59"/>
				<polyline style="fill:none;stroke:#263238;stroke-linecap:round;stroke-linejoin:round;stroke-miterlimit:10;" points="
					407.83,185.47 410.28,185.08 410.86,188.38 				"/>
			</g>
			<g>
				
					<line style="fill:none;stroke:#263238;stroke-linecap:round;stroke-linejoin:round;stroke-miterlimit:10;" x1="140.09" y1="361.09" x2="150.59" y2="366.25"/>
				
					<line style="fill:none;stroke:#263238;stroke-linecap:round;stroke-linejoin:round;stroke-miterlimit:10;" x1="147.2" y1="357.16" x2="144.2" y2="368.12"/>
				<path style="fill:none;stroke:#263238;stroke-linecap:round;stroke-linejoin:round;stroke-miterlimit:10;" d="M148.66,351.81
					c0,0,1.48-1.33,2.53,0.32c1.05,1.66-1.01,5.12-1.01,5.12l4.21-1.6"/>
			</g>
			<g>
				<path style="fill:none;stroke:#263238;stroke-linecap:round;stroke-linejoin:round;stroke-miterlimit:10;" d="M222.48,0
					c10.02,5.63-1.46,19.41-1.46,27.44s11.48,6.89,17.22,9.18c2.3,0,6.89,0,6.76,5.84"/>
				<path style="fill:none;stroke:#263238;stroke-linecap:round;stroke-linejoin:round;stroke-miterlimit:10;" d="M211.31,7.28
					c1.74,9.5,12.64,6.13,19.31,8.3c11.46,3.73,5.11,15.58,1.68,22.74c-2.05,4.28-4.09,10.26-0.43,14.32"/>
				
					<line style="fill:none;stroke:#263238;stroke-linecap:round;stroke-linejoin:round;stroke-miterlimit:10;" x1="212.78" y1="10.96" x2="224.73" y2="1.03"/>
				
					<line style="fill:none;stroke:#263238;stroke-linecap:round;stroke-linejoin:round;stroke-miterlimit:10;" x1="217.46" y1="13.92" x2="226.46" y2="6.46"/>
				
					<line style="fill:none;stroke:#263238;stroke-linecap:round;stroke-linejoin:round;stroke-miterlimit:10;" x1="222.75" y1="21.47" x2="230.35" y2="15.5"/>
				
					<line style="fill:none;stroke:#263238;stroke-linecap:round;stroke-linejoin:round;stroke-miterlimit:10;" x1="221.18" y1="30.41" x2="236.04" y2="19.73"/>
				
					<line style="fill:none;stroke:#263238;stroke-linecap:round;stroke-linejoin:round;stroke-miterlimit:10;" x1="226.87" y1="34.58" x2="237.23" y2="26.98"/>
				
					<line style="fill:none;stroke:#263238;stroke-linecap:round;stroke-linejoin:round;stroke-miterlimit:10;" x1="231.28" y1="50.73" x2="244.22" y2="40.19"/>
				
					<line style="fill:none;stroke:#263238;stroke-linecap:round;stroke-linejoin:round;stroke-miterlimit:10;" x1="231.6" y1="42.44" x2="240.04" y2="36.51"/>
			</g>
			<g>
				
					<ellipse transform="matrix(0.9285 -0.3713 0.3713 0.9285 -124.0849 44.5894)" style="fill:none;stroke:#263238;stroke-linecap:round;stroke-linejoin:round;stroke-miterlimit:10;" cx="53.74" cy="344.5" rx="24.05" ry="24.04"/>
				<path style="fill:none;stroke:#263238;stroke-linecap:round;stroke-linejoin:round;stroke-miterlimit:10;" d="M59.79,321.23
					c8.38-9.83,15.51-15.41,18.25-13.6c4.17,2.75-3.32,21.49-16.75,41.84c-13.42,20.36-27.68,34.63-31.86,31.88
					c-2.75-1.81-0.43-10.56,5.3-22.14"/>
				<path style="fill:none;stroke:#263238;stroke-linecap:round;stroke-linejoin:round;stroke-miterlimit:10;" d="M30.21,349.43
					c-11.68-3.36-19.14-7.29-18.68-10.42c0.73-4.94,20.88-6.06,45-2.49c24.12,3.57,43.09,10.47,42.35,15.41
					c-0.51,3.42-10.3,5.01-24.27,4.48"/>
				<path style="fill:none;stroke:#263238;stroke-linecap:round;stroke-linejoin:round;stroke-miterlimit:10;" d="M33.27,332.02
					c-8.82-15.91-13.22-28.32-10.23-30.26c3.92-2.54,19.1,13.92,33.9,36.77c14.8,22.85,23.61,43.43,19.69,45.97
					c-2.6,1.68-10.11-4.95-19.19-16.25"/>
				<path style="fill:#263238;" d="M81.43,318.05c-1.2,1.82-3.65,2.33-5.48,1.12c-1.82-1.2-2.33-3.65-1.12-5.48
					c1.2-1.82,3.65-2.33,5.48-1.12C82.12,313.77,82.63,316.22,81.43,318.05z"/>
				<path style="fill:#263238;" d="M68.35,378.54c-1.2,1.82-3.65,2.33-5.48,1.12c-1.82-1.2-2.33-3.65-1.12-5.48
					c1.2-1.82,3.65-2.33,5.48-1.12C69.04,374.26,69.55,376.71,68.35,378.54z"/>
				<path style="fill:#263238;" d="M47.25,337.51c-1.2,1.82-3.65,2.33-5.48,1.12c-1.82-1.2-2.33-3.65-1.12-5.48
					c1.2-1.82,3.65-2.33,5.48-1.12C47.95,333.24,48.46,335.69,47.25,337.51z"/>
			</g>
			<g>
				<polygon style="fill:none;stroke:#263238;stroke-linecap:round;stroke-linejoin:round;stroke-miterlimit:10;" points="
					299.03,165.66 312.56,165.66 319.32,153.94 312.56,142.23 299.03,142.23 292.27,153.94 				"/>
				<polyline style="fill:none;stroke:#263238;stroke-linecap:round;stroke-linejoin:round;stroke-miterlimit:10;" points="
					297.07,191.36 290.3,179.64 276.78,179.64 				"/>
				<polygon style="fill:none;stroke:#263238;stroke-linecap:round;stroke-linejoin:round;stroke-miterlimit:10;" points="
					278.59,153.94 292.12,153.94 298.88,142.23 292.12,130.51 278.59,130.51 271.83,142.23 				"/>
				<polygon style="fill:none;stroke:#263238;stroke-linecap:round;stroke-linejoin:round;stroke-miterlimit:10;" points="
					299.03,142.23 312.56,142.23 319.32,130.51 312.56,118.8 299.03,118.8 292.27,130.51 				"/>
				<circle style="fill:#263238;" cx="298.88" cy="142.23" r="1.82"/>
				<circle style="fill:#263238;" cx="270.64" cy="117.64" r="1.82"/>
				<path style="fill:#263238;" d="M295.25,191.36c0-1,0.81-1.82,1.82-1.82c1,0,1.82,0.81,1.82,1.82c0,1-0.81,1.82-1.82,1.82
					C296.06,193.17,295.25,192.36,295.25,191.36z"/>
				<circle style="fill:#263238;" cx="276.78" cy="179.64" r="1.82"/>
				<path style="fill:#263238;" d="M332.4,130.82c0-1,0.81-1.82,1.82-1.82c1,0,1.82,0.81,1.82,1.82c0,1-0.81,1.82-1.82,1.82
					C333.22,132.64,332.4,131.83,332.4,130.82z"/>
				<circle style="fill:#263238;" cx="290.17" cy="179.64" r="1.82"/>
				<path style="fill:#263238;" d="M317.51,130.82c0-1,0.81-1.82,1.82-1.82c1,0,1.82,0.81,1.82,1.82c0,1-0.81,1.82-1.82,1.82
					C318.32,132.64,317.51,131.83,317.51,130.82z"/>
				<path style="fill:#263238;" d="M297.07,165.66c0-1,0.81-1.82,1.82-1.82s1.82,0.81,1.82,1.82c0,1-0.81,1.82-1.82,1.82
					S297.07,166.66,297.07,165.66z"/>
				
					<line style="fill:none;stroke:#263238;stroke-linecap:round;stroke-linejoin:round;stroke-miterlimit:10;" x1="319.32" y1="130.82" x2="334.22" y2="130.82"/>
				
					<line style="fill:none;stroke:#263238;stroke-linecap:round;stroke-linejoin:round;stroke-miterlimit:10;" x1="298.88" y1="165.66" x2="290.17" y2="179.64"/>
				
					<line style="fill:none;stroke:#263238;stroke-linecap:round;stroke-linejoin:round;stroke-miterlimit:10;" x1="278.59" y1="130.51" x2="270.64" y2="117.64"/>
			</g>
			<g>
				<path style="fill:none;stroke:#263238;stroke-linecap:round;stroke-linejoin:round;stroke-miterlimit:10;" d="M374.52,84.35
					c3.05-10.38,12.65-17.95,24.02-17.95c11.75,0,21.61,8.1,24.31,19.02"/>
				<path style="fill:none;stroke:#263238;stroke-linecap:round;stroke-linejoin:round;stroke-miterlimit:10;" d="M395.7,116.31
					c-12.49-1.41-22.2-12.01-22.2-24.88"/>
				<path style="fill:none;stroke:#263238;stroke-linecap:round;stroke-linejoin:round;stroke-miterlimit:10;" d="M423.57,91.43
					c0,13.83-11.21,25.04-25.04,25.04"/>
				<path style="fill:none;stroke:#263238;stroke-linecap:round;stroke-linejoin:round;stroke-miterlimit:10;" d="M424.99,75.56
					c7.83-1,13.08-0.46,13.89,1.87c1.62,4.67-15.13,14.72-37.41,22.45c-22.28,7.73-41.66,10.22-43.27,5.55
					c-0.87-2.49,3.52-6.53,11.19-10.92"/>
			</g>
			<polygon style="fill:none;stroke:#263238;stroke-linecap:round;stroke-linejoin:round;stroke-miterlimit:10;" points="
				290.17,58.4 292.57,63.26 297.93,64.04 294.05,67.82 294.96,73.16 290.17,70.64 285.37,73.16 286.28,67.82 282.4,64.04 
				287.77,63.26 			"/>
			<g>
				<path style="fill:none;stroke:#263238;stroke-linecap:round;stroke-linejoin:round;stroke-miterlimit:10;" d="M120.67,45.46
					c0,4.68-1.97,8.91-5.13,11.86c-2.92,2.76-6.84,4.43-11.15,4.43c-0.53,0-1.04-0.02-1.55-0.07c-3.39-0.32-6.46-1.68-8.92-3.74
					c-2.1-1.76-3.75-4.04-4.74-6.65c-0.7-1.81-1.08-3.78-1.08-5.83c0-8.99,7.29-16.28,16.29-16.28c2.53,0,4.93,0.57,7.07,1.62
					c2.46,1.18,4.57,2.96,6.14,5.15C119.54,38.63,120.67,41.91,120.67,45.46z"/>
				<path style="fill:none;stroke:#263238;stroke-linecap:round;stroke-linejoin:round;stroke-miterlimit:10;" d="M118.06,48.4
					c0,1.39-1.13,2.52-2.52,2.52c-1.39,0-2.52-1.13-2.52-2.52s1.13-2.52,2.52-2.52C116.93,45.88,118.06,47.01,118.06,48.4z"/>
				<path style="fill:none;stroke:#263238;stroke-linecap:round;stroke-linejoin:round;stroke-miterlimit:10;" d="M95.39,54.8
					c0,1.26-0.57,2.39-1.47,3.13c-2.1-1.76-3.75-4.04-4.74-6.65c0.61-0.38,1.33-0.59,2.1-0.59C93.56,50.7,95.39,52.54,95.39,54.8z"
					/>
				<path style="fill:none;stroke:#263238;stroke-linecap:round;stroke-linejoin:round;stroke-miterlimit:10;" d="M115.54,57.32
					c-2.92,2.76-6.84,4.43-11.15,4.43c-0.53,0-1.04-0.02-1.55-0.07c-0.09-0.44-0.14-0.88-0.14-1.34c0-3.74,3.03-6.79,6.77-6.79
					C112.14,53.55,114.44,55.09,115.54,57.32z"/>
				
					<circle style="fill:none;stroke:#263238;stroke-linecap:round;stroke-linejoin:round;stroke-miterlimit:10;" cx="100.44" cy="35.26" r="3.75"/>
				<path style="fill:none;stroke:#263238;stroke-linecap:round;stroke-linejoin:round;stroke-miterlimit:10;" d="M103.91,45.88
					c0,0.96-0.78,1.73-1.73,1.73s-1.73-0.78-1.73-1.73c0-0.96,0.78-1.73,1.73-1.73S103.91,44.93,103.91,45.88z"/>
				<path style="fill:none;stroke:#263238;stroke-linecap:round;stroke-linejoin:round;stroke-miterlimit:10;" d="M117.61,35.95
					c-0.44,0.15-0.92,0.22-1.41,0.22c-2.64,0-4.76-2.14-4.76-4.78c0-0.21,0.01-0.4,0.03-0.6C113.92,31.98,116.03,33.76,117.61,35.95
					z"/>
			</g>
			<path style="fill:none;stroke:#263238;stroke-linecap:round;stroke-linejoin:round;stroke-miterlimit:10;" d="M491.92,234.5
				l1.76-3.95l-2.84-1.57c0.1-0.7,0.12-1.41,0.06-2.1l2.92-1.42l-1.55-4.03l-3.12,0.9c-0.42-0.56-0.9-1.07-1.45-1.52l1.06-3.07
				l-3.95-1.76l-1.57,2.84c-0.7-0.1-1.41-0.12-2.1-0.06l-1.42-2.92l-4.03,1.55l0.9,3.12c-0.56,0.42-1.07,0.9-1.52,1.45l-3.07-1.06
				l-1.76,3.95l2.84,1.57c-0.1,0.7-0.12,1.41-0.06,2.1l-2.92,1.42l1.55,4.03l3.12-0.9c0.42,0.56,0.9,1.07,1.45,1.52l-1.06,3.07
				l3.95,1.76l1.57-2.84c0.7,0.1,1.41,0.12,2.1,0.06l1.42,2.92l4.03-1.55l-0.9-3.12c0.56-0.42,1.07-0.9,1.52-1.45L491.92,234.5z
				 M479.92,232.29c-2.53-1.13-3.67-4.1-2.55-6.63c1.13-2.53,4.1-3.67,6.63-2.55s3.67,4.1,2.55,6.63
				C485.42,232.28,482.45,233.42,479.92,232.29z"/>
			<path style="fill:none;stroke:#263238;stroke-linecap:round;stroke-linejoin:round;stroke-miterlimit:10;" d="M470.94,254.77
				l2.39-5.36l-3.86-2.13c0.14-0.95,0.16-1.91,0.08-2.85l3.96-1.93l-2.11-5.48l-4.24,1.22c-0.56-0.76-1.22-1.45-1.97-2.06l1.44-4.17
				l-5.36-2.39l-2.13,3.86c-0.95-0.14-1.91-0.16-2.85-0.08l-1.93-3.96l-5.48,2.11l1.22,4.24c-0.76,0.56-1.45,1.22-2.06,1.97
				l-4.17-1.44l-2.39,5.36l3.86,2.13c-0.14,0.95-0.16,1.91-0.08,2.85l-3.96,1.93l2.11,5.48l4.24-1.22c0.56,0.76,1.22,1.45,1.97,2.06
				l-1.44,4.17l5.36,2.39l2.13-3.86c0.95,0.14,1.91,0.16,2.85,0.08l1.93,3.96l5.48-2.11l-1.22-4.24c0.76-0.56,1.45-1.22,2.06-1.97
				L470.94,254.77z M454.64,251.77c-3.44-1.53-4.99-5.56-3.46-9c1.53-3.44,5.56-4.99,9-3.46c3.44,1.53,4.99,5.56,3.46,9
				C462.11,251.75,458.08,253.3,454.64,251.77z"/>
		</g>
		<g>
			<g>
				<defs>
					<path id="XMLID_569_" d="M232.95,203.87c-1.6,3.03-3.37,5.9-5.32,8.59c-10.46,14.55-25.64,24.27-42.26,28.16
						c-8.25,1.93-16.86,2.43-25.42,1.36c-8.45-1.04-16.86-3.61-24.84-7.82c-1.59-0.84-3.15-1.74-4.65-2.68
						c-1.5-0.93-2.95-1.91-4.35-2.93c-1.7-1.23-3.33-2.54-4.89-3.91c-0.01,0-0.01-0.02-0.02-0.02c-0.1-0.08-0.19-0.16-0.28-0.26
						c-0.02-0.02-0.03-0.03-0.03-0.03c-9.18-8.1-15.97-18.27-20.03-29.41c-1.67-4.57-2.88-9.31-3.6-14.15
						c-2.22-14.73,0.09-30.28,7.56-44.46c11.06-20.98,30.96-34.29,52.7-37.75c14.93-2.39,30.74-0.13,45.14,7.46
						c13.61,7.17,23.99,18.08,30.55,30.79C243.71,157.13,244.43,182.09,232.95,203.87z"/>
				</defs>
				<use xlink:href="#XMLID_569_"  style="overflow:visible;fill:#92E3A9;"/>
				<clipPath id="XMLID_6_">
					<use xlink:href="#XMLID_569_"  style="overflow:visible;"/>
				</clipPath>
				<g style="opacity:0.6;clip-path:url(#XMLID_6_);">
					<path style="fill:#FFFFFF;" d="M232.95,203.87c-1.6,3.02-3.38,5.89-5.32,8.59l-1.4-1.1l-2.41-1.27l-2.54-1.33l0.42-3.07
						c0,0,0,0-0.14-2.77c-0.15-2.77,1.85-0.51,3.5-1.34c1.63-0.86,2.93-3.4,2.93-3.4s1.17-3.69,0.77-5.17
						c-0.4-1.48-2.18-4.98-2.18-4.98l-4.11,5.71l-3.39-0.26l-3.38-1.77l-0.42-4.53l-1.68-0.87l-0.7-2.61l-9.06-2.54
						c0,0,0,0-1.03-1.81c-1.03-1.81-5.2-2.74-5.2-2.74l1.02-2.37c0,0,0,0,1.61-2.64c1.62-2.64,3.29,1.75,3.29,1.75l1.92,1l3.56-2.98
						c0,0,0,0,0.94-4.28l5.8,0.33c0,0-0.41-2.1,1.52-2.87c1.93-0.76,1.08-4.95,0.34-6.5c-0.76-1.54-3.4-0.3-3.4-0.3
						s-2.95-4.49-3.35-6.28c-0.4-1.78,5.63-1.19,8.21-2.95c2.57-1.75,1.7-5.38,0.44-5.46c-1.25-0.09,2.47-8.15,9.64-5.94
						c2,0.62,3.26,0.4,4.04-0.29C243.71,157.13,244.43,182.09,232.95,203.87z"/>
					<path style="fill:#FFFFFF;" d="M182.74,172.82c-2.46,3.09-2.46,3.09-2.46,3.09s-1.04-2.49-2.54-1.14s-2.25,2.04-2.25,2.04
						l-1.66,4.66l-2.98,1.93l-1.83-0.95l-1.72-0.92l-1.87-0.99l-1.79,3.4l-1.46,2.76c1.1,2.15,2.63,3.73,2.63,3.73l3.17,5.59
						l3.78,1.99c2.32,0.05,4.79,0.57,4.79,0.57l2.65,1.39l-0.94,5.75c0,0-2,3.25-3.33,2.35c-1.34-0.88-1.34-0.88-1.34-0.88
						l-2.18,7.55l-0.09,4.16c0,0-1.3,0.54-2.61,0.98c-1.32,0.44-0.48,0.21-3.23,1.06s-2.53,0.82-4.75,1.45s-5.45,2.55-5.45,2.55
						l0.2,4l-5.25,0.77l-2.94-1.56l0.72-2.53l0.34-3.95l-0.4-2.95l-1.26-2.61l3.54-3.2l-0.78-2.01l-2.01-4l-4.25,2.3l-2.18,1.17
						l-4.94-2.22l-0.54-3l-1.68-5.41l-1.54-3.35l-2.73-3.7l-0.69-3.18l1.54-2.92l0.82-1.54l-2.51-3.39l-0.69-2.41l-4.24-3.85
						c0,0,1.23-0.08,0.95-1.79c-0.28-1.71,2.42-4.59,2.42-4.59c1.53,0.8,6.11,4,6.11,4l4.01,0.55c0.05,0,0.8-0.02,1.58-1.52
						c0.8-1.53,3.19-3.82,3.19-3.82s-1.85-6.42-0.53-7.28c1.31-0.88,2.66-5.06,2.66-5.06l1.06-2.01c0,0-2.49-1.09-2.96-2.41
						c-0.47-1.33-6.61,0.44-6.61,0.44l-4.24,2.94l-3.24,2.57l-1.45,2.74c0,0-2.95-3.55-2.96-1.56c-0.01,1.99-1.33,5.98-1.33,5.98
						s0.61,0.32-0.2,1.86c-0.82,1.53-1.68,1.46-3.49,1.68c-1.81,0.22-6.84-0.47-6.84-0.47s-1.15,4.25-0.36,4.98
						c0.78,0.71,0.78,0.71,0.78,0.71s-1.23,3.09-2.45,2.45c-1.23-0.65-2.96-1.56-2.96-1.56l-4.14,1.68l-4.55,5.07l-1.02-0.21
						c-2.22-14.72,0.09-30.27,7.57-44.45c11.06-20.98,30.96-34.28,52.7-37.75c0.26,1.17,0.55,2.23,0.55,2.23l-1.11,5.67l-1.47,2.8
						l-1.26,2.4l-1.78,3.38l4.43,4.2l-0.98,4.97l-2.47,1.55l-0.71,3.73l4.24,8.28l1.19,3.25c0,0-1.32,2.94-1.02,4.96
						c0,0,0.52,3.1,2.78,4.33c2.26,1.22,5.24,2.67,5.24,2.67l-0.24,4.62l-1.02,1.19l1.7,4.95c5.18,2.03,4.68,3.73,5.18,2.03
						c0.51-1.69,0.51-1.69,0.51-1.69l3.52-1.27l4.49,5.36c0,0,1.39-0.18,2.64,1.4C183.17,171.16,185.21,169.73,182.74,172.82z"/>
					<path style="fill:#FFFFFF;" d="M121.9,212.8c0.13,1.63-1.94,3.67-1.94,3.67l1.69,0.88l0.52,4.55l-1.27,2.43
						c-9.18-8.11-15.97-18.27-20.03-29.41l0.92-4.87l4.05-0.57c0,0,3.63-2.41,5.24-1.77c1.61,0.67,3.08,4.56,3.08,4.56
						s1.18,5.33,1,5.22l-0.02-0.01l-0.07,0.05l0.09-0.03l1.65,0.87l0.47,2.1l-2.31,4.36l-3.7,0.01c0,0-0.73-0.39-0.8,1.53
						c-0.07,1.93,1.92,3.36,1.92,3.36l4-1.02c1.07-4.13,1.07-4.13,1.07-4.13l3.93-0.77c0,0-0.56,2.54,0.36,3.02
						c0.93,0.49,0.93,0.49,0.93,0.49l0.55,3.03C123.19,210.36,121.77,211.17,121.9,212.8z"/>
					<path style="fill:#FFFFFF;" d="M140.89,219.3c-0.35-0.98-0.5-1.84-2.95-3.13c-2.44-1.29-2.31-0.82-3.26,0.24
						c-0.95,1.06-2.05,1.66-3.65,1.3c-1.6-0.36-0.77,1.45-0.77,1.45l0.38,4.9l-4.53,4.49c1.4,1.02,2.85,2.01,4.35,2.93l0.97-2.96
						l7.53,2.24c-1.6-0.48-0.66-2.66-0.66-2.66l-1.61-0.85C136.69,227.25,141.24,220.27,140.89,219.3z"/>
					<path style="fill:#FFFFFF;" d="M188.32,193.81l-2.47-2.49l-2.82,0.89l-1.2,2.28l-0.87,1.65l1.17,2.24l2.31,2.78l1.32-2.5
						c0,0,3.64,0.02,5.54-2.1C193.2,194.44,188.32,193.81,188.32,193.81z"/>
					<path style="fill:#FFFFFF;" d="M181.07,182.57l4.59,2.42c0,0,0,0,0.18-1.08c0.18-1.08,1.25-2.36,1.25-2.36l-3.52-3.72
						L181.07,182.57z"/>
					<path style="fill:#FFFFFF;" d="M179.51,236.01l-1.32-1.93l-1.53-0.81l-4.7,0l-2.67,5.07c0,0-2.56-0.35-5.92-0.64
						c-3.36-0.3-2.53,1.09-2.53,1.09l-0.88,3.19c8.57,1.06,17.18,0.57,25.42-1.36c-1.35-0.96-3.01-1.85-3.01-1.85L179.51,236.01z"/>
				</g>
				
					<use xlink:href="#XMLID_569_"  style="overflow:visible;fill:none;stroke:#263238;stroke-linecap:round;stroke-linejoin:round;stroke-miterlimit:10;"/>
			</g>
			<path style="fill:none;stroke:#263238;stroke-linecap:round;stroke-linejoin:round;stroke-miterlimit:10;" d="M185.37,240.62
				c-8.25,1.93-16.86,2.43-25.42,1.36l0.88-3.19c0,0-0.83-1.39,2.53-1.09c3.37,0.29,5.92,0.64,5.92,0.64l2.67-5.07l4.7,0l1.53,0.81
				l1.32,1.93l2.85,2.75C182.36,238.76,184.01,239.66,185.37,240.62z"/>
			<g>
				<path style="fill:none;stroke:#263238;stroke-linecap:round;stroke-linejoin:round;stroke-miterlimit:10;" d="M233.2,136.82
					c-0.78,0.69-2.04,0.9-4.04,0.29c-7.18-2.22-10.9,5.84-9.65,5.93c1.26,0.08,2.14,3.72-0.44,5.47c-2.59,1.75-8.61,1.17-8.21,2.95
					c0.4,1.79,3.35,6.27,3.35,6.27s2.64-1.24,3.4,0.31c0.75,1.55,1.59,5.74-0.34,6.5c-1.93,0.76-1.51,2.87-1.51,2.87l-5.8-0.34
					c-0.93,4.28-0.93,4.28-0.93,4.28l-3.56,2.99l-1.91-1.01c0,0-1.68-4.38-3.3-1.74c-1.61,2.63-1.61,2.63-1.61,2.63l-1.03,2.37
					c0,0,4.17,0.93,5.21,2.75c1.03,1.81,1.03,1.81,1.03,1.81l9.05,2.55l0.71,2.6l1.67,0.88l0.42,4.53l3.38,1.77l3.38,0.27l4.12-5.71
					c0,0,1.78,3.51,2.18,4.99c0.41,1.48-0.76,5.17-0.76,5.17s-1.3,2.54-2.94,3.4c-1.64,0.85-3.64-1.42-3.5,1.35
					c0.14,2.76,0.14,2.76,0.14,2.76l-0.42,3.06l2.54,1.34l2.41,1.27l1.4,1.1"/>
				<path style="fill:none;stroke:#263238;stroke-linecap:round;stroke-linejoin:round;stroke-miterlimit:10;" d="M97.25,180.78
					l1.01,0.2l4.55-5.08l4.14-1.68c0,0,1.74,0.92,2.96,1.56c1.22,0.64,2.45-2.44,2.45-2.44s0,0-0.79-0.72
					c-0.79-0.73,0.36-4.98,0.36-4.98s5.02,0.7,6.84,0.48s2.68-0.15,3.49-1.68c0.81-1.53,0.2-1.85,0.2-1.85s1.33-4,1.33-5.98
					c0.01-1.98,2.96,1.56,2.96,1.56l1.45-2.75l3.24-2.57l4.23-2.93c0,0,6.14-1.77,6.62-0.44c0.47,1.33,2.96,2.41,2.96,2.41l-1.06,2
					c0,0-1.35,4.18-2.67,5.06c-1.32,0.87,0.53,7.28,0.53,7.28s-2.39,2.3-3.19,3.83c-0.81,1.53-1.58,1.52-1.58,1.52l-4.01-0.55
					c0,0-4.58-3.19-6.11-4c0,0-2.69,2.89-2.42,4.59c0.27,1.72-0.95,1.8-0.95,1.8l4.23,3.84l0.69,2.41l2.52,3.38l-0.82,1.55
					l-1.54,2.92l0.68,3.18l2.74,3.69l1.54,3.35l1.68,5.41l0.54,2.99l4.93,2.22l2.18-1.17l4.24-2.29l2.01,4l0.79,2.01l-3.54,3.2
					l1.25,2.61l0.41,2.96l-0.35,3.95l-0.73,2.52l2.95,1.55l5.24-0.76l-0.18-4c0,0,3.22-1.91,5.45-2.55c2.23-0.63,2-0.59,4.75-1.44
					c2.75-0.86,1.9-0.62,3.22-1.06c1.31-0.44,2.61-0.97,2.61-0.97l0.1-4.16l2.17-7.56c0,0,0,0,1.34,0.89
					c1.34,0.89,3.33-2.35,3.33-2.35l0.94-5.76l-2.65-1.4c0,0-2.47-0.52-4.79-0.56l-3.78-2l-3.16-5.58c0,0-1.53-1.59-2.63-3.73
					l1.45-2.76l1.79-3.4l1.87,0.99l1.73,0.91l1.83,0.96l2.98-1.94l1.67-4.66c0,0,0.76-0.69,2.25-2.04c1.5-1.36,2.54,1.13,2.54,1.13
					s0,0,2.46-3.09c2.47-3.08,0.43-1.65-0.83-3.24c-1.26-1.58-2.65-1.4-2.65-1.4l-4.49-5.36l-3.52,1.28c0,0,0,0-0.5,1.68
					c-0.5,1.7,0,0-5.18-2.04l-1.71-4.94l1.02-1.19l0.25-4.62c0,0-2.98-1.45-5.24-2.67c-2.26-1.23-2.78-4.33-2.78-4.33
					c-0.3-2.02,1.02-4.95,1.02-4.95l-1.19-3.26l-4.24-8.28l0.72-3.73l2.46-1.55l0.98-4.96l-4.43-4.2l1.78-3.37l1.26-2.4l1.48-2.8
					l1.1-5.68c0,0-0.28-1.05-0.55-2.23"/>
				<path style="fill:none;stroke:#263238;stroke-linecap:round;stroke-linejoin:round;stroke-miterlimit:10;" d="M121.21,224.64
					c-0.11-0.14-0.24-0.24-0.3-0.28c-0.02-0.02-0.03-0.03-0.03-0.03l1.28-2.43l-0.51-4.54l-1.69-0.89c0,0,2.06-2.04,1.93-3.67
					c-0.13-1.64,1.29-2.45,1.29-2.45l-0.55-3.03c0,0,0,0-0.92-0.49c-0.92-0.49-0.36-3.03-0.36-3.03l-3.93,0.77c0,0,0,0-1.07,4.13
					l-3.99,1.02c0,0-1.98-1.43-1.92-3.36c0.07-1.92,0.81-1.53,0.81-1.53l3.69-0.01l2.3-4.37l-0.46-2.09l-1.66-0.88"/>
				<path style="fill:none;stroke:#263238;stroke-linecap:round;stroke-linejoin:round;stroke-miterlimit:10;" d="M115.11,197.49
					l0.02,0.01c0.19,0.1-1-5.22-1-5.22s-1.47-3.9-3.08-4.56c-1.61-0.65-5.24,1.77-5.24,1.77l-4.05,0.57l-0.92,4.86"/>
				<path style="fill:none;stroke:#263238;stroke-linecap:round;stroke-linejoin:round;stroke-miterlimit:10;" d="M131.42,228.52
					l-0.97,2.96c-1.5-0.93-2.95-1.91-4.35-2.93l4.53-4.49l-0.38-4.9c0,0-0.83-1.81,0.77-1.45c1.6,0.36,2.7-0.24,3.65-1.3
					c0.95-1.06,0.82-1.52,3.26-0.24c2.45,1.29,2.6,2.15,2.95,3.13c0.36,0.97-4.19,7.96-4.19,7.96l1.61,0.85c0,0-0.94,2.18,0.66,2.66
					L131.42,228.52z"/>
				<path style="fill:none;stroke:#263238;stroke-linecap:round;stroke-linejoin:round;stroke-miterlimit:10;" d="M183.03,192.21
					l2.82-0.89l2.47,2.49c0,0,4.88,0.63,2.98,2.76c-1.9,2.13-5.54,2.1-5.54,2.1l-1.32,2.5l-2.31-2.78l-1.17-2.24l0.87-1.65
					L183.03,192.21z"/>
				<path style="fill:none;stroke:#263238;stroke-linecap:round;stroke-linejoin:round;stroke-miterlimit:10;" d="M187.09,181.55
					c0,0-1.07,1.28-1.25,2.36c-0.18,1.08-0.18,1.08-0.18,1.08l-4.59-2.42l2.5-4.74L187.09,181.55z"/>
			</g>
		</g>
		<g>
			<path style="fill:#263238;" d="M436.22,452.35c-6.15,5.12-53.56,37.65-121.2,32.41c-3.64-30.79-17.52-157.3-1.73-177.12
				c0,0,38.3-18.27,73.58-10.6s49.01,15.02,51.52,21.38C440.3,323.23,437.58,412.8,436.22,452.35z"/>
			<path style="fill:#FFFFFF;stroke:#263238;stroke-linecap:round;stroke-linejoin:round;stroke-miterlimit:10;" d="M385.7,310.56
				c-20.32,17.6-46.5,13.88-45.92,0.37c0.09-2.11,2.35-4.73,2.35-4.73s-0.3-0.45-0.79-1.22c-0.76-1.15-1.99-3.02-3.41-5.2
				c-2.51-3.89-5.66-8.78-7.85-12.34c-1.84-3.03,43.96-31.2,43.96-15.01c0,22.82,11.21,27.12,11.21,27.12
				C389.43,301.25,393.36,303.94,385.7,310.56z"/>
			<path style="fill:none;stroke:#FFFFFF;stroke-linecap:round;stroke-linejoin:round;stroke-miterlimit:10;" d="M398.54,345.42
				c0,0-4.1,14.05-2.15,18.08"/>
			<path style="fill:none;stroke:#FFFFFF;stroke-linecap:round;stroke-linejoin:round;stroke-miterlimit:10;" d="M393.76,304.61
				c0,13.56-40.45,26.84-52.3,13.24"/>
			<path style="fill:#263238;" d="M360.49,288.96c0,0-2.72,10.21-15.33,18.2c0,0-0.64-1.4-2.72-2.15c-0.37-0.13-0.76-0.01-1.1-0.03
				c-0.76-1.15-1.99-3.02-3.41-5.2C344.37,295.11,360.49,288.96,360.49,288.96z"/>
			<g>
				<path style="fill:#FFFFFF;stroke:#263238;stroke-linecap:round;stroke-linejoin:round;stroke-miterlimit:10;" d="M366.15,276.41
					c0,0-0.13,10.08-2.26,12.13c-16.02,15.36-31.68,16.58-34.26,12.52c-17.39-27.27-13.28-34.46-15.05-39.11
					c-3.13-8.2-6.98-21.58-5.28-29.69c3.79-18.11,37.91-32.1,55.85-13.94c8.61,8.72,11.33,27.63,9.51,43.38"/>
				<path style="fill:none;stroke:#263238;stroke-linecap:round;stroke-linejoin:round;stroke-miterlimit:10;" d="M316.74,253.52
					c0,0-4.78-2.15-5.82,0.42"/>
				<path style="fill:none;stroke:#263238;stroke-linecap:round;stroke-linejoin:round;stroke-miterlimit:10;" d="M328.35,253.63
					c0,0,9.96-4.17,14.43,0.89"/>
				<path style="fill:#263238;" d="M339.36,260.74c0.16,1.49-0.57,2.8-1.63,2.92c-1.06,0.12-2.06-1-2.22-2.5s0.57-2.8,1.63-2.92
					C338.21,258.13,339.2,259.25,339.36,260.74z"/>
				<path style="fill:#263238;" d="M319.87,261.19c0.16,1.49-0.57,2.8-1.63,2.92c-1.06,0.12-2.06-1-2.22-2.5
					c-0.16-1.49,0.57-2.8,1.63-2.92C318.72,258.58,319.71,259.7,319.87,261.19z"/>
				<path style="fill:#FFFFFF;stroke:#263238;stroke-linecap:round;stroke-linejoin:round;stroke-miterlimit:10;" d="M320.37,257.27
					c1.39,2.24,0.63,6.06-1.2,11.3c-1.83,5.24-0.22,7.15,6.83,7.67"/>
				<path style="fill:none;stroke:#263238;stroke-linecap:round;stroke-linejoin:round;stroke-miterlimit:10;" d="M326,285.33
					c0,0,9.21-0.84,13.39-3.15"/>
				<path style="fill:#263238;" d="M384.16,233.27c0-6.82-6.73-20.82-18.54-22.39l0,0c-6.78-7.1-16.45-9.71-28.19-7.01
					c-27.11,6.23-35.36,33-36.55,37.43c-0.12,0.41-0.16,0.64-0.16,0.64l7.26-1.84l-3.13,6.1l3.8,2.51l-0.87,0.97l4.4,4.25
					l-1.38-7.76c0.85-5.02,6.61-12.01,6.61-12.01c-3.36,4.03-3.78,9.4-3.78,9.4c2.28-5.96,16.07-11.44,16.07-11.44
					c-4.47,3.62-6.85,10.72-6.85,10.72c4.25-5.24,14.21-8.63,20.58-10.43c2.15,5.18,5.56,10.59,10.43,13.59
					c4.59,2.82,4.43,8.65,4.43,8.65c7.97,5.21,10.31,14.2,10.31,14.2l5.56,7.6C374.16,276.46,384.17,264.12,384.16,233.27z"/>
				<path style="fill:#FFFFFF;stroke:#263238;stroke-linecap:round;stroke-linejoin:round;stroke-miterlimit:10;" d="M360.8,256.58
					c-1.86-3.99,4.89-14.77,9.67-13.44c2.69,0.75,6.2,5.65,6.88,10.8c0.68,5.15-2.96,14.88-6.84,17.04
					c-2.46,1.37-4.49-2.37-4.49-2.37"/>
			</g>
			<g>
				<polygon style="fill:#FFFFFF;" points="67.9,451.44 197.62,421.11 468.19,452.35 398.54,500 				"/>
				<polyline style="fill:#FFFFFF;stroke:#263238;stroke-linecap:round;stroke-linejoin:round;stroke-miterlimit:10;" points="
					67.9,451.44 197.62,421.11 468.19,452.35 				"/>
			</g>
			<polygon style="fill:#FFFFFF;stroke:#263238;stroke-linecap:round;stroke-linejoin:round;stroke-miterlimit:10;" points="
				180.16,457.52 232.67,434.31 299.06,437.74 269.54,462.98 			"/>
			<g>
				<path style="fill:#263238;" d="M315.85,306.51c-16.84,6.89-20.48,22.37-49.09,83.57c0,0-12.72,2.61-19.53,18.05
					c-6.81,15.44,4.54,27.64,17.71,27.22c0,0,5.27,4.58,16.03,4.12c10.77-0.45,58.59-73.53,58.59-73.53L315.85,306.51z"/>
				<path style="fill:none;stroke:#FFFFFF;stroke-linecap:round;stroke-linejoin:round;stroke-miterlimit:10;" d="M271.77,393.66
					c7.54,6.71,11.86,16.55,9.56,27.45"/>
				<path style="fill:none;stroke:#FFFFFF;stroke-linecap:round;stroke-linejoin:round;stroke-miterlimit:10;" d="M279.04,396.89
					c0,0,9.26,2.02,10.69,13.88"/>
				<path style="fill:none;stroke:#FFFFFF;stroke-linecap:round;stroke-linejoin:round;stroke-miterlimit:10;" d="M306.13,362.22
					c0,0-7.07-15.61-4.38-34.06"/>
				<path style="fill:none;stroke:#FFFFFF;stroke-linecap:round;stroke-linejoin:round;stroke-miterlimit:10;" d="M304.81,346.61
					c-0.7,4.82,4.28,30.49,4.25,57.49"/>
			</g>
			<g>
				<path style="fill:#263238;" d="M430.7,311.57c21.07,10.59,23.58,43.16,3.69,82.1c-14.04,27.49-33.42,68.07-45.68,70.8
					c-12.26,2.73-24.22-4.91-24.22-4.91s-10.34-0.48-13.46-7.83c-8.54-20.13,13.17-45.46,21.71-39.39c0,0,27.28-59.32,32.25-63.05"
					/>
				<path style="fill:none;stroke:#FFFFFF;stroke-linecap:round;stroke-linejoin:round;stroke-miterlimit:10;" d="M349.09,439.5
					c-2.83-13.85,18.97-30.2,23.67-27.17c0,0,16.2,0.91,18.62,12.11"/>
				<path style="fill:none;stroke:#FFFFFF;stroke-linecap:round;stroke-linejoin:round;stroke-miterlimit:10;" d="M408.43,442.47
					c9.48-16.73,25.96-48.8,25.96-48.8"/>
				<path style="fill:none;stroke:#FFFFFF;stroke-linecap:round;stroke-linejoin:round;stroke-miterlimit:10;" d="M372.75,412.33
					c0,0,11.35-6.79,19.83-0.37"/>
				<path style="fill:none;stroke:#FFFFFF;stroke-linecap:round;stroke-linejoin:round;stroke-miterlimit:10;" d="M376.58,404.1
					c0,0,6.27-13.75,12.66-26.44c6.39-12.69,20.91-31.33,26.96-32.24"/>
			</g>
			<g>
				<g>
					<defs>
						<path id="XMLID_574_" d="M256.93,428.84c-1.32-0.07-2.64-0.4-3.9-1.07c-19.55-10.18-34.69-27.01-43.83-39.09
							c-6.35-8.39-9.79-14.5-9.79-14.5l4.68-20.07c0,0,4.41,11.43,22.12,22.77c17.7,11.33,38.76,15.01,45.57,26.36
							C277.8,413.3,267.18,429.36,256.93,428.84z"/>
					</defs>
					<use xlink:href="#XMLID_574_"  style="overflow:visible;fill:#FFFFFF;"/>
					<clipPath id="XMLID_7_">
						<use xlink:href="#XMLID_574_"  style="overflow:visible;"/>
					</clipPath>
					<path style="opacity:0.4;clip-path:url(#XMLID_7_);fill:#92E3A9;" d="M256.93,428.84c-0.21-1.34-0.57-2.76-1.17-4.24
						c-4.1-10.26-28.9-30.66-28.9-30.66c-5.9-0.18-12.39-2.64-17.67-5.26c-6.35-8.39-9.79-14.5-9.79-14.5l4.68-20.07
						c0,0,4.41,11.43,22.12,22.77c17.7,11.33,38.76,15.01,45.57,26.36C277.8,413.3,267.18,429.36,256.93,428.84z"/>
					
						<use xlink:href="#XMLID_574_"  style="overflow:visible;fill:none;stroke:#263238;stroke-linecap:round;stroke-linejoin:round;stroke-miterlimit:10;"/>
				</g>
				<path style="fill:#FFFFFF;stroke:#263238;stroke-linecap:round;stroke-linejoin:round;stroke-miterlimit:10;" d="M212.73,373.01
					c0,0-2.42,10.71-8.81,8.31c-3.46-1.3-10.08-11.59-11.34-16.77L212.73,373.01z"/>
				<g>
					<path style="fill:#FFFFFF;stroke:#263238;stroke-linecap:round;stroke-linejoin:round;stroke-miterlimit:10;" d="
						M184.59,307.13l5.21-2.7c0,0,14.73,0.13,23.87,7.56c8.3,6.75,12.51,17.32,12.51,17.32s32.26-17.81,65.19-7.59l13.44,74.87
						l-61.75,4.07l-38.54-36.65L184.59,307.13z"/>
					<g>
						<defs>
							<path id="XMLID_573_" d="M309.05,399.59c0,0-7.24-0.22-16.93,0.1c-14.65,0.46-34.89,2.11-44.14,7.5l-0.44-0.15l-8.47-2.95
								c0,0-0.06-0.08-0.17-0.25c-1.56-2.32-14.16-20.38-32.12-27.74l-25.44-71.09c0,0,26.42,1.18,40.84,25l7.24,2.62
								c0,0,43.11-12.77,67.24-8.17L309.05,399.59z"/>
						</defs>
						<use xlink:href="#XMLID_573_"  style="overflow:visible;fill:#92E3A9;"/>
						<clipPath id="XMLID_8_">
							<use xlink:href="#XMLID_573_"  style="overflow:visible;"/>
						</clipPath>
						<path style="opacity:0.3;clip-path:url(#XMLID_8_);fill-opacity:0.7;" d="M238.9,403.84c-1.56-2.32-14.16-20.38-32.12-27.74
							l-25.44-71.09c0,0,26.42,1.18,40.84,25L238.9,403.84z"/>
						<path style="opacity:0.3;clip-path:url(#XMLID_8_);fill-opacity:0.7;" d="M292.12,399.69c-14.65,0.46-34.89,2.11-44.14,7.5
							l-0.44-0.15l-16.92-71.82c0,0,13.84-3.11,18.1-1.54C248.72,333.68,276.86,354.45,292.12,399.69z"/>
						
							<use xlink:href="#XMLID_573_"  style="overflow:visible;fill:none;stroke:#263238;stroke-linecap:round;stroke-linejoin:round;stroke-miterlimit:10;"/>
					</g>
					
						<line style="fill:none;stroke:#263238;stroke-linecap:round;stroke-linejoin:round;stroke-miterlimit:10;" x1="229.41" y1="332.64" x2="246.02" y2="401.56"/>
					
						<line style="fill:none;stroke:#263238;stroke-linecap:round;stroke-linejoin:round;stroke-miterlimit:10;" x1="239.07" y1="404.1" x2="222.93" y2="335.22"/>
				</g>
				<g>
					<path style="fill:#FFFFFF;stroke:#263238;stroke-linecap:round;stroke-linejoin:round;stroke-miterlimit:10;" d="
						M198.06,374.29c-3.69-1.03-11.12-23.18-7.71-32.71c0,0,4.04-7.02,5.69-7.5c2.58-0.75,12.96-0.53,12.45,1.21
						c-1.16,4.04-9.12,3.97-9.12,3.97l-2.58,4.73l0.11,2.61c0,0,3.75-2.73,5.13-2.66c0.7,0.04,4.38,1.84,7.3,3.38
						c2.49,1.32,4.02,2.03,3.46,3.24c-1.85,3.97-9.72,1.18-9.72,1.18l-2.95,4.46c0,0,2.86,0.49,4.11,0.64
						c1.37,0.16,11.64,7.05,11.33,7.92c-1.23,3.38-11.08-0.28-11.08-0.28l-1.75,1.45c0,0,7.26,1.88,8,2.15
						c1.16,0.43,5.58,3.83,5.51,4.22c-0.53,2.98-6.63,0.79-6.63,0.79l-5.33-0.22c0,0-1.08,1.04-2.85,1.47"/>
					<path style="fill:none;stroke:#263238;stroke-linecap:round;stroke-linejoin:round;stroke-miterlimit:10;" d="M196.89,346.61
						c0,0-3.41,2.9-4.34,3.73c-0.93,0.83-0.67,3.5-0.67,3.5"/>
					<path style="fill:none;stroke:#263238;stroke-linecap:round;stroke-linejoin:round;stroke-miterlimit:10;" d="M194.4,359.71
						c-0.02,2.92,1.95,4.69,2.85,5.63c0.9,0.94-1.44,3.5,1.14,5.34"/>
				</g>
				<g>
					<g>
						<defs>
							<path id="XMLID_575_" d="M364.45,452.15c-7.29,1.99-15.21-10.83-24.88-24.81v-0.01c-6.38-9.23-13.52-18.98-21.73-25.29
								c-0.65-0.49-1.32-0.98-1.99-1.44l4.8-24.07c9.97,5.22,16.14,13.59,26.49,22.19c16.65,13.86,31.4,22.36,35.49,28.49
								C386.71,433.34,376.94,448.74,364.45,452.15z"/>
						</defs>
						<use xlink:href="#XMLID_575_"  style="overflow:visible;fill:#FFFFFF;"/>
						<clipPath id="XMLID_9_">
							<use xlink:href="#XMLID_575_"  style="overflow:visible;"/>
						</clipPath>
						<path style="opacity:0.4;clip-path:url(#XMLID_9_);fill:#92E3A9;" d="M339.57,427.33c-6.38-9.23-13.52-18.98-21.73-25.29
							c1.47-0.02,2.59-0.17,3.18-0.48C321.02,401.55,333.99,412.12,339.57,427.33z"/>
						
							<use xlink:href="#XMLID_575_"  style="overflow:visible;fill:none;stroke:#263238;stroke-linecap:round;stroke-linejoin:round;stroke-miterlimit:10;"/>
					</g>
					<g>
						<defs>
							<path id="XMLID_576_" d="M323.35,399.69c-0.4,0.84-1.22,1.44-2.33,1.86c-0.25,0.1-0.52,0.18-0.79,0.26
								c-0.06,0.01-0.14,0.02-0.22,0.05c-7.7,2.01-25.04-2.17-25.04-2.17s-11.35-5.4-12.04-6.67c-0.42-0.82-0.94-2.19-1.27-3.1
								c-0.18-0.54-0.31-0.91-0.31-0.91s-4.09-2.27-4.55-4.09c-0.45-1.81-1.37-2.27,1.14-2.62c2.5-0.33,16.12,0,16.12,0l-14.75-6.02
								c0,0-9.77-4.93-10.68-6.66c-0.91-1.75-2.04-2.88,2.95-2.19c4.99,0.68,15.9,3.86,15.9,3.86l8.54,1.81l-8.54-3.64
								c0,0-16.81-2.03-13.63-7.26c0,0,6.36,0,9.54,0s13.35,1.19,16.12,2.04c2.78,0.85,21.15,12.26,21.15,12.26"/>
						</defs>
						<use xlink:href="#XMLID_576_"  style="overflow:visible;fill:#FFFFFF;"/>
						<clipPath id="XMLID_10_">
							<use xlink:href="#XMLID_576_"  style="overflow:visible;"/>
						</clipPath>
						<path style="opacity:0.4;clip-path:url(#XMLID_10_);fill:#92E3A9;" d="M320.01,401.86c-7.7,2.01-25.04-2.17-25.04-2.17
							s-11.35-5.4-12.04-6.67c-0.42-0.82-0.94-2.19-1.27-3.1l13.94,1.56c0,0-1.68,2.72,0,5.72
							C297.14,399.98,314.79,402.81,320.01,401.86z"/>
						
							<use xlink:href="#XMLID_576_"  style="overflow:visible;fill:none;stroke:#263238;stroke-linecap:round;stroke-linejoin:round;stroke-miterlimit:10;"/>
					</g>
					
						<line style="fill:none;stroke:#263238;stroke-linecap:round;stroke-linejoin:round;stroke-miterlimit:10;" x1="281.34" y1="389.02" x2="298.12" y2="391.48"/>
				</g>
			</g>
			<g>
				<g>
					<defs>
						<path id="XMLID_3_" d="M114.14,440.38l42.04,12.67l76.93-17.55c0,0-46.99-13.37-47.43-13.05
							C185.24,422.76,114.14,440.38,114.14,440.38z"/>
					</defs>
					<use xlink:href="#XMLID_3_"  style="overflow:visible;fill:#92E3A9;"/>
					<clipPath id="XMLID_11_">
						<use xlink:href="#XMLID_3_"  style="overflow:visible;"/>
					</clipPath>
					<path style="opacity:0.3;clip-path:url(#XMLID_11_);fill-opacity:0.7;" d="M114.14,440.38l42.04,12.67l76.93-17.55
						c0,0-46.99-13.37-47.43-13.05C185.24,422.76,114.14,440.38,114.14,440.38z"/>
					
						<use xlink:href="#XMLID_3_"  style="overflow:visible;fill:none;stroke:#263238;stroke-linecap:round;stroke-linejoin:round;stroke-miterlimit:10;"/>
				</g>
				<g>
					<defs>
						<path id="XMLID_1_" d="M114.75,425.57c-2.95,0.2-3.69,10.84-0.6,14.81l67.91-14.09l5.45-12.89L114.75,425.57z"/>
					</defs>
					<use xlink:href="#XMLID_1_"  style="overflow:visible;fill:#92E3A9;"/>
					<clipPath id="XMLID_12_">
						<use xlink:href="#XMLID_1_"  style="overflow:visible;"/>
					</clipPath>
					<path style="opacity:0.3;clip-path:url(#XMLID_12_);fill-opacity:0.7;" d="M114.75,425.57c-2.95,0.2-3.69,10.84-0.6,14.81
						l67.91-14.09l5.45-12.89L114.75,425.57z"/>
					
						<use xlink:href="#XMLID_1_"  style="overflow:visible;fill:none;stroke:#263238;stroke-linecap:round;stroke-linejoin:round;stroke-miterlimit:10;"/>
				</g>
				<path style="fill:#FFFFFF;stroke:#263238;stroke-linecap:round;stroke-linejoin:round;stroke-miterlimit:10;" d="M229.8,425.42
					c0,0-1.01,5.6-0.36,9.03l-73.35,16.61l-38.66-11.36c0,0-4.02-7.11-0.52-12.61l70.65-11.99L229.8,425.42z"/>
				<polygon style="fill:#92E3A9;stroke:#263238;stroke-linecap:round;stroke-linejoin:round;stroke-miterlimit:10;" points="
					114.75,425.57 187.5,413.4 232.67,424.85 156.69,439.99 				"/>
				<polyline style="fill:none;stroke:#263238;stroke-linecap:round;stroke-linejoin:round;stroke-miterlimit:10;" points="
					117.33,432.37 155.8,443.82 218.77,431.15 				"/>
				
					<line style="fill:none;stroke:#263238;stroke-linecap:round;stroke-linejoin:round;stroke-miterlimit:10;" x1="229.24" y1="432.32" x2="161.53" y2="446.77"/>
				<path style="fill:none;stroke:#263238;stroke-linecap:round;stroke-linejoin:round;stroke-miterlimit:10;" d="M118.24,436.88
					c0.58,0.06,29,8.81,29,8.81"/>
				
					<line style="fill:none;stroke:#263238;stroke-linecap:round;stroke-linejoin:round;stroke-miterlimit:10;" x1="223.7" y1="429.67" x2="229.09" y2="428.79"/>
				
					<line style="fill:none;stroke:#263238;stroke-linecap:round;stroke-linejoin:round;stroke-miterlimit:10;" x1="154.54" y1="447.81" x2="151.69" y2="447.17"/>
				<g>
					<defs>
						<path id="XMLID_2_" d="M116.91,427.08c0,0,5.21,5.51,0.52,12.61C117.43,439.7,113.09,433.91,116.91,427.08z"/>
					</defs>
					<use xlink:href="#XMLID_2_"  style="overflow:visible;fill:#263238;"/>
					<clipPath id="XMLID_13_">
						<use xlink:href="#XMLID_2_"  style="overflow:visible;"/>
					</clipPath>
					<path style="opacity:0.3;clip-path:url(#XMLID_13_);fill:#FFFFFF;fill-opacity:0.7;" d="M116.91,427.08
						c0,0,5.21,5.51,0.52,12.61C117.43,439.7,113.09,433.91,116.91,427.08z"/>
					
						<use xlink:href="#XMLID_2_"  style="overflow:visible;fill:none;stroke:#263238;stroke-linecap:round;stroke-linejoin:round;stroke-miterlimit:10;"/>
				</g>
			</g>
			<g>
				<defs>
					<polygon id="XMLID_4_" points="274.05,443.82 347.47,446.83 340.31,472.11 250,468.66 					"/>
				</defs>
				<use xlink:href="#XMLID_4_"  style="overflow:visible;fill:#FFFFFF;"/>
				<clipPath id="XMLID_14_">
					<use xlink:href="#XMLID_4_"  style="overflow:visible;"/>
				</clipPath>
				<polygon style="opacity:0.4;clip-path:url(#XMLID_14_);fill:#92E3A9;" points="274.05,443.82 347.47,446.83 340.31,472.11 
					250,468.66 				"/>
				
					<use xlink:href="#XMLID_4_"  style="overflow:visible;fill:none;stroke:#263238;stroke-linecap:round;stroke-linejoin:round;stroke-miterlimit:10;"/>
			</g>
		</g>
	</g>
</g>
</svg>
